<svg width="315" height="192" viewBox="0 0 315 192" fill="none" xmlns="http://www.w3.org/2000/svg">
<path d="M0 47.0769C0 30.5985 0 22.3592 3.30124 16.0653C6.2051 10.529 10.8386 6.02781 16.5378 3.20692C23.0168 0 31.4984 0 48.4615 0H266.538C283.502 0 291.983 0 298.462 3.20692C304.161 6.02781 308.795 10.529 311.699 16.0653C315 22.3592 315 30.5985 315 47.0769V144.173C315 160.652 315 168.891 311.699 175.185C308.795 180.721 304.161 185.222 298.462 188.043C291.983 191.25 283.502 191.25 266.538 191.25H48.4615C31.4984 191.25 23.0168 191.25 16.5378 188.043C10.8386 185.222 6.2051 180.721 3.30124 175.185C0 168.891 0 160.652 0 144.173V47.0769Z" fill="url(#paint0_linear)"/>
<mask id="mask0" mask-type="alpha" maskUnits="userSpaceOnUse" x="0" y="0" width="315" height="192">
<path d="M0 47.0769C0 30.5985 0 22.3592 3.30124 16.0653C6.2051 10.529 10.8386 6.02781 16.5378 3.20692C23.0168 0 31.4984 0 48.4615 0H266.538C283.502 0 291.983 0 298.462 3.20692C304.161 6.02781 308.795 10.529 311.699 16.0653C315 22.3592 315 30.5985 315 47.0769V144.173C315 160.652 315 168.891 311.699 175.185C308.795 180.721 304.161 185.222 298.462 188.043C291.983 191.25 283.502 191.25 266.538 191.25H48.4615C31.4984 191.25 23.0168 191.25 16.5378 188.043C10.8386 185.222 6.2051 180.721 3.30124 175.185C0 168.891 0 160.652 0 144.173V47.0769Z" fill="url(#paint1_linear)"/>
</mask>
<g mask="url(#mask0)">
<g opacity="0.95">
<path d="M148.412 90.5083C148.412 90.7006 148.383 90.8585 148.327 90.982L144.192 100.93C143.825 101.795 143.337 102.413 142.73 102.784C142.122 103.154 141.436 103.34 140.673 103.34C140.433 103.34 140.214 103.312 140.016 103.257C139.818 103.202 139.641 103.12 139.486 103.01C139.344 102.914 139.231 102.79 139.146 102.639C139.062 102.502 139.019 102.344 139.019 102.166C139.019 101.85 139.132 101.575 139.358 101.342C139.599 101.122 139.91 101.012 140.291 101.012C140.348 101.012 140.404 101.012 140.461 101.012C140.517 101.012 140.574 101.005 140.631 100.992C140.857 100.951 141.055 100.875 141.224 100.765C141.408 100.655 141.549 100.497 141.648 100.291L142.03 99.4471L138.532 90.9614C138.475 90.8379 138.447 90.6937 138.447 90.5289C138.447 90.2131 138.567 89.9179 138.807 89.6433C139.062 89.3687 139.394 89.2314 139.804 89.2314C140.072 89.2314 140.32 89.3069 140.546 89.4579C140.772 89.609 140.942 89.8218 141.055 90.0964L143.429 96.2752L145.804 90.0964C145.903 89.8355 146.072 89.6296 146.313 89.4785C146.553 89.3137 146.814 89.2314 147.097 89.2314C147.507 89.2314 147.825 89.3687 148.051 89.6433C148.292 89.9042 148.412 90.1925 148.412 90.5083Z" fill="white"/>
<path d="M160.384 94.3186C160.384 95.0326 160.257 95.7054 160.003 96.337C159.762 96.9687 159.409 97.5247 158.943 98.0053C158.476 98.4722 157.904 98.8498 157.225 99.1381C156.561 99.4127 155.805 99.55 154.957 99.55C154.109 99.55 153.352 99.4127 152.688 99.1381C152.024 98.8498 151.458 98.4722 150.992 98.0053C150.525 97.5247 150.165 96.9687 149.911 96.337C149.67 95.7054 149.55 95.0326 149.55 94.3186C149.55 93.6183 149.67 92.9524 149.911 92.3208C150.165 91.6892 150.525 91.1399 150.992 90.6731C151.458 90.1925 152.024 89.8149 152.688 89.5403C153.352 89.252 154.109 89.1078 154.957 89.1078C155.805 89.1078 156.561 89.252 157.225 89.5403C157.904 89.8149 158.476 90.1925 158.943 90.6731C159.409 91.1399 159.762 91.6892 160.003 92.3208C160.257 92.9524 160.384 93.6183 160.384 94.3186ZM157.586 94.3186C157.586 93.9342 157.522 93.5703 157.395 93.227C157.282 92.87 157.112 92.5611 156.886 92.3002C156.674 92.0393 156.405 91.8333 156.08 91.6823C155.755 91.5175 155.381 91.4352 154.957 91.4352C154.533 91.4352 154.158 91.5175 153.833 91.6823C153.522 91.8333 153.253 92.0393 153.027 92.3002C152.801 92.5611 152.631 92.87 152.518 93.227C152.405 93.5703 152.349 93.9342 152.349 94.3186C152.349 94.7168 152.405 95.0944 152.518 95.4514C152.631 95.7947 152.801 96.0967 153.027 96.3576C153.253 96.6185 153.522 96.8313 153.833 96.9961C154.158 97.1472 154.533 97.2227 154.957 97.2227C155.381 97.2227 155.755 97.1472 156.08 96.9961C156.405 96.8313 156.674 96.6185 156.886 96.3576C157.112 96.0967 157.282 95.7947 157.395 95.4514C157.522 95.0944 157.586 94.7168 157.586 94.3186Z" fill="white"/>
<path d="M171.16 98.1083C171.16 98.4241 171.032 98.7262 170.778 99.0145C170.538 99.2892 170.22 99.4265 169.824 99.4265C169.612 99.4265 169.4 99.3853 169.188 99.3029C168.99 99.2068 168.827 99.0626 168.7 98.8704L166.304 95.472L165.075 96.749V98.1289C165.075 98.4859 164.94 98.7948 164.672 99.0557C164.417 99.3029 164.099 99.4265 163.718 99.4265C163.35 99.4265 163.032 99.3029 162.764 99.0557C162.509 98.7948 162.382 98.4859 162.382 98.1289V86.7186C162.382 86.3616 162.509 86.0596 162.764 85.8124C163.032 85.5652 163.364 85.4417 163.76 85.4417C164.128 85.4417 164.439 85.5652 164.693 85.8124C164.947 86.0596 165.075 86.3616 165.075 86.7186V93.7831L168.7 89.6227C168.94 89.3481 169.244 89.2108 169.612 89.2108C169.951 89.2108 170.248 89.3343 170.502 89.5815C170.757 89.8287 170.884 90.117 170.884 90.4465C170.884 90.7349 170.785 90.9958 170.587 91.2292L168.212 93.8655L170.905 97.3668C171.075 97.6003 171.16 97.8474 171.16 98.1083Z" fill="white"/>
<path d="M175.064 85.1739C175.516 85.1739 175.898 85.325 176.209 85.627C176.52 85.9154 176.675 86.2792 176.675 86.7186C176.675 87.158 176.52 87.5287 176.209 87.8308C175.898 88.1329 175.516 88.2839 175.064 88.2839C174.626 88.2839 174.244 88.1329 173.919 87.8308C173.608 87.5287 173.453 87.158 173.453 86.7186C173.453 86.2792 173.608 85.9154 173.919 85.627C174.244 85.325 174.626 85.1739 175.064 85.1739ZM176.421 98.1289C176.421 98.4859 176.287 98.7948 176.018 99.0557C175.764 99.3029 175.446 99.4265 175.064 99.4265C174.696 99.4265 174.378 99.3029 174.11 99.0557C173.855 98.7948 173.728 98.4859 173.728 98.1289V90.5083C173.728 90.1513 173.855 89.8492 174.11 89.6021C174.378 89.3549 174.711 89.2314 175.106 89.2314C175.474 89.2314 175.785 89.3549 176.039 89.6021C176.294 89.8492 176.421 90.1513 176.421 90.5083V98.1289Z" fill="white"/>
</g>
<path d="M158.285 70.3653C158.285 70.8772 158.094 71.3186 157.713 71.6893C157.331 72.06 156.867 72.2454 156.322 72.2454C155.795 72.2454 155.341 72.06 154.959 71.6893C154.578 71.3186 154.387 70.8772 154.387 70.3653V64.6719H145.8V70.3917C145.8 70.9037 145.609 71.345 145.228 71.7158C144.846 72.0689 144.383 72.2454 143.837 72.2454C143.31 72.2454 142.856 72.0689 142.474 71.7158C142.111 71.345 141.929 70.9037 141.929 70.3917V56.1186C141.929 55.6066 142.12 55.1741 142.502 54.8211C142.883 54.4503 143.347 54.265 143.892 54.265C144.419 54.265 144.864 54.4503 145.228 54.8211C145.609 55.1741 145.8 55.6066 145.8 56.1186V61.3618H154.387V56.1186C154.387 55.6066 154.578 55.1741 154.959 54.8211C155.341 54.4503 155.813 54.265 156.377 54.265C156.904 54.265 157.349 54.4503 157.713 54.8211C158.094 55.1741 158.285 55.6066 158.285 56.1186V70.3653Z" fill="white"/>
<path d="M173.154 70.5771C173.154 71.0361 172.99 71.4333 172.663 71.7687C172.336 72.0865 171.936 72.2454 171.464 72.2454C171.464 72.2454 171.418 72.2454 171.327 72.2454C171.236 72.2454 171.191 72.2454 171.191 72.2454C170.773 72.2454 170.419 72.1042 170.128 71.8217C169.837 71.5216 169.692 71.1685 169.692 70.7625C169.237 71.2744 168.647 71.6805 167.92 71.9806C167.193 72.263 166.393 72.4043 165.521 72.4043C164.994 72.4043 164.458 72.316 163.913 72.1395C163.367 71.9629 162.877 71.707 162.441 71.3715C162.004 71.0185 161.641 70.5771 161.35 70.0475C161.078 69.5179 160.941 68.8912 160.941 68.1674C160.941 67.4259 161.078 66.7904 161.35 66.2607C161.641 65.7311 162.004 65.3074 162.441 64.9897C162.877 64.6542 163.367 64.4159 163.913 64.2747C164.458 64.1158 164.994 64.0364 165.521 64.0364C166.393 64.0364 167.193 64.1688 167.92 64.4336C168.665 64.6984 169.255 65.0868 169.692 65.5987V63.8775C169.692 63.2243 169.428 62.7035 168.901 62.3151C168.374 61.9267 167.674 61.7325 166.802 61.7325C166.275 61.7325 165.766 61.7943 165.276 61.9179C164.785 62.0415 164.312 62.2533 163.858 62.5534C163.64 62.677 163.431 62.7388 163.231 62.7388C162.922 62.7388 162.622 62.6241 162.332 62.3946C162.059 62.1651 161.923 61.8473 161.923 61.4412C161.923 61.2117 161.986 60.9911 162.113 60.7792C162.313 60.4615 162.631 60.1878 163.068 59.9583C163.504 59.7288 163.976 59.5435 164.485 59.4022C165.012 59.261 165.53 59.1551 166.039 59.0845C166.566 59.0138 167.02 58.9785 167.402 58.9785C168.147 58.9785 168.865 59.058 169.555 59.2169C170.246 59.3757 170.855 59.6494 171.382 60.0378C171.927 60.4085 172.354 60.9028 172.663 61.5207C172.99 62.1386 173.154 62.9065 173.154 63.8245V70.5771ZM169.692 69.0147V67.4259C169.401 67.0552 169.001 66.7815 168.492 66.605C168.002 66.4108 167.475 66.3137 166.911 66.3137C166.221 66.3137 165.63 66.4814 165.139 66.8168C164.667 67.1523 164.431 67.6289 164.431 68.2468C164.431 68.847 164.667 69.3149 165.139 69.6503C165.63 69.968 166.221 70.1269 166.911 70.1269C167.475 70.1269 168.002 70.0387 168.492 69.8621C169.001 69.6679 169.401 69.3855 169.692 69.0147Z" fill="white"/>
<path d="M147.566 114.859C147.566 115.194 147.475 115.503 147.293 115.786L142.032 123.703V129.238C142.032 129.75 141.841 130.191 141.459 130.562C141.078 130.915 140.614 131.092 140.069 131.092C139.542 131.092 139.088 130.915 138.706 130.562C138.343 130.191 138.161 129.75 138.161 129.238V123.703L132.845 115.759C132.664 115.512 132.573 115.212 132.573 114.859C132.573 114.435 132.745 114.047 133.091 113.694C133.436 113.323 133.881 113.138 134.426 113.138C134.735 113.138 135.026 113.208 135.299 113.349C135.589 113.491 135.826 113.703 136.007 113.985L140.096 120.367L144.104 114.011C144.285 113.729 144.512 113.517 144.785 113.376C145.076 113.217 145.385 113.138 145.712 113.138C146.275 113.138 146.72 113.314 147.048 113.667C147.393 114.02 147.566 114.418 147.566 114.859Z" fill="white"/>
<path d="M160.282 124.524C160.282 125.442 160.119 126.307 159.792 127.119C159.483 127.932 159.028 128.647 158.429 129.264C157.829 129.865 157.093 130.35 156.221 130.721C155.367 131.074 154.394 131.25 153.304 131.25C152.214 131.25 151.241 131.074 150.387 130.721C149.533 130.35 148.806 129.865 148.206 129.264C147.607 128.647 147.143 127.932 146.816 127.119C146.507 126.307 146.353 125.442 146.353 124.524C146.353 123.624 146.507 122.768 146.816 121.956C147.143 121.144 147.607 120.437 148.206 119.837C148.806 119.219 149.533 118.734 150.387 118.381C151.241 118.01 152.214 117.825 153.304 117.825C154.394 117.825 155.367 118.01 156.221 118.381C157.093 118.734 157.829 119.219 158.429 119.837C159.028 120.437 159.483 121.144 159.792 121.956C160.119 122.768 160.282 123.624 160.282 124.524ZM156.684 124.524C156.684 124.03 156.602 123.562 156.439 123.121C156.293 122.662 156.075 122.265 155.785 121.929C155.512 121.594 155.167 121.329 154.749 121.135C154.331 120.923 153.849 120.817 153.304 120.817C152.759 120.817 152.277 120.923 151.859 121.135C151.459 121.329 151.114 121.594 150.823 121.929C150.533 122.265 150.314 122.662 150.169 123.121C150.024 123.562 149.951 124.03 149.951 124.524C149.951 125.036 150.024 125.522 150.169 125.981C150.314 126.422 150.533 126.811 150.823 127.146C151.114 127.481 151.459 127.755 151.859 127.967C152.277 128.161 152.759 128.258 153.304 128.258C153.849 128.258 154.331 128.161 154.749 127.967C155.167 127.755 155.512 127.481 155.785 127.146C156.075 126.811 156.293 126.422 156.439 125.981C156.602 125.522 156.684 125.036 156.684 124.524Z" fill="white"/>
<path d="M166.51 118.487C166.51 119.069 166.301 119.572 165.883 119.996C165.465 120.402 164.965 120.605 164.384 120.605C164.057 120.605 163.748 120.543 163.457 120.42C163.166 120.296 162.903 120.12 162.666 119.89C162.448 119.661 162.266 119.378 162.121 119.043C161.994 118.707 161.93 118.328 161.93 117.904C161.93 117.057 162.121 116.254 162.503 115.494C162.903 114.718 163.448 114.029 164.138 113.429C164.32 113.252 164.565 113.164 164.874 113.164C165.201 113.164 165.447 113.261 165.61 113.455C165.774 113.65 165.856 113.844 165.856 114.038C165.856 114.285 165.774 114.47 165.61 114.594C165.247 114.877 164.929 115.203 164.656 115.574C164.402 115.945 164.229 116.306 164.138 116.66C164.175 116.642 164.247 116.624 164.356 116.607C164.465 116.589 164.565 116.58 164.656 116.58C165.183 116.58 165.619 116.757 165.965 117.11C166.328 117.463 166.51 117.922 166.51 118.487Z" fill="white"/>
<path d="M182.017 134.296C182.017 134.755 181.845 135.143 181.5 135.461C181.172 135.796 180.754 135.964 180.246 135.964C179.773 135.964 179.364 135.796 179.019 135.461C178.692 135.143 178.528 134.755 178.528 134.296V129.291C178.001 129.962 177.383 130.456 176.675 130.774C175.984 131.092 175.248 131.25 174.467 131.25C173.612 131.25 172.831 131.1 172.122 130.8C171.413 130.5 170.796 130.068 170.269 129.503C169.76 128.92 169.36 128.214 169.069 127.384C168.778 126.537 168.633 125.584 168.633 124.524C168.633 123.465 168.778 122.521 169.069 121.691C169.36 120.844 169.76 120.137 170.269 119.572C170.796 119.008 171.413 118.575 172.122 118.275C172.831 117.975 173.612 117.825 174.467 117.825C175.284 117.825 176.038 117.992 176.729 118.328C177.42 118.663 178.019 119.14 178.528 119.758V119.652C178.528 119.193 178.692 118.804 179.019 118.487C179.364 118.151 179.791 117.984 180.3 117.984C180.773 117.984 181.172 118.151 181.5 118.487C181.845 118.804 182.017 119.193 182.017 119.652V134.296ZM178.528 126.802V122.273C178.383 122.062 178.201 121.867 177.983 121.691C177.765 121.514 177.52 121.364 177.247 121.241C176.974 121.099 176.693 120.994 176.402 120.923C176.111 120.852 175.83 120.817 175.557 120.817C175.066 120.817 174.612 120.905 174.194 121.082C173.794 121.258 173.449 121.514 173.158 121.85C172.867 122.168 172.64 122.556 172.477 123.015C172.313 123.474 172.231 123.977 172.231 124.524C172.231 125.089 172.313 125.601 172.477 126.06C172.64 126.502 172.867 126.89 173.158 127.225C173.449 127.561 173.794 127.817 174.194 127.993C174.612 128.17 175.066 128.258 175.557 128.258C175.83 128.258 176.111 128.223 176.402 128.152C176.693 128.064 176.974 127.958 177.247 127.834C177.52 127.693 177.765 127.534 177.983 127.358C178.201 127.181 178.383 126.996 178.528 126.802Z" fill="white"/>
<path d="M37.8608 137.641V137.961H60.845L60.7548 137.553C53.1235 137.553 45.4922 137.611 37.8608 137.641Z" fill="white"/>
<path d="M19.7637 138.257V195.956H78.8491V138.083L19.7637 138.257Z" fill="#F2F2F2"/>
<path d="M78.8481 195.956L81.0778 194.559V139.06L78.8481 138.082V195.956Z" fill="#505B75"/>
<path d="M77.6979 139.619C77.6979 140.038 77.3742 140.352 76.9427 140.352C76.5112 140.352 76.1875 140.003 76.1875 139.619C76.1875 139.2 76.5112 138.885 76.9427 138.885C77.3383 138.85 77.6979 139.2 77.6979 139.619Z" fill="#C6C6C6"/>
<path d="M21.9933 139.619C21.9933 140.038 21.6697 140.353 21.2381 140.353C20.8066 140.353 20.4829 140.003 20.4829 139.619C20.4829 139.2 20.8066 138.886 21.2381 138.886C21.6337 138.851 21.9933 139.2 21.9933 139.619Z" fill="#C6C6C6"/>
<path d="M34.9033 163.998L29.2573 167.211C29.2573 167.211 35.191 179.296 36.4137 185.338C36.4137 185.338 42.0957 172.38 69.3548 146.954L68.276 145.871C68.276 145.871 46.4471 161.308 38.8951 173.952L34.9033 163.998Z" fill="#26B545"/>
<path d="M57.7749 129.526C57.7389 129.526 57.7029 129.526 57.667 129.526C55.9408 129.456 41.3403 129.491 40.5491 129.526C40.5491 129.526 39.0028 129.596 36.8091 129.91C38.4993 134.276 35.4066 135.568 33.9321 135.882V138.222H61.443L60.8676 135.324C58.2783 134.415 57.7749 131.621 57.7749 129.526Z" fill="#006AB0"/>
<path d="M57.7752 130.119C57.7752 129.909 57.7392 129.735 57.7392 129.525C57.7033 129.525 57.6673 129.525 57.6313 129.525C55.9052 129.455 41.3046 129.49 40.5135 129.525C40.5135 129.525 38.9671 129.595 36.7734 129.909C36.8094 129.944 36.8094 130.014 36.8094 130.049C43.822 130.049 50.7986 130.084 57.7752 130.119Z" fill="white"/>
<path d="M37.2767 132.179C37.2767 132.389 37.2767 132.563 37.2407 132.738C44.2533 132.773 51.3018 132.808 58.3144 132.808C58.2065 132.563 58.1346 132.319 58.0627 132.074C51.122 132.074 44.1814 132.144 37.2767 132.179Z" fill="white"/>
<path d="M60.041 134.938C51.9856 134.938 43.9301 134.938 35.9106 135.008C35.6229 135.218 35.2992 135.393 34.9756 135.532C43.6064 135.567 52.2733 135.567 60.9041 135.567L60.8682 135.358C60.5445 135.218 60.2568 135.078 60.041 134.938Z" fill="white"/>
<g style="mix-blend-mode:multiply">
<path d="M43.2826 142.902C45.1526 142.483 46.4832 140.981 44.2895 141.086C42.0959 141.156 41.017 142.553 40.7293 142.483C40.5495 142.448 36.6297 140.108 33.429 138.222C31.5231 138.222 29.6531 138.222 27.7471 138.257C31.6669 140.632 38.7514 144.683 38.7514 144.683C38.7514 144.683 38.3918 145.521 39.0391 146.604C39.0391 146.604 38.8953 151.599 39.8303 151.389C40.7653 151.179 40.118 146.464 40.5495 147.303C40.981 148.141 42.8151 151.738 43.3905 150.83C43.9659 149.922 40.9811 145.556 42.3836 146.604C43.7501 147.652 45.9438 149.713 46.3753 148.735C46.8069 147.757 42.0239 145.207 44.0378 145.556C46.0876 145.906 49.1084 146.185 47.7419 144.858C46.4113 143.496 41.3766 143.356 43.2826 142.902Z" fill="#C6C6C6"/>
</g>
<path d="M72.5918 101.234C72.5918 101.234 84.3513 102.911 86.9766 118.069L84.711 121.038L82.8409 116.951L84.1356 122.086L80.935 124.007L79.4246 119.291L80.1438 124.007L75.3609 124.984C75.3609 124.984 75.5766 115.1 72.8795 111.363L72.5918 101.234Z" fill="#E08804"/>
<path opacity="0.3" d="M74.4255 115.135C76.1517 111.014 76.2236 106.334 75.1448 101.968C73.6344 101.374 72.6274 101.234 72.6274 101.234L72.9151 111.398C73.5625 112.341 74.0659 113.668 74.4255 115.135Z" fill="#E08804"/>
<path d="M44.6486 128.303C44.6486 128.303 43.354 134.729 46.6265 135.148C49.899 135.567 51.1217 129.944 50.9779 128.303H44.6486Z" fill="#EFCAA6"/>
<path d="M36.7736 129.909C34.3282 130.259 31.0557 130.922 28.2147 132.145C22.7844 134.485 23.4318 135.742 24.6904 136.72C25.9131 137.698 38.1042 144.683 38.1042 144.683C38.1042 144.683 37.7446 145.522 38.3919 146.604C38.3919 146.604 38.2481 151.599 39.1831 151.389C40.1181 151.18 39.4708 146.465 39.9023 147.303C40.3338 148.141 42.1679 151.739 42.7433 150.83C43.3187 149.922 40.3338 145.557 41.7364 146.604C43.1029 147.652 45.2966 149.713 45.7281 148.735C46.1597 147.757 41.3767 145.207 43.3906 145.557C45.4404 145.906 48.4612 146.185 47.0947 144.858C45.7281 143.531 40.6935 143.391 42.5994 142.937C44.4695 142.518 45.8001 141.016 43.6064 141.121C41.4127 141.191 40.3339 142.588 40.0462 142.518C39.7585 142.448 28.6462 135.812 28.6462 135.812C28.6462 135.812 32.1345 134.275 33.8607 133.821V135.882C35.3711 135.533 38.4638 134.275 36.7736 129.909Z" fill="#EFCAA6"/>
<path d="M36.4503 132.983C36.4503 132.983 36.3064 133.088 36.0906 133.192C35.8749 133.297 35.5512 133.437 35.2276 133.542C34.9039 133.647 34.5802 133.716 34.3285 133.751C34.0768 133.786 33.897 133.786 33.897 133.786C33.897 133.786 34.0408 133.681 34.2566 133.577C34.4724 133.472 34.796 133.332 35.1197 133.227C35.4433 133.123 35.767 133.053 36.0187 133.018C36.2705 132.983 36.4503 132.983 36.4503 132.983Z" fill="#C39368"/>
<path d="M91.0397 106.962C91.2554 106.334 94.0964 102.736 93.3772 102.177C92.658 101.619 90.68 105.705 90.1047 105.356C89.5293 105.006 90.752 99.2086 89.3135 100.012C87.875 100.78 88.6662 105.53 87.9469 105.076C87.2277 104.587 86.7242 98.9642 85.6094 99.9421C84.5306 100.92 87.1917 105.949 86.1129 105.74C85.034 105.53 83.5236 104.867 82.4088 105.53C81.294 106.159 85.3217 106.508 85.6813 107.521C86.041 108.499 85.969 108.918 85.969 108.918C85.969 108.918 81.4738 117.091 74.5332 122.016C67.7364 126.836 59.7168 129.525 57.7749 129.56C57.7749 131.69 58.3143 134.45 60.8676 135.393L60.2922 132.459C60.2922 132.459 76.6909 131.306 89.3495 108.674C89.3495 108.674 89.9968 108.883 90.5722 108.255C90.5722 108.255 94.9235 107.836 94.9235 106.997C94.8876 106.124 90.8239 107.591 91.0397 106.962Z" fill="#EFCAA6"/>
<path d="M59.6812 130.224C59.6812 130.224 59.789 130.399 59.8969 130.643C60.0048 130.888 60.1127 131.237 60.2206 131.586C60.2925 131.936 60.3644 132.285 60.4004 132.564C60.4363 132.844 60.4004 133.018 60.4004 133.018C60.4004 133.018 60.2925 132.844 60.1846 132.599C60.0767 132.355 59.9688 132.005 59.8969 131.656C59.825 131.307 59.7531 130.958 59.7171 130.678C59.6812 130.399 59.6812 130.224 59.6812 130.224Z" fill="#C39368"/>
<g style="mix-blend-mode:multiply">
<path d="M43.1388 134.694C45.8 135.043 48.5331 135.008 51.1943 134.554C56.4807 133.611 61.4794 131.131 65.0396 127.255C61.6232 128.722 58.7822 129.525 57.7394 129.525C57.7034 129.525 57.6674 129.525 57.6315 129.525C56.9122 129.49 54.0712 129.49 50.9066 129.49C50.9785 129.036 50.9785 128.617 50.9426 128.337H44.6133C44.6133 128.337 44.5054 128.791 44.4334 129.49C42.3117 129.49 40.7294 129.525 40.4776 129.525C40.4776 129.525 38.9313 129.595 36.7376 129.909C35.8386 130.049 34.7957 130.223 33.7168 130.433C35.9824 133.087 39.7584 134.24 43.1388 134.694Z" fill="#D4D4D4"/>
</g>
<path d="M24.6901 102.107C24.6901 102.107 20.9861 100.571 15.376 105.006C9.76594 109.442 7.57227 118.558 7.57227 118.558L9.19055 119.466C9.19055 119.466 12.1754 113.424 14.9085 110.909C14.9085 110.909 11.0606 116.497 10.2694 120.584C10.2694 120.584 13.6498 121.841 15.0164 121.946C15.0164 121.946 16.4189 115.379 17.4618 114.052C17.4618 114.052 15.9514 119.606 16.0952 122.47C16.0952 122.47 19.0441 123.308 21.3816 122.993C21.3816 122.993 20.7703 114.856 24.3665 109.756L24.6901 102.107Z" fill="#E08804"/>
<path opacity="0.3" d="M21.9574 101.933C21.4539 103.33 21.1303 104.867 20.9864 106.019C20.6628 108.22 20.5549 110.42 20.8785 112.62C21.0943 114.018 21.382 115.38 21.8135 116.707C22.2091 114.402 22.9643 111.817 24.4388 109.757L24.7265 102.073C24.6905 102.108 23.6836 101.688 21.9574 101.933Z" fill="#E08804"/>
<path d="M74.3535 105.88C72.6273 90.4072 55.2937 76.8905 36.126 87.8226C36.126 87.8226 24.4743 93.1664 22.4964 106.648C20.5185 120.13 27.9266 125.299 31.6307 126.207C31.6307 126.207 25.5891 119.571 27.4232 108.22C27.4232 108.22 31.8465 108.604 38.2837 108.813C38.7152 106.369 39.7941 102.073 42.4553 99.3833C42.4553 99.3833 39.9379 103.609 39.7941 108.848C42.2035 108.918 44.8647 108.918 47.6697 108.883C47.7417 106.788 48.1013 103.26 49.6476 100.256C49.6476 100.256 48.8565 104.518 48.8565 108.848C52.9202 108.779 57.1996 108.534 61.3353 108.08C61.3712 106.334 61.3353 103.679 60.7958 101.234C60.7958 101.234 62.0185 104.343 62.7378 107.905C64.8595 107.661 66.9094 107.312 68.8513 106.927C68.8513 106.927 69.8582 114.891 66.298 123.308C66.4059 123.168 66.4419 123.064 66.4419 123.064C66.4419 123.064 75.9358 120.025 74.3535 105.88Z" fill="#F39F00"/>
<path d="M68.9229 106.962C66.945 107.346 64.8952 107.696 62.8094 107.94C62.0902 104.378 60.8675 101.269 60.8675 101.269C61.4069 103.714 61.4429 106.403 61.4069 108.115C57.2713 108.569 52.9918 108.813 48.9281 108.883C48.9281 104.552 49.7193 100.291 49.7193 100.291C48.1369 103.295 47.8133 106.822 47.7414 108.918C44.9723 108.953 42.3111 108.953 39.8657 108.883C40.0095 103.644 42.5269 99.418 42.5269 99.418C39.8657 102.107 38.7509 106.368 38.3553 108.848C31.9541 108.674 27.4948 108.254 27.4948 108.254C27.2071 109.966 27.1352 111.572 27.1711 113.074C27.2431 115.659 27.6746 117.859 28.286 119.745C29.6166 123.971 31.7383 126.277 31.7383 126.277C31.7383 126.277 38.1755 133.856 50.4745 132.249C61.4788 130.817 65.6864 124.705 66.4416 123.413C67.0169 122.016 67.4845 120.653 67.8441 119.326C68.3835 117.3 68.7072 115.414 68.887 113.738C69.2466 109.686 68.9229 106.962 68.9229 106.962Z" fill="#F4D9BF"/>
<path d="M31.6666 95.1223C31.2711 95.5414 30.8755 95.9955 30.5159 96.4495C30.1562 96.9036 29.7966 97.3925 29.437 97.8466L28.9335 98.58L28.466 99.3135C28.1783 99.8025 27.8547 100.326 27.6029 100.85C27.4591 101.095 27.3153 101.374 27.2074 101.619L26.8478 102.422L26.5241 103.225C26.4162 103.505 26.3083 103.784 26.2364 104.064C26.1285 104.343 26.0566 104.622 25.9487 104.902L25.7329 105.74C25.661 106.019 25.5891 106.299 25.5172 106.578L25.3373 107.451L25.3014 107.347C25.4452 107.451 25.625 107.556 25.8049 107.661C25.9847 107.766 26.1645 107.836 26.3443 107.905C26.5241 107.975 26.7039 108.045 26.9197 108.08C27.0995 108.15 27.3153 108.15 27.4951 108.22C27.2793 108.185 27.0995 108.22 26.8837 108.15C26.6679 108.115 26.4881 108.08 26.3083 108.01C26.1285 107.94 25.9127 107.871 25.7329 107.801C25.5531 107.731 25.3733 107.626 25.1935 107.521L25.1216 107.486V107.416L25.2654 106.543C25.3014 106.264 25.3374 105.95 25.4093 105.67L25.5891 104.797C25.661 104.518 25.7689 104.238 25.8408 103.959C25.9127 103.679 26.0206 103.4 26.1285 103.121L26.4522 102.282L26.8118 101.479C26.9197 101.2 27.0635 100.955 27.2074 100.676C27.3512 100.431 27.4951 100.152 27.6389 99.9073C27.7828 99.6628 27.9626 99.3834 28.1064 99.1389L28.6099 98.4054L29.1493 97.7069C29.5089 97.2528 29.9045 96.7639 30.3361 96.3447C30.7676 95.9256 31.1991 95.4716 31.6666 95.1223Z" fill="#CC6809"/>
<path d="M66.9458 95.1223C67.1256 95.2969 67.3054 95.5065 67.4493 95.6811C67.5931 95.8907 67.737 96.1003 67.8808 96.3098C68.1685 96.7289 68.3843 97.183 68.636 97.637L68.9597 98.3006C69.0676 98.5451 69.1754 98.7547 69.2833 98.9992C69.3912 99.2437 69.4631 99.4532 69.571 99.6977C69.6789 99.9422 69.7508 100.187 69.8228 100.431C69.8947 100.676 70.0026 100.92 70.0385 101.165L70.2543 101.898L70.4341 102.632C70.506 102.876 70.542 103.121 70.578 103.365L70.6858 104.098L70.7578 104.867C70.7937 105.356 70.7937 105.88 70.7937 106.369V106.439L70.7218 106.473C70.1464 106.613 69.5351 106.788 68.9597 106.928C69.5351 106.683 70.0745 106.473 70.6499 106.264L70.578 106.369C70.542 105.88 70.506 105.391 70.4341 104.902L70.3262 104.168L70.1824 103.435C70.1464 103.19 70.0745 102.946 70.0385 102.701L69.8587 101.968L69.6429 101.234C69.571 100.99 69.4991 100.746 69.4272 100.536C69.3552 100.291 69.2833 100.047 69.1754 99.8374C69.1035 99.5929 69.0316 99.3484 68.9237 99.1389C68.7439 98.6848 68.5641 98.1959 68.3483 97.7418C68.1325 97.2878 67.9168 96.8337 67.701 96.3797C67.5931 96.1701 67.4852 95.9256 67.3414 95.7161C67.1975 95.5065 67.1256 95.2969 66.9458 95.1223Z" fill="#CC6809"/>
<path d="M52.9917 112.062C52.9917 112.062 53.9267 110.525 55.0056 110.804C56.0844 111.084 56.48 112.062 56.6239 112.481C56.8037 112.9 55.3292 110.944 52.9917 112.062Z" fill="#CC6809"/>
<path d="M36.6299 112.586C36.6299 112.586 37.5649 111.049 38.6437 111.328C39.7226 111.608 40.1182 112.586 40.262 113.005C40.4418 113.424 38.9674 111.468 36.6299 112.586Z" fill="#CC6809"/>
<path d="M40.1538 124.391C40.1538 124.391 46.8787 128.792 55.1859 124.076C55.1859 124.076 53.6395 130.154 47.6339 130.293C41.5923 130.433 40.1538 124.391 40.1538 124.391Z" fill="white"/>
<path d="M46.8068 119.99C46.8068 119.99 46.7349 119.99 46.627 119.99C46.5191 119.99 46.3393 119.99 46.1595 120.025C46.0876 120.06 45.9797 120.095 45.9077 120.13C45.8358 120.2 45.7999 120.269 45.7279 120.339C45.7279 120.374 45.692 120.444 45.692 120.479C45.692 120.549 45.656 120.619 45.692 120.654C45.692 120.724 45.7279 120.828 45.7999 120.933C45.8718 121.038 45.9437 121.108 46.0156 121.212C46.0875 121.282 46.1954 121.387 46.3033 121.457C46.4112 121.527 46.4831 121.597 46.591 121.667C46.6989 121.736 46.7708 121.771 46.8787 121.841C47.0585 121.946 47.2024 122.016 47.3103 122.051C47.4181 122.086 47.4901 122.086 47.4901 122.086C47.4901 122.086 47.4181 122.121 47.3103 122.121C47.1664 122.121 46.9866 122.121 46.7708 122.051C46.5551 121.981 46.3033 121.911 46.0876 121.771C45.9797 121.701 45.8358 121.632 45.7279 121.527C45.62 121.422 45.5122 121.317 45.4402 121.178C45.3683 121.038 45.2964 120.898 45.2964 120.689C45.2964 120.584 45.3324 120.549 45.3324 120.479C45.3683 120.374 45.4043 120.339 45.4402 120.235C45.5122 120.095 45.656 119.99 45.7639 119.92C45.9077 119.85 46.0156 119.815 46.1595 119.815C46.4112 119.815 46.5551 119.885 46.6989 119.92C46.7708 119.955 46.8068 119.99 46.8068 119.99Z" fill="#C39368"/>
<path d="M24.9774 113.109C22.496 114.052 23.5029 119.536 28.2139 119.676C27.6026 117.825 27.171 115.589 27.0991 113.005C26.5956 112.83 25.9124 112.76 24.9774 113.109Z" fill="#EFCAA6"/>
<path d="M71.1524 113.109C70.1814 112.935 69.3903 113.214 68.8149 113.633C68.6351 115.31 68.3114 117.231 67.772 119.221C68.4552 119.221 69.2464 119.117 70.1455 118.837C73.0943 118.034 73.5259 113.598 71.1524 113.109Z" fill="#EFCAA6"/>
<path d="M24.6895 115.624C24.6895 115.624 24.9412 115.554 25.3368 115.589C25.5166 115.589 25.7683 115.624 25.9841 115.694C26.1998 115.764 26.4516 115.869 26.6674 116.008C26.8831 116.148 27.0989 116.323 27.2427 116.497C27.3147 116.602 27.3866 116.672 27.4585 116.777C27.5304 116.882 27.5664 116.952 27.6024 117.056C27.6743 117.231 27.7102 117.406 27.7102 117.51C27.7102 117.615 27.7102 117.685 27.7102 117.685C27.7102 117.685 27.6743 117.65 27.6024 117.545C27.5664 117.51 27.5304 117.44 27.4945 117.371C27.4585 117.301 27.3866 117.266 27.3506 117.161C27.3147 117.091 27.2427 117.021 27.1708 116.952C27.0989 116.882 27.027 116.812 26.955 116.742C26.8831 116.672 26.7752 116.602 26.7033 116.532C26.6314 116.463 26.5235 116.393 26.4156 116.358C26.3077 116.288 26.2358 116.253 26.1279 116.183C26.02 116.148 25.9122 116.078 25.8402 116.043C25.6245 115.939 25.4446 115.869 25.2648 115.799C24.9052 115.694 24.6895 115.624 24.6895 115.624Z" fill="#C39368"/>
<path d="M71.0807 116.148C71.0807 116.148 70.865 116.078 70.5413 116.078C70.4694 116.078 70.3615 116.078 70.2896 116.113C70.2176 116.113 70.1098 116.148 70.0378 116.183C69.858 116.253 69.6782 116.323 69.4984 116.427C69.4265 116.462 69.3186 116.532 69.2467 116.602C69.1748 116.672 69.0669 116.742 69.0309 116.812C68.959 116.881 68.8871 116.951 68.8151 117.021C68.7432 117.091 68.6713 117.161 68.6353 117.196C68.5274 117.301 68.4196 117.405 68.3476 117.475C68.2757 117.545 68.2397 117.58 68.2397 117.58C68.2397 117.58 68.2397 117.51 68.2757 117.44C68.2757 117.405 68.3117 117.335 68.3476 117.266C68.3836 117.196 68.3836 117.126 68.4555 117.056C68.5274 116.916 68.6353 116.707 68.7792 116.567C68.8511 116.497 68.923 116.392 69.0309 116.323C69.1028 116.253 69.2107 116.148 69.3186 116.113C69.4265 116.043 69.5344 116.008 69.6423 115.938C69.7501 115.903 69.894 115.869 70.0019 115.834C70.1098 115.834 70.2536 115.799 70.3615 115.834C70.4694 115.834 70.5773 115.869 70.6492 115.903C70.9369 115.973 71.0807 116.148 71.0807 116.148Z" fill="#C39368"/>
<path d="M41.0529 117.999C41.1249 119.291 40.6933 120.339 40.082 120.374C39.5066 120.409 38.9671 119.361 38.9312 118.069C38.8592 116.777 39.2908 115.729 39.9021 115.694C40.4775 115.694 41.017 116.707 41.0529 117.999Z" fill="#673121"/>
<path d="M39.8306 117.091C39.8306 117.475 39.6508 117.79 39.471 117.79C39.2912 117.79 39.1473 117.475 39.1833 117.056C39.1833 116.672 39.3631 116.358 39.5429 116.358C39.7227 116.358 39.8306 116.707 39.8306 117.091Z" fill="white"/>
<path d="M55.9767 117.021C56.0487 118.313 55.6171 119.361 55.0058 119.396C54.4304 119.431 53.891 118.383 53.855 117.091C53.7831 115.799 54.2146 114.751 54.826 114.716C55.4013 114.716 55.9048 115.729 55.9767 117.021Z" fill="#673121"/>
<path d="M54.7186 116.113C54.7186 116.497 54.5388 116.811 54.359 116.811C54.1792 116.811 54.0713 116.497 54.0713 116.078C54.0713 115.694 54.2511 115.379 54.4309 115.379C54.6107 115.379 54.7186 115.694 54.7186 116.113Z" fill="white"/>
<path d="M38.499 122.086C38.499 122.819 36.9886 123.413 35.1545 123.413C33.3205 123.413 31.8101 122.819 31.8101 122.051C31.8101 121.318 33.3205 120.724 35.1545 120.724C37.0245 120.724 38.499 121.353 38.499 122.086Z" fill="#F9CBC0"/>
<path d="M63.7084 120.759C63.7084 121.492 62.198 122.086 60.364 122.086C58.5299 122.086 57.0195 121.492 57.0195 120.724C57.0195 119.99 58.5299 119.361 60.364 119.396C62.198 119.396 63.7084 119.99 63.7084 120.759Z" fill="#F9CBC0"/>
<path d="M36.9536 108.779C37.3852 108.779 37.8167 108.813 38.2842 108.813C38.7157 106.369 39.7946 102.073 42.4558 99.3833C39.2911 101.199 37.6009 106.299 36.9536 108.779Z" fill="#CC6809"/>
<path d="M47.6698 108.883C47.7417 106.788 48.1013 103.26 49.6477 100.257C47.1663 102.701 46.4111 106.997 46.1953 108.883C46.6988 108.883 47.1663 108.883 47.6698 108.883Z" fill="#CC6809"/>
<path d="M58.3145 108.395C59.3214 108.325 60.3643 108.22 61.3712 108.115C61.4072 106.404 61.3712 103.784 60.8678 101.374C59.7889 98.5454 58.4583 96.7991 58.4583 96.7991C59.8249 100.885 58.8539 106.194 58.3145 108.395Z" fill="#CC6809"/>
<path d="M33.8965 137.454V138.222H61.4073L61.2275 137.349C52.1292 137.314 42.9948 137.349 33.8965 137.454Z" fill="#D4D4D4"/>
<path d="M114.757 49.4783C114.788 53.4839 113.932 57.6082 111.855 61.1095C111.091 62.4447 110.205 64.2843 108.769 65.0855C107.486 65.7976 106.019 65.7679 104.584 65.7976C99.9398 65.8866 95.3266 65.4415 90.6829 65.1151C90.1024 66.4207 89.1859 67.5482 88.0249 68.7647C85.8253 71.0197 83.259 72.8 80.3872 74.2243C79.8678 74.4616 79.379 74.7287 78.8596 74.966C76.1406 76.0342 73.4216 77.1321 70.6414 78.0222C68.8389 78.586 67.067 78.942 65.2034 79.2091C65.0506 79.2387 64.9284 79.2684 64.7756 79.2981C64.9589 79.2091 65.1728 79.1201 65.3561 79.0014C66.3948 78.5563 67.4947 78.0519 68.4418 77.4585C69.8471 76.8057 71.2219 76.0639 72.5356 75.2034C74.5825 73.8385 76.66 72.1769 77.8515 70.0109C78.493 68.8537 79.104 67.5482 79.1346 66.1833C79.1346 65.8272 79.104 65.5009 79.0124 65.1745C74.6436 67.1625 70.2748 69.0614 65.5394 70.1889C63.2175 70.7527 60.6207 70.6043 58.1766 70.0109C53.8689 68.9724 47.2699 54.3147 46.995 51.8816C46.7506 49.6266 47.4227 47.6386 49.4391 46.3628C51.7304 44.9089 54.2967 43.811 56.8018 42.8022C65.57 39.2713 74.9491 37.6393 84.3894 37.0162C93.1269 36.4822 102.598 36.5415 110.572 40.5471C112.038 41.2593 113.718 42.1197 114.207 43.7813C114.757 45.5913 114.757 47.5793 114.757 49.4783ZM61.1401 67.6669C60.2541 67.4295 59.4598 67.2811 58.6655 66.7767C57.9933 66.3317 57.2907 65.2041 56.8629 64.5514C55.7631 62.7711 54.6938 60.9611 53.6856 59.0918C52.7997 57.4896 52.0359 55.828 51.2416 54.196C49.989 51.6146 49.0724 49.2409 51.1805 46.8078C51.2416 46.7188 51.1499 46.6001 51.0583 46.6891C49.6835 47.9353 49.0113 49.0925 49.1336 50.9322C49.3169 53.3059 50.875 55.7983 51.8831 57.8753C53.1052 60.3974 54.5105 62.8007 56.0381 65.1745C57.2601 67.1031 58.6655 67.9339 60.9568 68.1119C61.2012 68.1416 61.3845 67.7559 61.1401 67.6669ZM78.0653 62.9194C73.3299 64.581 68.8084 66.48 63.8897 67.6965C64.8368 67.6372 65.7533 67.5779 66.6698 67.4295C70.672 66.5097 74.4603 64.9668 78.0653 62.9194ZM80.0206 63.0975C79.99 63.0381 79.8678 63.0975 79.8984 63.1865C80.8149 65.9163 79.7151 68.8834 78.4014 71.3165C76.9044 74.0462 73.9409 75.6188 71.1913 76.865C71.0997 76.9244 71.1302 77.0727 71.2525 77.0431C76.6294 75.2628 83.1979 69.1504 80.0206 63.0975Z" fill="#47AD5D"/>
<path d="M70.6721 57.0161V52.8324L67.3726 46.8091H70.0916L71.1609 49.2718C71.4969 50.0136 71.7108 50.5477 71.9858 51.2301H72.0163C72.2607 50.607 72.5051 50.0136 72.8106 49.2718L73.8799 46.8091H76.5378L73.0856 52.7434V56.9864H70.6721V57.0161Z" fill="white"/>
<path d="M83.6257 52.7125H79.7763V55.1455H84.084V57.0445H77.3628V46.8079H83.8396V48.7068H79.7458V50.8135H83.5952V52.7125H83.6257Z" fill="white"/>
<path d="M85.7639 54.6411C86.4055 54.9674 87.3831 55.2642 88.3913 55.2642C89.4911 55.2642 90.0716 54.8191 90.0716 54.1663C90.0716 53.5432 89.5828 53.1575 88.2997 52.7421C86.5583 52.1486 85.4279 51.1992 85.4279 49.7453C85.4279 47.9946 86.9249 46.6594 89.3995 46.6594C90.591 46.6594 91.4464 46.8968 92.088 47.1638L91.5686 49.0331C91.1409 48.8254 90.4077 48.5584 89.3689 48.5584C88.3302 48.5584 87.8414 49.0035 87.8414 49.5376C87.8414 50.1903 88.4219 50.487 89.7967 50.9618C91.6603 51.6146 92.5157 52.564 92.5157 54.0179C92.5157 55.7389 91.1714 57.1928 88.2691 57.1928C87.0776 57.1928 85.8861 56.8961 85.3057 56.5697L85.7639 54.6411Z" fill="white"/>
<path d="M93.7686 55.7983C93.7686 54.9972 94.349 54.4334 95.1739 54.4334C95.9988 54.4334 96.5487 54.9972 96.5487 55.7983C96.5487 56.5994 95.9988 57.1632 95.1739 57.1632C94.3185 57.1929 93.7686 56.5994 93.7686 55.7983ZM94.2574 53.662L93.8908 46.8079H96.3654L96.0293 53.662H94.2574Z" fill="white"/>
<path d="M301.666 202.4L304.219 200.8V137.241L301.666 136.121V202.4Z" fill="#505B75"/>
<path d="M233.999 136.322V202.401H301.666V136.122L233.999 136.322Z" fill="#F2F2F2"/>
<path d="M289.722 155.121L283.585 149.721L268.552 165.921L251.831 146.801L245.283 151.681L264.557 170.201L245.571 190.64L247.013 191.72L268.141 173.601L286.344 191.12L288.692 188.96L272.218 170.121L289.722 155.121Z" fill="#FF1B28"/>
<path d="M300.965 138.161C300.965 138.641 300.594 139.001 300.1 139.001C299.606 139.001 299.235 138.601 299.235 138.161C299.235 137.681 299.606 137.321 300.1 137.321C300.594 137.321 300.965 137.721 300.965 138.161Z" fill="#C6C6C6"/>
<path d="M237.169 138.161C237.169 138.641 236.798 139.001 236.304 139.001C235.81 139.001 235.439 138.601 235.439 138.161C235.439 137.681 235.851 137.321 236.304 137.321C236.757 137.321 237.169 137.721 237.169 138.161Z" fill="#C6C6C6"/>
<path d="M257.557 122.841C257.516 122.801 252.862 119.881 245.407 127.441L250.144 130.841C250.185 130.801 252.368 125.521 257.557 122.841Z" fill="#11B1C8"/>
<path d="M248.373 129.561L250.144 130.841C250.144 130.841 252.286 125.681 257.351 122.961C253.851 124.321 250.927 126.721 248.373 129.561Z" fill="#149DB1"/>
<path d="M279.88 125.881C272.302 124.241 257.557 122.801 257.557 122.801C252.368 125.481 250.185 130.801 250.185 130.801V136.281H282.104V132.681L282.351 133.081C281.156 131.241 279.88 125.881 279.88 125.881Z" fill="#F9CA29"/>
<path d="M250.185 135.521V136.281H282.104V135.441C271.437 135.441 260.811 135.481 250.185 135.521Z" fill="#F6B92B"/>
<path d="M290.176 132.201C290.176 132.201 288.446 128.561 282.68 126.641C281.939 126.401 280.992 126.161 279.88 125.921C279.88 125.921 281.157 131.281 282.351 133.121L283.916 135.561C283.916 135.521 288.076 134.521 290.176 132.201Z" fill="#11B1C8"/>
<path d="M280.209 127.121C280.662 128.801 281.527 131.801 282.351 133.081L283.916 135.521C283.916 135.521 284.616 135.361 285.563 135.001C283.957 132.241 282.515 129.321 280.209 127.121Z" fill="#149DB1"/>
<g style="mix-blend-mode:multiply">
<path d="M281.485 131.281C283.339 130.601 285.069 129.681 286.634 128.601C285.604 127.881 284.286 127.201 282.68 126.641C281.939 126.401 280.991 126.161 279.879 125.921C272.301 124.281 257.557 122.841 257.557 122.841C257.516 122.801 254.962 121.241 250.638 123.441C251.379 124.481 252.203 125.441 253.109 126.361C260.193 133.161 272.095 134.841 281.485 131.281Z" fill="#D4D4D4"/>
</g>
<g style="mix-blend-mode:multiply">
<path d="M267.567 142.321C266.249 142.121 263.778 141.881 263.778 141.881C263.778 141.881 267.484 140.721 267.814 140.081C268.143 139.401 267.361 139.481 266.208 139.841C265.096 140.201 263.078 140.761 263.078 140.761C263.078 140.761 264.19 139.561 264.066 138.721C263.942 137.881 261.307 140.521 261.142 140.641C260.936 140.761 259.906 140.281 259.165 140.401C259.165 140.401 251.093 137.961 247.798 136.281C245.697 136.281 243.144 136.321 241.043 136.361C243.062 138.881 258.835 142.881 258.835 142.881C258.835 142.881 259.206 144.321 261.018 144.801C261.018 144.801 262.46 146.081 262.872 147.001C263.325 147.921 264.601 147.841 264.354 147.001C264.107 146.161 262.995 144.881 262.995 144.881C262.995 144.881 264.931 145.561 266.043 146.321C267.155 147.121 268.02 146.761 267.484 145.521C266.908 144.321 263.695 143.521 263.695 143.521C263.695 143.521 266.825 143.601 267.732 143.641C268.761 143.721 268.885 142.521 267.567 142.321Z" fill="#C6C6C6"/>
</g>
<g style="mix-blend-mode:multiply">
<path d="M286.47 136.161L287.088 137.561L276.503 140.601L274.938 139.881C274.938 139.881 274.32 138.321 273.455 138.321C272.59 138.321 273.373 139.281 273.785 140.121C274.155 140.961 274.403 141.761 274.403 141.761C274.403 141.761 271.231 139.721 270.243 139.441C269.254 139.201 269.543 140.121 270.243 140.481C270.943 140.841 273.126 142.241 273.126 142.241C273.126 142.241 269.625 141.761 269.254 142.241C268.884 142.721 272.137 142.921 272.673 142.961C273.249 143.041 268.76 144.601 269.502 145.081C270.243 145.561 274.197 143.521 273.744 144.361C273.291 145.201 271.231 147.641 272.385 147.401C273.497 147.161 275.02 144.721 275.02 144.721C275.02 144.721 276.709 144.481 277.08 143.441C277.08 143.441 290.177 140.961 290.588 138.481C290.712 137.681 290.588 136.921 290.382 136.201C289.023 136.161 287.747 136.121 286.47 136.161Z" fill="#C6C6C6"/>
</g>
<path d="M263.735 127.441C263.735 127.441 262.17 132.761 266.824 132.681C271.478 132.601 271.601 128.161 271.601 128.161L263.735 127.441Z" fill="#EFCAA6"/>
<path d="M304.22 89.3613C306.197 88.2813 299.113 87.8013 299.113 87.8013C299.113 87.8013 299.731 86.0013 299.113 83.9214C298.495 81.8814 297.012 86.6013 297.012 86.6013C291.782 72.0814 265.959 70.2415 255.868 81.2814C245.778 92.3213 250.638 106.721 250.638 106.721C250.638 106.721 254.386 97.3612 262.623 90.8813C262.623 90.8813 259.287 95.2813 260.563 95.5213C261.799 95.7213 265.053 94.0413 279.097 91.7613C279.097 91.7613 276.255 95.1213 278.108 95.5213C279.92 95.8813 286.922 93.8013 286.922 93.8013C286.922 93.8013 285.192 102.441 288.075 101.081C290.999 99.7212 291.905 97.5612 291.905 97.5612C291.905 97.5612 295.942 106.161 293.553 117.001C313.239 99.5612 300.142 90.4413 300.142 90.4413C300.142 90.4413 302.202 90.4413 304.22 89.3613Z" fill="#EC7B23"/>
<path d="M291.823 97.521C291.823 97.521 290.876 99.641 287.993 101.041C285.069 102.401 286.84 93.761 286.84 93.761C286.84 93.761 279.838 95.841 278.026 95.481C276.214 95.121 279.015 91.7211 279.015 91.7211C264.97 94.001 261.717 95.681 260.481 95.481C259.246 95.281 262.54 90.8411 262.54 90.8411C254.303 97.281 250.555 106.681 250.555 106.681C250.555 106.681 246.808 112.641 250.432 119.481C255.045 128.121 264.888 130.321 274.237 130.321C286.346 130.321 293.429 116.961 293.429 116.961C295.901 106.121 291.823 97.521 291.823 97.521Z" fill="#F4D9BF"/>
<path d="M252.739 102.441C252.739 102.441 253.233 99.0412 250.062 99.4012C246.891 99.7612 246.602 106.401 250.35 107.121C250.35 107.121 251.627 104.241 252.739 102.441Z" fill="#EFCAA6"/>
<path d="M293.554 116.681C293.554 116.681 295.037 113.241 298.167 114.521C301.297 115.801 298.496 120.641 294.872 121.481C291.248 122.321 291.371 120.241 291.371 120.241L293.554 116.681Z" fill="#EFCAA6"/>
<path d="M267.854 123.161C267.854 123.161 267.73 122.001 266.7 122.561C265.63 123.121 264.723 126.281 265.836 126.561C266.906 126.801 267.812 124.121 267.854 123.161Z" fill="white"/>
<path d="M262.953 99.5213C262.953 99.5213 263.117 99.2813 263.406 99.0413C263.735 98.8013 264.229 98.6013 264.765 98.5613C265.012 98.5613 265.3 98.5613 265.547 98.6413C265.794 98.7213 266 98.8413 266.165 98.9613C266.247 99.0413 266.33 99.0813 266.371 99.1613C266.412 99.2013 266.453 99.2813 266.495 99.3613C266.536 99.4813 266.577 99.5213 266.577 99.5213C266.577 99.5213 266.495 99.5213 266.371 99.5213C266.247 99.5213 266.124 99.5213 265.959 99.4813C265.794 99.4813 265.588 99.4813 265.424 99.4813C265.218 99.4813 265.012 99.5213 264.806 99.5213C264.394 99.5613 263.941 99.5613 263.57 99.5613C263.241 99.5613 262.953 99.5213 262.953 99.5213Z" fill="#A95A16"/>
<path d="M280.292 102.681C280.292 102.681 280.621 102.441 281.156 102.281C281.692 102.081 282.433 102.001 283.216 102.081C283.422 102.121 283.586 102.161 283.792 102.201C283.998 102.241 284.163 102.321 284.328 102.401C284.492 102.481 284.657 102.601 284.781 102.681C284.904 102.801 285.028 102.921 285.11 103.041C285.193 103.161 285.275 103.281 285.316 103.401C285.398 103.481 285.398 103.601 285.398 103.681C285.44 103.841 285.44 103.921 285.44 103.921C285.44 103.921 285.357 103.881 285.234 103.761C285.151 103.721 285.11 103.641 285.028 103.601C284.945 103.561 284.822 103.481 284.74 103.441C284.616 103.401 284.492 103.361 284.369 103.321C284.245 103.281 284.122 103.241 283.957 103.201C283.792 103.161 283.669 103.121 283.504 103.121C283.339 103.081 283.174 103.041 283.01 103.041C282.68 103.001 282.351 102.961 282.021 102.921C281.692 102.881 281.404 102.841 281.115 102.801C280.703 102.761 280.292 102.681 280.292 102.681Z" fill="#A95A16"/>
<path d="M267.854 114.201C267.854 114.201 265.877 116.401 267.195 116.961C268.513 117.521 270.119 116.961 270.119 116.961C270.119 116.961 267.73 117.361 267.524 116.121C267.318 114.881 267.854 114.201 267.854 114.201Z" fill="#C39368"/>
<path d="M248.703 103.241C248.703 103.241 248.867 103.121 249.197 103.041C249.362 103.001 249.568 102.961 249.773 103.001C249.979 103.001 250.226 103.081 250.432 103.161C250.556 103.201 250.638 103.281 250.721 103.361C250.803 103.441 250.885 103.521 250.968 103.601C251.05 103.681 251.091 103.801 251.133 103.881C251.174 103.961 251.174 104.041 251.215 104.121C251.256 104.281 251.256 104.401 251.256 104.521C251.256 104.601 251.256 104.681 251.256 104.681C251.256 104.681 251.215 104.641 251.174 104.561C251.133 104.521 251.133 104.481 251.091 104.441C251.05 104.401 251.009 104.321 250.968 104.281C250.927 104.241 250.885 104.161 250.844 104.081C250.803 104.041 250.762 103.961 250.68 103.921C250.556 103.801 250.432 103.721 250.268 103.641C250.185 103.601 250.103 103.561 250.021 103.521C249.938 103.521 249.856 103.441 249.773 103.441C249.609 103.401 249.444 103.361 249.279 103.321C248.909 103.281 248.703 103.241 248.703 103.241Z" fill="#C39368"/>
<path d="M296.642 118.241C296.642 118.241 296.601 118.201 296.477 118.161C296.395 118.121 296.23 118.081 296.107 118.001C296.024 118.001 295.942 117.961 295.86 117.961C295.777 117.921 295.654 117.921 295.571 117.921C295.489 117.921 295.365 117.881 295.242 117.881C295.118 117.881 295.036 117.881 294.912 117.921C294.789 117.921 294.706 117.921 294.583 117.961C294.459 118.001 294.377 118.001 294.253 118.001C294.171 118.041 294.048 118.001 293.965 118.041C293.883 118.081 293.8 118.081 293.677 118.121C293.347 118.201 293.059 118.241 293.059 118.241C293.059 118.241 293.224 118.081 293.553 117.881C293.636 117.841 293.718 117.761 293.8 117.721C293.883 117.681 294.006 117.641 294.13 117.601C294.253 117.561 294.377 117.521 294.459 117.481C294.583 117.441 294.706 117.441 294.83 117.441C294.954 117.441 295.077 117.441 295.201 117.441C295.324 117.441 295.448 117.481 295.571 117.521C295.695 117.561 295.819 117.561 295.901 117.641C295.983 117.681 296.107 117.761 296.189 117.801C296.354 117.921 296.436 118.041 296.519 118.121C296.642 118.161 296.642 118.241 296.642 118.241Z" fill="#C39368"/>
<path d="M280.827 110.441C280.332 111.681 279.509 112.521 278.973 112.321C278.438 112.121 278.355 110.961 278.85 109.721C279.344 108.481 280.168 107.641 280.703 107.841C281.238 108.041 281.28 109.201 280.827 110.441Z" fill="#3D1A0B"/>
<path d="M280.003 109.081C279.838 109.441 279.55 109.681 279.385 109.601C279.221 109.521 279.221 109.161 279.427 108.801C279.591 108.441 279.88 108.201 280.044 108.281C280.209 108.361 280.209 108.721 280.003 109.081Z" fill="white"/>
<path d="M264.806 106.121C264.312 107.361 263.488 108.201 262.953 108.001C262.417 107.801 262.335 106.641 262.829 105.401C263.323 104.161 264.147 103.321 264.683 103.521C265.218 103.721 265.3 104.881 264.806 106.121Z" fill="#3D1A0B"/>
<path d="M264.024 104.761C263.859 105.121 263.571 105.361 263.406 105.281C263.241 105.201 263.241 104.841 263.447 104.481C263.612 104.121 263.9 103.881 264.065 103.961C264.23 104.041 264.23 104.401 264.024 104.761Z" fill="white"/>
<path d="M285.44 117.681C285.275 118.521 283.463 118.881 281.404 118.481C279.344 118.081 277.779 117.081 277.944 116.241C278.109 115.401 279.921 115.041 281.98 115.441C284.081 115.841 285.605 116.841 285.44 117.681Z" fill="#F9CBC0"/>
<path d="M261.923 110.761C261.758 111.601 259.946 111.961 257.887 111.561C255.828 111.161 254.263 110.161 254.427 109.321C254.592 108.481 256.404 108.121 258.464 108.521C260.564 108.961 262.129 109.961 261.923 110.761Z" fill="#F9CBC0"/>
<path d="M245.696 127.641C245.696 127.641 239.353 133.801 240.877 136.321C242.442 138.841 258.504 143.081 258.504 143.081C258.504 143.081 258.875 144.521 260.687 145.001C260.687 145.001 262.129 146.281 262.54 147.201C262.994 148.121 264.27 148.041 264.023 147.201C263.776 146.361 262.664 145.081 262.664 145.081C262.664 145.081 264.6 145.761 265.712 146.521C266.824 147.321 267.689 146.961 267.153 145.721C266.577 144.521 263.364 143.721 263.364 143.721C263.364 143.721 266.494 143.801 267.4 143.841C268.306 143.921 268.43 142.681 267.112 142.521C265.794 142.321 263.323 142.081 263.323 142.081C263.323 142.081 267.03 140.921 267.359 140.281C267.689 139.601 266.906 139.681 265.753 140.041C264.641 140.401 262.623 140.961 262.623 140.961C262.623 140.961 263.735 139.761 263.611 138.921C263.488 138.081 260.852 140.721 260.687 140.841C260.481 140.961 259.452 140.481 258.71 140.601C258.71 140.601 246.602 136.921 245.943 135.521C245.243 134.121 248.867 130.001 248.867 130.001L245.696 127.641Z" fill="#F4D9BF"/>
<path d="M285.522 135.001L286.717 137.721L276.132 140.761L274.567 140.041C274.567 140.041 273.949 138.481 273.084 138.481C272.219 138.481 273.002 139.441 273.414 140.281C273.784 141.121 274.032 141.921 274.032 141.921C274.032 141.921 270.86 139.881 269.872 139.601C268.883 139.361 269.172 140.281 269.872 140.641C270.572 141.001 272.755 142.401 272.755 142.401C272.755 142.401 269.254 141.921 268.883 142.401C268.513 142.881 271.766 143.081 272.302 143.121C272.878 143.201 268.389 144.761 269.13 145.241C269.872 145.721 273.826 143.681 273.373 144.521C272.92 145.361 270.86 147.801 272.013 147.561C273.125 147.321 274.649 144.881 274.649 144.881C274.649 144.881 276.338 144.641 276.709 143.601C276.709 143.601 289.805 141.121 290.217 138.641C290.629 136.161 288.652 133.481 288.652 133.481C288.652 133.481 286.758 134.601 285.522 135.001Z" fill="#F4D9BF"/>
<g opacity="0.4">
<path opacity="0.4" d="M252.739 102.441C254.633 99.161 257.887 94.521 262.582 90.841L265.259 88.561C255.663 92.721 252.739 102.441 252.739 102.441Z" fill="#D7711F"/>
<path opacity="0.4" d="M260.481 95.481C261.717 95.681 264.97 94.0011 279.014 91.7211C279.014 91.7211 278.973 91.7611 278.932 91.8411C280.785 90.2811 282.927 89.1211 282.927 89.1211C273.166 89.9611 260.481 95.481 260.481 95.481Z" fill="#D7711F"/>
<path opacity="0.4" d="M277.533 95.2012C277.615 95.3612 277.78 95.4412 278.027 95.4812C279.839 95.8412 286.841 93.7612 286.841 93.7612C286.841 93.7612 286.841 93.8412 286.799 93.9612C287.788 92.3212 288.982 90.5212 288.982 90.5212C282.804 94.7612 277.615 95.1612 277.533 95.2012Z" fill="#D7711F"/>
<path opacity="0.4" d="M290.999 93.6812C291.576 98.7611 287.375 101.161 287.334 101.161C287.54 101.201 287.746 101.161 287.993 101.041C290.917 99.6811 291.823 97.5211 291.823 97.5211C291.823 97.5211 295.818 105.961 293.512 116.681C299.195 105.921 290.999 93.6812 290.999 93.6812Z" fill="#D7711F"/>
</g>
<path d="M205 43.4412C205.466 41.8885 207.093 41.0699 208.459 40.3641C216.046 36.553 225.057 36.4966 233.37 37.0047C242.352 37.5693 251.275 39.1502 259.588 42.5096C262.001 43.4977 264.413 44.5422 266.593 45.8972C268.512 47.1111 269.151 49.0026 268.919 51.1481C268.657 53.4629 262.408 67.4087 258.28 68.3967C255.926 68.9613 253.484 69.1025 251.275 68.5661C246.77 67.4934 242.613 65.6866 238.457 63.7952C238.369 64.1057 238.311 64.4163 238.34 64.755C238.369 66.0254 238.951 67.2957 239.561 68.3967C240.695 70.4575 242.671 72.0384 244.619 73.337C245.869 74.1557 247.177 74.8615 248.514 75.4825C249.444 76.0471 250.49 76.527 251.45 76.9505C251.624 77.0352 251.827 77.1199 252.002 77.2328C251.856 77.2046 251.74 77.1763 251.595 77.1481C249.822 76.894 248.136 76.5553 246.421 76.0189C243.776 75.172 241.189 74.1275 238.602 73.1112C238.108 72.8853 237.614 72.6595 237.149 72.4054C234.416 71.0504 231.975 69.3566 229.882 67.2111C228.748 66.0536 227.905 64.9809 227.353 63.7387C222.935 64.0493 218.546 64.4727 214.127 64.388C212.761 64.3598 211.366 64.388 210.145 63.7105C208.779 62.9765 207.936 61.198 207.21 59.9277C205.233 56.5683 204.419 52.6725 204.448 48.8332C204.506 47.0547 204.477 45.1633 205 43.4412ZM255.664 66.59C257.844 66.4206 259.181 65.6302 260.344 63.7952C261.768 61.5368 263.105 59.2501 264.297 56.8506C265.285 54.8462 266.768 52.4749 266.913 50.2447C267.029 48.4944 266.39 47.3652 265.082 46.2078C264.995 46.1231 264.908 46.236 264.966 46.3207C266.942 48.6356 266.07 50.894 264.908 53.35C264.152 54.9027 263.425 56.4836 262.582 58.008C261.623 59.7583 260.606 61.4803 259.559 63.2024C259.152 63.8517 258.484 64.9244 257.844 65.3196C257.118 65.7995 256.333 65.9407 255.49 66.1665C255.257 66.2512 255.461 66.6182 255.664 66.59ZM250.229 65.9407C251.101 66.0819 251.973 66.1383 252.874 66.1948C248.223 65.0373 243.892 63.2024 239.387 61.6497C242.817 63.5976 246.421 65.0656 250.229 65.9407ZM245.869 75.0591C245.985 75.0873 246.014 74.9461 245.927 74.8897C243.311 73.704 240.491 72.2078 239.067 69.6106C237.817 67.2958 236.771 64.4727 237.643 61.8755C237.672 61.8191 237.555 61.7344 237.526 61.7909C234.503 67.5781 240.753 73.3935 245.869 75.0591Z" fill="#E66D74"/>
<path d="M222.702 56.3142V46.603H225.347L227.411 50.16C227.992 51.1763 228.603 52.3902 229.039 53.4912H229.097C228.952 52.2208 228.893 50.894 228.893 49.4543V46.6313H230.957V56.3425H228.574L226.452 52.5878C225.87 51.5433 225.202 50.3012 224.708 49.172L224.65 49.2002C224.708 50.4706 224.737 51.8539 224.737 53.4347V56.3707H222.702V56.3142Z" fill="white"/>
<path d="M242.061 51.374C242.061 54.564 240.085 56.4836 237.149 56.4836C234.184 56.4836 232.44 54.3099 232.44 51.5434C232.44 48.6356 234.358 46.4619 237.294 46.4619C240.404 46.4619 242.061 48.6921 242.061 51.374ZM234.852 51.4869C234.852 53.3783 235.783 54.7334 237.294 54.7334C238.835 54.7334 239.707 53.3219 239.707 51.4304C239.707 49.6802 238.835 48.184 237.294 48.184C235.754 48.184 234.852 49.5955 234.852 51.4869Z" fill="white"/>
<path d="M243.224 55.1568C243.224 54.3946 243.776 53.8582 244.561 53.8582C245.346 53.8582 245.869 54.3946 245.869 55.1568C245.869 55.919 245.346 56.4554 244.561 56.4554C243.747 56.4836 243.224 55.919 243.224 55.1568ZM243.718 53.1242L243.369 46.603H245.723L245.404 53.1242H243.718Z" fill="white"/>
</g>
<defs>
<linearGradient id="paint0_linear" x1="315" y1="0" x2="190.193" y2="276.958" gradientUnits="userSpaceOnUse">
<stop stop-color="#B469F7"/>
<stop offset="1" stop-color="#8F26EE"/>
</linearGradient>
<linearGradient id="paint1_linear" x1="315" y1="0" x2="190.193" y2="276.958" gradientUnits="userSpaceOnUse">
<stop stop-color="#B469F7"/>
<stop offset="1" stop-color="#8F26EE"/>
</linearGradient>
</defs>
</svg>
