<svg width="304" height="200" viewBox="0 0 304 200" fill="none" xmlns="http://www.w3.org/2000/svg">
<rect width="304" height="200" rx="40" fill="url(#paint0_linear)"/>
<g opacity="0.11" filter="url(#filter0_f)">
<path d="M159.036 169.449C165.435 169.449 170.623 168.398 170.623 167.101C170.623 165.805 165.435 164.753 159.036 164.753C152.637 164.753 147.449 165.805 147.449 167.101C147.449 168.398 152.637 169.449 159.036 169.449Z" fill="black"/>
</g>
<path d="M156.23 162.444V165.059L157.757 165.078V162.157L156.23 162.444Z" fill="#EDD3B8"/>
<path d="M163.178 162.062L163.465 164.887L165.125 164.715L164.782 161.585L163.178 162.062Z" fill="#EDD3B8"/>
<path d="M165.106 164.62L163.617 164.944L163.14 165.364L163.102 166.471L166.958 167.178C167.339 166.72 167.187 166.052 166.652 165.803L166.481 165.727L165.106 164.62Z" fill="#3B455A"/>
<path d="M156.268 164.887H157.795L158.33 165.593L158.272 166.834L154.359 167.082L154.207 166.701C153.978 166.204 154.302 165.632 154.856 165.555L154.951 165.536L156.268 164.887Z" fill="#3B455A"/>
<path d="M151.725 138.449L153.176 151.391L153.748 164.047L158.654 164.066L160.62 129.44L152.718 129.554L151.725 138.449Z" fill="#3B455A"/>
<path d="M166.366 136.731L167.435 149.349L166.08 164.028L161.327 163.894L160.639 149.673L159.819 138.163L158.998 129.592L164.705 129.44L166.366 136.731Z" fill="#3B455A"/>
<path d="M162.243 109.874L156.726 110.065L153.787 112.699L151.973 122.377L150.961 130.661L163.903 130.719L167.129 129.898L166.118 121.212L165.621 111.63L162.243 109.874Z" fill="#F7F7F7"/>
<path d="M161.479 101.265C160.868 100.616 159.971 100.234 159.074 100.215C155.963 100.177 155.657 103.193 156.192 105.56C156.421 106.59 156.917 107.621 157.776 108.27C158.005 108.442 158.272 108.576 158.54 108.671C158.482 108.824 158.463 110.771 158.311 110.752C159.036 110.866 159.78 110.79 160.468 110.523C160.468 109.95 160.544 109.225 160.506 108.595C160.601 108.556 160.678 108.499 160.754 108.442C161.594 107.85 161.899 106.762 162.071 105.75C162.3 104.471 162.472 102.314 161.479 101.265Z" fill="#EAC5B0"/>
<path d="M160.983 102.677C161.575 103.384 161.613 104.376 161.594 105.292C161.556 106.514 161.422 107.755 160.869 108.824C161.632 108.251 162.377 107.678 163.14 107.106C163.426 106.896 163.713 106.667 163.885 106.361C164.056 106.037 164.095 105.674 164.114 105.311C164.247 103.403 164.152 101.322 162.949 99.814C162.186 98.8596 161.021 98.2487 159.819 98.1724C158.826 98.096 154.703 99.3559 156.325 100.902C156.803 101.341 157.948 101.417 158.559 101.57C159.418 101.78 160.372 101.952 160.983 102.677Z" fill="#1A3151"/>
<path d="M157.375 102.238C157.261 102.238 157.127 102.257 157.032 102.315C156.898 102.391 156.822 102.506 156.765 102.639C155.772 104.433 155.715 106.724 156.65 108.557C155.066 108.06 153.901 106.571 153.577 104.949C153.271 103.326 153.749 101.608 154.741 100.272C155.657 99.0314 157.146 98.0579 158.673 98.2297C159.59 98.3442 160.449 98.8596 160.964 99.6232C162.873 102.544 159.227 102.143 157.375 102.238Z" fill="#1A3151"/>
<path d="M150.923 97.1418C150.942 97.0846 150.961 97.0464 151 97.0082C151.305 96.6264 151.859 96.321 152.279 96.0538C152.603 95.8629 152.966 96.1683 153.214 96.3401C153.29 96.3974 153.367 96.4546 153.367 96.531C153.367 96.5883 153.367 96.6264 153.347 96.6837C153.233 96.9509 152.928 97.0273 152.756 97.2182C152.679 97.3136 152.584 97.4282 152.603 97.5618C152.66 97.8672 152.928 97.6 153.08 97.5236C153.386 97.8099 153.08 98.0008 152.832 98.1917C152.527 98.4208 152.221 98.6117 151.897 98.8025C151.649 98.9362 151.534 99.0316 151.286 98.8598C151.229 98.8216 150.637 98.4589 150.656 98.4208C150.732 98.1344 150.79 97.8481 150.866 97.5427C150.866 97.4091 150.866 97.2564 150.923 97.1418Z" fill="#EAC5B0"/>
<path d="M159.608 113.272C159.628 113.195 159.628 113.1 159.628 113.004C159.589 110.485 155.924 109.988 154.149 109.569C152.737 109.225 151.534 108.71 150.465 107.755C150.713 104.701 151.229 101.647 152.049 98.7071C151.496 98.3445 150.923 97.9818 150.37 97.6382C150.351 97.6191 148.327 102.525 148.174 102.983C147.506 104.815 146.705 106.648 146.113 108.519C145.865 109.339 146.762 110.008 147.296 110.618C147.926 111.363 148.575 112.107 149.243 112.833C150.561 114.283 151.935 115.696 153.367 117.07C153.386 117.089 153.424 117.128 153.443 117.147C153.653 117.357 153.882 117.548 154.149 117.643C154.665 117.815 155.218 117.528 155.676 117.242C156.516 116.727 157.318 116.135 158.081 115.505C158.788 114.913 159.494 114.169 159.608 113.272Z" fill="#F7F7F7"/>
<path d="M166.271 98.5164C166.213 98.4591 166.118 98.3828 166.041 98.3255C165.87 98.211 165.641 98.1728 165.45 98.0583C165.259 97.9437 165.049 97.8101 165.087 97.562C165.125 97.3138 165.488 97.4474 165.66 97.4856C165.851 97.5238 166.022 97.5238 166.175 97.3711C166.328 97.2184 166.309 96.932 166.175 96.7412C166.041 96.5694 165.851 96.4548 165.698 96.3021C166.175 96.3021 166.614 96.3212 166.996 96.6266C167.187 96.7793 167.282 96.9893 167.397 97.1993C167.759 97.8865 168.16 98.5546 168.561 99.2036C168.237 99.2608 167.931 99.3372 167.626 99.4517C167.339 99.5663 167.244 99.5854 167.015 99.3563C166.767 99.1272 166.576 98.8409 166.328 98.5927C166.328 98.5737 166.309 98.5546 166.271 98.5164Z" fill="#EAC5B0"/>
<path d="M164.934 117.299C164.114 115.219 163.388 113.043 162.586 111.019C164.171 109.721 166.671 110.294 167.359 107.774C168.065 105.255 167.702 101.971 166.557 99.3371C167.263 99.0317 167.969 98.8217 168.733 98.5736C170.565 101.819 171.806 105.102 171.386 108.939C170.966 112.756 167.187 114.551 164.934 117.299Z" fill="#F7F7F7"/>
<path d="M154.607 106.133V108.29C154.607 108.996 155.161 109.549 155.848 109.549H161.384C162.071 109.549 162.625 108.977 162.625 108.29V106.133H154.607Z" fill="#3B455A"/>
<path d="M172.054 77.1751C172.054 69.597 166.041 63.4314 158.616 63.4314C151.19 63.4314 145.178 69.5779 145.178 77.1751C145.178 79.8666 145.941 82.3863 147.258 84.5051C151 90.9189 151.859 96.2828 151.859 96.2828H158.616H165.373C165.373 96.2828 166.232 90.9189 169.974 84.5051C171.291 82.3863 172.054 79.8857 172.054 77.1751Z" fill="#8CABEF"/>
<path d="M151.706 96.2829V105.445C151.706 105.827 152.011 106.133 152.374 106.133H164.896C165.259 106.133 165.564 105.827 165.564 105.445V96.2829H151.706Z" fill="#9EA6AD"/>
<path d="M171.825 74.6172C168.408 81.4318 161.785 91.9687 151.859 96.2445C151.859 96.2636 151.859 96.2827 151.859 96.2827H158.616H165.373C165.373 96.2827 166.232 90.9188 169.974 84.5051C171.291 82.3863 172.054 79.8666 172.054 77.1751C172.054 76.297 171.978 75.438 171.825 74.6172Z" fill="#799FE2"/>
<path d="M147.373 78.3204C147.373 71.6967 152.622 66.3328 159.112 66.3328C162.892 66.3328 166.271 68.1653 168.408 71.0095C166.385 67.4208 162.586 64.9966 158.234 64.9966C151.763 64.9966 146.495 70.3605 146.495 76.9842C146.495 79.7329 147.411 82.2717 148.919 84.2951C147.946 82.539 147.373 80.4965 147.373 78.3204Z" fill="#D6E1F2"/>
<path d="M156.001 96.283L154.378 78.7025L156.65 80.6304L158.616 77.4235L160.639 80.535L162.854 78.6834L161.231 96.283H161.918L163.713 77.0799L160.792 79.4851L158.616 76.1255L156.478 79.5805L153.538 77.0609L155.314 96.283H156.001Z" fill="#F6F7F7"/>
<path d="M155.142 94.5265L155.314 96.2827H156.001L155.791 94.1257C155.581 94.2593 155.371 94.3929 155.142 94.5265Z" fill="#EDECED"/>
<path d="M161.899 89.0291L161.231 96.2827H161.918L162.663 88.2274C162.415 88.4946 162.167 88.7618 161.899 89.0291Z" fill="#EDECED"/>
<path d="M165.545 98.5544H151.706V100.253H165.545V98.5544Z" fill="#3B455A"/>
<path d="M165.545 102.162H151.706V103.861H165.545V102.162Z" fill="#3B455A"/>
<path opacity="0.11" d="M165.316 96.2829C164.686 97.1037 164.037 97.8672 163.388 98.5544C162.815 99.1653 162.243 99.7379 161.67 100.253C160.868 100.979 160.067 101.628 159.284 102.181C158.33 102.849 157.394 103.422 156.497 103.88C154.665 104.815 153.023 105.35 151.725 105.636C151.801 105.942 152.05 106.152 152.355 106.152H164.877C165.24 106.152 165.545 105.846 165.545 105.464V103.88V102.181V100.253V98.5544V96.2829H165.316Z" fill="black"/>
<g opacity="0.11" filter="url(#filter1_f)">
<path d="M194.999 169.449C201.398 169.449 206.585 168.398 206.585 167.101C206.585 165.805 201.398 164.753 194.999 164.753C188.6 164.753 183.412 165.805 183.412 167.101C183.412 168.398 188.6 169.449 194.999 169.449Z" fill="black"/>
</g>
<path d="M190.952 166.567L190.723 167.712L188.299 168.495L187.44 167.159L188.757 166.185L191.162 165.422L190.952 166.567Z" fill="#3B455A"/>
<path d="M197.69 165.269L197.786 166.472L200.134 167.464L201.164 166.166L199.943 165.078L197.69 165.269Z" fill="#3B455A"/>
<path d="M187.44 131.425L186.409 135.128L186.943 136.827H186.886L187.516 146.6L188.871 166.3L191.143 166.223L195.209 143.203L195.495 144.271L197.69 165.536L199.771 165.345L202.997 137.59V131.959L187.44 131.425Z" fill="#3B455A"/>
<path d="M196.659 105.732L194.006 105.503C188.07 105.006 187.65 113.253 186.886 117.357C185.779 123.293 185.283 129.382 185.855 135.414C187.726 134.403 190.303 134.613 192.422 134.536C196.335 134.403 200.363 134.288 204.142 134.899C204.848 135.013 204.543 129.955 204.39 129.02C204.104 127.111 203.818 125.202 203.512 123.293C202.997 119.838 202.462 116.383 201.947 112.928C201.928 112.833 201.909 112.718 201.909 112.623C201.851 112.26 201.737 111.897 201.546 111.573L199.084 107.278C198.568 106.4 197.671 105.827 196.659 105.732Z" fill="#F7F7F7"/>
<path d="M199.103 98.1728C197.328 98.7264 195.323 97.6384 193.624 98.4401C192.708 98.86 191.868 99.8908 191.945 100.922C192.021 102.01 192.346 103.25 193.014 104.128C193.605 104.911 193.796 105.217 193.51 106.152C193.892 106.438 194.254 106.725 194.636 107.011C194.713 107.068 194.808 107.144 194.922 107.164C195.075 107.202 195.228 107.144 195.362 107.087C195.629 106.992 195.915 106.877 196.182 106.782C196.469 106.667 196.43 105.675 196.469 105.407C196.488 105.293 196.507 105.159 196.564 105.064C196.64 104.949 196.774 104.873 196.889 104.797C198.339 103.899 199.504 102.143 199.485 100.406C199.504 99.6236 199.313 98.8791 199.103 98.1728Z" fill="#EAC5B0"/>
<path d="M194.77 98.4017C194.846 98.4017 194.903 98.3827 194.98 98.3827C195.972 98.3254 196.984 98.4781 197.919 98.8408C198.549 99.0889 199.236 99.528 199.275 100.272C199.294 100.616 199.217 100.941 199.122 101.284C199.007 101.704 198.893 102.105 198.797 102.525C198.778 102.601 198.759 102.678 198.778 102.754C198.836 102.983 199.179 102.983 199.37 102.83C200.038 102.296 200.916 101.418 201.279 100.654C201.584 100.043 201.527 99.2035 201.966 98.669C202.252 98.3063 202.482 97.7336 202.901 97.5428C203.455 97.2755 204.047 96.9701 204.429 96.4929C204.829 96.0157 204.982 95.2903 204.658 94.7558C204.333 94.2595 203.684 94.0877 203.092 94.0686C202.501 94.0496 201.871 94.1068 201.317 93.8778C201.069 93.7823 200.859 93.6487 200.592 93.5914C199.771 93.4196 198.473 93.6869 197.728 94.0686C197.022 94.4313 196.354 94.8894 195.571 95.0231C194.942 95.1185 194.293 94.9849 193.663 95.0422C192.613 95.1376 191.62 95.7484 191.047 96.6265C190.398 97.6191 190.131 98.9935 190.723 100.062C191.009 100.597 191.219 101.15 191.448 101.723C191.525 101.914 192.04 102.697 192.155 102.048C192.25 101.532 192.174 101.017 192.25 100.501C192.441 99.2226 193.605 98.5354 194.77 98.4017Z" fill="#3B455A"/>
<path d="M188.471 96.3209L187.173 95.7673L187.86 93.4958L189.33 93.2476L190.169 94.202L189.291 94.9083L189.52 95.0038L189.883 94.8701L190.017 95.2328L188.471 96.3209Z" fill="#EAC5B0"/>
<path d="M189.788 114.073C190.971 111.706 191.353 108.957 190.857 106.38C189.387 106.209 187.974 105.617 186.81 104.701C186.733 104.643 186.676 104.586 186.619 104.51C186.523 104.357 186.581 104.147 186.638 103.975C187.478 101.379 188.432 98.8023 189.12 96.1871L187.172 95.2327C186.562 96.3207 185.951 97.4279 185.34 98.5159C184.615 99.8139 183.908 101.112 183.183 102.41C182.916 102.887 182.648 103.364 182.381 103.842C182.286 104.013 182.171 104.185 182.076 104.357C181.58 105.235 182.209 106.724 182.515 107.602C182.954 108.843 183.546 110.045 184.137 111.229C184.786 112.546 185.455 113.882 186.104 115.199C186.371 115.753 186.733 116.364 187.344 116.459C188.432 116.631 189.196 115.161 189.616 114.379C189.692 114.264 189.749 114.169 189.788 114.073Z" fill="#F7F7F7"/>
<path d="M202.5 97.3899L203.875 96.9891L203.493 94.6603L202.081 94.2213L201.107 95.0611L201.89 95.8629L201.642 95.9392L201.317 95.7483L201.126 96.0919L202.5 97.3899Z" fill="#EAC5B0"/>
<path d="M198.816 114.799C197.957 112.298 196.869 108.996 197.709 106.495C199.179 106.514 201.737 106.667 203.016 105.904C203.092 105.865 203.169 105.808 203.226 105.732C203.34 105.579 203.302 105.369 203.283 105.197C202.806 102.525 202.195 99.8334 201.871 97.1419L203.932 96.4547C204.39 97.6191 204.848 98.7835 205.306 99.9479C205.841 101.322 206.395 102.716 206.929 104.09C207.12 104.606 207.33 105.102 207.521 105.617C207.597 105.808 207.673 105.98 207.75 106.171C208.132 107.106 207.311 108.5 206.872 109.32C206.261 110.504 205.516 111.592 204.772 112.699C203.951 113.921 203.111 115.142 202.29 116.364C201.947 116.86 201.508 117.433 200.897 117.433C199.79 117.452 199.236 115.887 198.931 115.066C198.874 114.99 198.835 114.894 198.816 114.799Z" fill="#F7F7F7"/>
<path d="M191.448 106.133V108.29C191.448 108.996 192.002 109.549 192.689 109.549H198.225C198.912 109.549 199.465 108.977 199.465 108.29V106.133H191.448Z" fill="#3B455A"/>
<path d="M208.895 77.1751C208.895 69.597 202.882 63.4314 195.457 63.4314C188.031 63.4314 182.019 69.5779 182.019 77.1751C182.019 79.8666 182.782 82.3863 184.099 84.5051C187.841 90.9189 188.7 96.2828 188.7 96.2828H195.457H202.214C202.214 96.2828 203.073 90.9189 206.815 84.5051C208.132 82.3863 208.895 79.8857 208.895 77.1751Z" fill="#8CABEF"/>
<path d="M188.547 96.2829V105.445C188.547 105.827 188.852 106.133 189.215 106.133H201.737C202.1 106.133 202.405 105.827 202.405 105.445V96.2829H188.547Z" fill="#9EA6AD"/>
<path d="M208.666 74.6172C205.249 81.4318 198.626 91.9687 188.7 96.2445C188.7 96.2636 188.7 96.2827 188.7 96.2827H195.457H202.214C202.214 96.2827 203.073 90.9188 206.815 84.5051C208.132 82.3863 208.895 79.8666 208.895 77.1751C208.895 76.297 208.819 75.438 208.666 74.6172Z" fill="#799FE2"/>
<path d="M184.214 78.3204C184.214 71.6967 189.463 66.3328 195.953 66.3328C199.733 66.3328 203.111 68.1653 205.249 71.0095C203.226 67.4208 199.427 64.9966 195.075 64.9966C188.604 64.9966 183.336 70.3605 183.336 76.9842C183.336 79.7329 184.252 82.2717 185.76 84.2951C184.786 82.539 184.214 80.4965 184.214 78.3204Z" fill="#D6E1F2"/>
<path d="M192.842 96.283L191.219 78.7025L193.491 80.6304L195.457 77.4235L197.48 80.535L199.694 78.6834L198.072 96.283H198.759L200.553 77.0799L197.633 79.4851L195.457 76.1255L193.319 79.5805L190.379 77.0609L192.154 96.283H192.842Z" fill="#F6F7F7"/>
<path d="M191.983 94.5265L192.155 96.2827H192.842L192.632 94.1257C192.422 94.2593 192.212 94.3929 191.983 94.5265Z" fill="#EDECED"/>
<path d="M198.74 89.0291L198.072 96.2827H198.759L199.504 88.2274C199.256 88.4946 199.007 88.7618 198.74 89.0291Z" fill="#EDECED"/>
<path d="M202.386 98.5544H188.547V100.253H202.386V98.5544Z" fill="#3B455A"/>
<path d="M202.386 102.162H188.547V103.861H202.386V102.162Z" fill="#3B455A"/>
<path opacity="0.11" d="M202.157 96.2829C201.527 97.1037 200.878 97.8672 200.229 98.5544C199.656 99.1653 199.084 99.7379 198.511 100.253C197.709 100.979 196.907 101.628 196.125 102.181C195.17 102.849 194.235 103.422 193.338 103.88C191.505 104.815 189.864 105.35 188.566 105.636C188.642 105.942 188.89 106.152 189.196 106.152H201.718C202.08 106.152 202.386 105.846 202.386 105.464V103.88V102.181V100.253V98.5544V96.2829H202.157Z" fill="black"/>
<g opacity="0.11" filter="url(#filter2_f)">
<path d="M266.924 169.449C273.323 169.449 278.511 168.398 278.511 167.101C278.511 165.805 273.323 164.753 266.924 164.753C260.525 164.753 255.337 165.805 255.337 167.101C255.337 168.398 260.525 169.449 266.924 169.449Z" fill="black"/>
</g>
<path d="M270.074 165.441V166.51L272.804 167.865L274.178 166.51L272.804 165.154H272.632L272.594 165.441H270.074Z" fill="#3B455A"/>
<path d="M263.355 165.154H263.164L261.809 166.51L263.164 167.865L265.894 166.51V165.441H263.393L263.355 165.154Z" fill="#3B455A"/>
<path d="M266.332 102.258C264.882 102.2 263.011 103.021 262.095 104.167C261.408 105.006 261.007 106.037 260.625 107.049C259.518 109.893 259.022 112.527 258.468 115.524C258.124 117.433 257.8 119.342 257.533 121.232C257.246 123.331 257.055 125.431 256.998 127.512C256.998 127.741 256.941 128.39 256.922 129.153C256.865 130.757 256.903 132.914 257.571 132.99C257.704 133.009 257.819 132.952 257.934 132.895C258.793 132.475 259.48 131.921 260.224 131.444C260.491 131.272 260.759 131.12 261.064 130.967C261.656 130.681 262.305 130.451 262.954 130.28C261.847 130.337 261.713 130.127 261.713 130.127C261.713 130.127 262.706 126.08 263.412 122.568C263.775 120.754 264.061 119.075 264.08 118.178C264.156 115.448 264.5 106.438 264.5 106.438L266.18 102.983H266.485C266.466 102.983 266.447 102.983 266.428 102.983C266.466 103.002 266.352 102.315 266.332 102.258Z" fill="#F7F7F7"/>
<path d="M278.759 131.196C278.588 129.401 278.416 127.626 278.187 125.851C277.748 122.301 277.175 118.75 276.163 115.314C275.782 113.997 275.342 112.699 274.903 111.401C274.369 109.817 273.834 108.251 273.3 106.667C272.632 104.701 271.525 103.327 269.559 102.639C269.215 102.525 268.833 102.429 268.452 102.353C268.452 102.391 268.432 102.429 268.432 102.487C268.413 102.678 268.356 102.887 268.242 103.021L269.52 103.04C269.52 103.04 273.147 115.906 273.281 118.139C273.338 118.979 273.51 120.831 273.682 122.759C273.987 125.832 274.331 129.153 274.331 129.153C274.331 129.153 272.727 129.191 270.437 129.363C270.609 129.363 270.78 129.363 270.952 129.344C272.556 129.325 274.216 130.012 275.762 130.47C275.877 130.509 275.991 130.528 276.087 130.566C276.717 130.738 277.213 131.196 277.748 131.558C278.53 132.074 278.855 132.284 278.759 131.196Z" fill="#F7F7F7"/>
<path d="M275.762 130.451C274.216 130.012 272.555 129.306 270.952 129.325C270.78 129.325 270.608 129.325 270.437 129.344C270.303 129.363 270.15 129.363 269.998 129.382C268.929 129.478 267.707 129.592 266.447 129.745C266.39 129.745 266.333 129.764 266.256 129.764C264.634 130.108 263.603 130.26 262.916 130.28C262.267 130.451 261.618 130.68 261.026 130.967C260.721 131.119 260.453 131.272 260.186 131.444V133.2L263.259 165.517H265.779V165.822H265.798L268.566 143.279L268.585 143.164L270.112 165.822H270.131V165.517H272.67L275.877 140.568L275.762 130.451Z" fill="#3B455A"/>
<path d="M273.72 122.74C273.529 120.793 273.357 118.96 273.319 118.12C273.147 115.41 272.135 112.623 271.448 110.007C271.047 108.461 270.627 106.915 270.188 105.369C270.036 104.854 269.998 103.918 269.711 103.498C269.253 102.811 268.26 103.117 267.592 103.136C266.695 103.174 265.684 102.62 264.901 103.346C264.385 103.823 264.5 104.701 264.462 105.331C264.405 106.762 264.347 108.175 264.309 109.607C264.233 112.47 264.156 115.314 264.042 118.177C264.023 119.094 263.736 120.754 263.374 122.568C263.011 124.362 262.629 126.137 262.209 127.913C262.076 128.485 261.942 129.077 261.789 129.65C261.732 129.917 260.854 130.852 261.083 131.024C261.217 131.119 261.999 130.871 262.171 130.833C262.572 130.757 262.954 130.661 263.355 130.566C264.901 130.203 266.447 129.821 268.031 129.688C268.948 129.611 269.864 129.65 270.78 129.688C271.525 129.726 272.269 129.745 272.994 129.898C273.853 130.07 274.731 130.394 275.59 130.222C275.571 129.821 275.247 129.535 274.999 129.23C274.235 128.371 274.197 127.493 274.082 126.424C273.949 125.202 273.834 123.961 273.72 122.74Z" fill="#D7E8F4"/>
<path d="M270.589 94.7748C270.914 95.4238 271.047 96.1683 271.047 96.8937C271.047 97.0845 271.047 97.3136 271.2 97.4281C271.353 97.5618 271.2 97.8099 271.334 97.6572C271.467 97.5045 271.926 96.9509 271.945 96.76C272.021 96.2828 272.04 95.7865 272.021 95.3093C272.002 94.8894 271.945 94.4503 271.677 94.1067C271.525 93.9158 271.315 93.7631 271.124 93.6295C270.818 93.4195 270.513 93.2287 270.169 93.1332C269.578 92.9805 269.196 93.1905 269.692 93.6486C270.055 93.9731 270.36 94.3358 270.589 94.7748Z" fill="#1A3151"/>
<path d="M266.333 102.83C266.352 103.059 266.39 103.288 266.504 103.479C266.638 103.67 266.829 103.804 267.039 103.918C267.287 104.052 267.573 104.166 267.86 104.185C268.146 104.204 268.451 104.109 268.642 103.88C269.158 103.212 269.158 101.78 269.234 100.978C269.959 100.883 270.837 100.692 271.124 99.9477C271.219 99.6995 271.238 99.4514 271.238 99.1841C271.296 98.1152 271.353 97.0462 271.429 95.9772C271.448 95.6146 271.467 95.2328 271.372 94.8701C271.181 94.2593 270.647 93.8775 270.112 93.6103C268.757 92.9613 267.134 92.904 265.798 93.6484C265.454 93.8393 265.111 94.1066 264.901 94.4883C264.576 95.061 264.576 95.7864 264.576 96.4735C264.595 97.1035 264.595 97.7334 264.615 98.3633C264.634 99.0887 264.691 99.9095 265.225 100.329C265.512 100.539 265.874 100.597 266.123 100.883C266.543 101.398 266.313 102.162 266.333 102.83Z" fill="#EAC5B0"/>
<path d="M271.506 98.7832C271.506 98.5923 271.448 98.0006 271.143 98.3442C271.067 98.4396 271.028 98.5732 271.028 98.6878C271.009 98.8214 271.009 98.955 270.971 99.0695C270.876 99.3368 270.551 99.4513 270.303 99.4322C270.188 99.4322 270.093 99.394 269.998 99.3368C269.902 99.2795 269.845 99.1841 269.769 99.1077C269.616 98.8977 269.444 98.6878 269.291 98.4778C269.005 98.1151 268.432 98.2296 268.031 98.2678C267.573 98.306 267.115 98.4205 266.714 98.7069C266.676 98.745 266.638 98.7641 266.6 98.8023C266.504 98.8787 266.409 98.955 266.314 98.9932C265.951 99.1459 265.531 98.9359 265.302 98.6114C265.187 98.4587 265.092 98.2487 264.92 98.2296C264.786 98.2106 264.653 98.2869 264.557 98.4205C264.481 98.5541 264.462 98.7069 264.443 98.8596C264.386 99.4131 264.424 99.9858 264.634 100.482C265.092 101.57 266.065 101.761 267.077 101.78C267.478 101.799 267.86 101.799 268.261 101.818C268.986 101.837 269.749 101.856 270.36 101.456C270.914 101.112 271.257 100.501 271.429 99.8331C271.467 99.4895 271.506 99.1268 271.506 98.7832ZM268.814 100.138C268.432 100.368 268.012 100.368 267.592 100.215C267.421 100.158 267.516 99.8522 267.688 99.9094C268.031 100.043 268.356 100.043 268.68 99.8522C268.833 99.7567 268.967 100.043 268.814 100.138Z" fill="#1A3151"/>
<path d="M271.945 92.9996C272.021 92.7514 272.097 92.4842 272.135 92.2169C271.887 92.2933 271.62 92.2933 271.372 92.236C271.372 92.0833 271.391 91.9306 271.391 91.7779C271.391 91.6443 269.692 91.4725 269.559 91.4534C268.26 91.2816 267.096 91.1098 265.874 91.7588C264.844 92.3124 264.156 93.1714 263.946 94.3358C263.737 95.4429 264.023 96.9318 264.615 97.8862C264.634 97.5808 264.5 96.8745 264.576 96.5882C264.634 96.3019 264.748 96.0346 264.882 95.7865C265.168 95.2902 265.607 94.8893 266.103 94.6221C266.886 94.1831 267.783 93.9731 268.68 93.8967C269.501 93.8204 270.494 93.7631 271.276 94.0304C271.658 94.164 271.716 94.2594 271.964 93.8776C272.002 93.8013 272.384 93.0187 272.345 93.0187C272.231 93.0187 272.078 92.9996 271.945 92.9996Z" fill="#1A3151"/>
<path d="M277.022 96.4924C277.079 96.4542 277.136 96.4351 277.194 96.3969C277.27 96.0152 277.175 95.6143 277.079 95.2516C276.869 94.3736 276.564 93.5146 275.819 92.961C275.457 92.6938 274.483 92.5411 274.33 93.2091C274.273 93.4764 274.636 93.5909 274.808 93.7818C274.865 93.8391 275.266 94.4881 275.266 94.4881C275.094 94.5072 274.922 94.4117 274.77 94.2972C274.655 94.4308 274.56 94.5644 274.445 94.6981C274.426 94.7362 274.388 94.7553 274.407 94.7935C274.426 94.8126 274.445 94.8317 274.464 94.8508C275.419 95.3089 275.59 96.1106 276.087 96.9696C276.392 96.7978 276.697 96.6451 277.022 96.4924Z" fill="#EAC5B0"/>
<path d="M274.044 111.362L271.047 104.28L275.59 104.49C276.239 104.414 276.678 103.822 276.583 103.192L275.4 96.2632L277.404 95.786L279.981 101.112C281.069 103.364 280.954 105.998 279.675 108.155L274.044 111.362Z" fill="#F7F7F7"/>
<path d="M258.812 96.6261C258.754 96.588 258.697 96.5498 258.64 96.5307C258.602 96.1489 258.716 95.7672 258.831 95.3854C259.117 94.5264 259.48 93.6865 260.262 93.1902C260.644 92.9421 261.637 92.8657 261.732 93.5338C261.77 93.801 261.408 93.8965 261.217 94.0683C261.16 94.1255 260.701 94.7364 260.701 94.7364C260.873 94.7746 261.064 94.6791 261.217 94.5837C261.312 94.7364 261.408 94.87 261.522 95.0227C261.541 95.0609 261.56 95.0991 261.541 95.1181C261.522 95.1372 261.503 95.1563 261.484 95.1754C260.491 95.5572 260.262 96.3589 259.709 97.1606C259.422 96.9888 259.117 96.817 258.812 96.6261Z" fill="#EAC5B0"/>
<path d="M259.327 113.5L264.118 102.964C263.24 103.517 262.362 104.071 261.484 104.624C260.892 104.987 260.32 105.369 259.728 105.731C259.117 106.113 258.64 106.342 258.201 105.521C258.086 105.292 257.991 105.025 257.953 104.777C257.838 103.823 260.53 96.588 260.434 96.5498C260.415 96.5498 258.468 95.939 258.468 95.939L255.509 101.055C254.708 102.429 254.383 104.109 254.326 105.693C254.307 106.514 254.345 107.373 254.536 108.175C254.708 108.862 254.822 109.606 255.433 110.065C256.006 110.465 256.521 110.885 257.036 111.382C257.265 111.534 259.384 113.348 259.327 113.5Z" fill="#F7F7F7"/>
<path d="M264.176 106.133V108.29C264.176 108.996 264.729 109.549 265.416 109.549H270.952C271.639 109.549 272.193 108.977 272.193 108.29V106.133H264.176Z" fill="#3B455A"/>
<path d="M281.622 77.1751C281.622 69.597 275.61 63.4314 268.184 63.4314C260.759 63.4314 254.746 69.5779 254.746 77.1751C254.746 79.8666 255.509 82.3863 256.826 84.5051C260.568 90.9189 261.427 96.2828 261.427 96.2828H268.184H274.941C274.941 96.2828 275.8 90.9189 279.542 84.5051C280.859 82.3863 281.622 79.8857 281.622 77.1751Z" fill="#8CABEF"/>
<path d="M261.274 96.2829V105.445C261.274 105.827 261.58 106.133 261.942 106.133H274.464C274.827 106.133 275.132 105.827 275.132 105.445V96.2829H261.274Z" fill="#9EA6AD"/>
<path d="M281.394 74.6172C277.977 81.4318 271.353 91.9687 261.427 96.2445C261.427 96.2636 261.427 96.2827 261.427 96.2827H268.184H274.942C274.942 96.2827 275.801 90.9188 279.542 84.5051C280.859 82.3863 281.623 79.8666 281.623 77.1751C281.623 76.297 281.546 75.438 281.394 74.6172Z" fill="#799FE2"/>
<path d="M256.941 78.3204C256.941 71.6967 262.19 66.3328 268.681 66.3328C272.46 66.3328 275.839 68.1653 277.977 71.0095C275.953 67.4208 272.155 64.9966 267.803 64.9966C261.332 64.9966 256.063 70.3605 256.063 76.9842C256.063 79.7329 256.979 82.2717 258.487 84.2951C257.514 82.539 256.941 80.4965 256.941 78.3204Z" fill="#D6E1F2"/>
<path d="M265.569 96.283L263.947 78.7025L266.218 80.6304L268.184 77.4235L270.208 80.535L272.422 78.6834L270.799 96.283H271.487L273.281 77.0799L270.36 79.4851L268.184 76.1255L266.046 79.5805L263.107 77.0609L264.882 96.283H265.569Z" fill="#F6F7F7"/>
<path d="M264.71 94.5265L264.882 96.2827H265.569L265.359 94.1257C265.149 94.2593 264.939 94.3929 264.71 94.5265Z" fill="#EDECED"/>
<path d="M271.468 89.0291L270.8 96.2827H271.487L272.231 88.2274C271.983 88.4946 271.735 88.7618 271.468 89.0291Z" fill="#EDECED"/>
<path d="M275.113 98.5544H261.274V100.253H275.113V98.5544Z" fill="#3B455A"/>
<path d="M275.113 102.162H261.274V103.861H275.113V102.162Z" fill="#3B455A"/>
<path opacity="0.11" d="M274.884 96.2829C274.254 97.1037 273.605 97.8672 272.956 98.5544C272.384 99.1653 271.811 99.7379 271.238 100.253C270.437 100.979 269.635 101.628 268.852 102.181C267.898 102.849 266.963 103.422 266.065 103.88C264.233 104.815 262.591 105.35 261.293 105.636C261.37 105.942 261.618 106.152 261.923 106.152H274.445C274.808 106.152 275.113 105.846 275.113 105.464V103.88V102.181V100.253V98.5544V96.2829H274.884Z" fill="black"/>
<g opacity="0.11" filter="url(#filter3_f)">
<path d="M230.961 169.449C237.361 169.449 242.548 168.398 242.548 167.101C242.548 165.805 237.361 164.753 230.961 164.753C224.562 164.753 219.375 165.805 219.375 167.101C219.375 168.398 224.562 169.449 230.961 169.449Z" fill="black"/>
</g>
<path d="M233.137 137.686L231.515 139.748L232.718 140.683L234.512 138.392L233.137 137.686Z" fill="#EAC5B0"/>
<path d="M232.794 140.53L231.954 139.423L231.419 139.194L230.465 139.595L231.343 143.088C231.858 143.222 232.374 142.84 232.393 142.305V142.134L232.794 140.53Z" fill="#3B455A"/>
<path d="M227.983 137.686L229.606 139.748L228.403 140.702L226.59 138.392L227.983 137.686Z" fill="#EAC5B0"/>
<path d="M228.308 140.683L229.014 139.48L229.53 139.194L230.522 139.48L230.045 143.05C229.549 143.241 228.995 142.916 228.919 142.382L228.9 142.21L228.308 140.683Z" fill="#3B455A"/>
<path d="M241.88 117.204C240.811 114.703 239.494 112.985 238.349 110.638C237.012 110.428 235.676 109.989 234.34 109.683C234.435 109.511 234.531 109.34 234.645 109.187C232.851 109.359 231.019 109.149 229.224 109.359C228.48 109.397 227.735 109.416 226.991 109.378C227.086 109.511 227.163 109.664 227.258 109.798C225.96 110.199 224.681 110.771 223.383 111.077C222.41 113.558 221.341 115.486 220.52 118.139C219.699 120.812 219.184 124.21 218.248 126.977C220.921 131.234 224.376 136.14 226.972 140.435C227.888 140.072 228.136 138.946 229.072 138.64C227.869 134.708 226.819 130.738 225.483 126.844C226.991 124.19 228.327 121.461 229.663 118.712C230.293 117.433 232.088 117.319 232.851 118.521C234.378 120.926 235.886 123.331 237.318 125.794C235.848 130.222 233.882 134.384 232.03 138.64C232.908 139.099 232.889 140.148 233.767 140.607C237.261 135.892 241.575 130.7 244.629 125.641C243.712 122.95 242.93 119.705 241.88 117.204Z" fill="#D67086"/>
<path d="M234.283 84.6009C233.996 84.3909 233.672 84.2191 233.309 84.0855C232.679 83.8564 231.992 83.8373 231.305 83.8564C229.759 83.9137 228.098 84.1428 226.953 85.1926C224.815 87.1778 225.044 91.6446 224.643 94.4124C224.338 96.5694 224.013 98.7073 223.708 100.864L222.849 111.21L234.913 111.401L238.883 110.771L237.852 99.9099C237.623 97.5429 237.28 95.1568 236.974 92.7899C236.688 90.2129 236.631 86.2998 234.283 84.6009Z" fill="#474EBB"/>
<path d="M232.775 75.7055C232.183 75.0946 231.324 74.751 230.484 74.7701C227.525 74.8083 227.296 77.6716 227.85 79.8859C228.098 80.8594 228.575 81.8329 229.396 82.4246C229.625 82.5773 229.873 82.711 230.141 82.8064C230.026 83.2073 230.102 83.7417 230.083 84.1617C230.064 84.4098 229.988 84.6389 230.16 84.8298C230.37 85.0779 230.809 85.1161 231.114 85.1161C231.343 85.1161 231.591 85.0779 231.801 84.9443C232.126 84.7344 232.049 84.4289 232.03 84.1044C232.011 83.6463 232.068 83.1691 232.03 82.711C232.107 82.6728 232.202 82.6155 232.278 82.5583C233.061 81.9856 233.328 80.9357 233.481 79.9813C233.634 78.7215 233.748 76.679 232.775 75.7055Z" fill="#EAC5B0"/>
<path d="M232.985 78.4542C233.08 78.5687 233.233 78.5878 233.347 78.6832C233.729 78.9886 233.366 79.6568 233.596 80.0767C233.901 80.6303 233.844 81.5847 233.271 82.0428C233.08 82.1955 232.813 82.3101 232.737 82.5391C232.641 82.8064 232.832 83.169 232.641 83.379C232.947 83.7035 233.481 83.6272 233.901 83.4554C234.321 83.2836 234.722 83.0354 235.161 83.0545C235.294 83.0545 235.466 83.0736 235.562 82.9782C235.619 82.9209 235.619 82.8254 235.619 82.73C235.714 81.6992 236.936 81.9665 237.089 81.1457C237.127 80.9166 236.86 80.3821 236.86 80.0767C236.86 79.6186 237.127 79.1986 236.974 78.7214C236.917 78.5305 236.783 78.3587 236.707 78.1678C236.573 77.767 236.707 77.3279 236.802 76.9271C236.879 76.5071 236.879 76.0108 236.535 75.7627C236.268 75.5718 235.886 75.5909 235.619 75.3809C235.046 74.9419 235.466 73.7584 234.817 73.4339C234.474 73.2621 234.073 73.453 233.71 73.3957C233.309 73.3384 233.023 73.033 232.698 72.804C232.374 72.5749 231.878 72.4604 231.61 72.7467C231.381 72.9948 231.439 73.3957 231.248 73.6629C231.076 73.892 230.751 73.9302 230.503 74.0638C229.282 74.6365 231.572 75.0182 231.897 75.4191C232.183 75.7627 232.469 76.3926 232.66 76.7744C232.889 77.2134 232.737 78.1488 232.985 78.4542Z" fill="#3B455A"/>
<path d="M229.434 75.572C227.945 75.8965 228.843 76.9846 228.365 77.9008C228.174 78.2635 227.659 78.3971 227.564 78.7789C227.487 79.0843 227.716 79.3897 227.888 79.657C228.079 79.9242 228.213 80.306 227.984 80.5541C227.926 80.6305 227.831 80.6687 227.774 80.7641C227.659 80.9932 227.926 81.2222 228.155 81.3177C228.384 81.4131 228.671 81.6231 228.575 81.8522C228.308 82.5393 228.136 82.253 228.575 82.8448C228.69 82.9784 228.862 82.9593 228.976 83.112C228.785 83.322 228.499 83.3983 228.213 83.2838C227.525 83.0166 227.716 83.3602 227.163 83.4365C226.59 83.532 226.571 83.3602 226.075 83.0356C225.617 82.7493 224.643 82.5393 224.471 81.9285C224.376 81.5849 224.643 81.2413 224.567 80.9168C224.49 80.5923 224.147 80.3633 223.975 80.0578C223.65 79.447 224.147 78.798 224.242 78.149C224.376 77.2518 223.86 76.1447 224.796 75.572C225.006 75.4575 225.254 75.3811 225.464 75.2666C226.075 74.923 226.189 74.2931 226.437 73.7586C226.686 73.2241 227.296 72.6324 228.041 72.766C228.728 72.8805 229.091 73.5296 229.778 73.5868C230.026 73.6059 230.293 73.5677 230.503 73.6441C230.675 73.7204 230.77 73.8541 230.828 73.9877C231 74.2931 231.477 75.3239 231.114 75.5911C230.713 75.9347 230.064 75.4384 229.434 75.572Z" fill="#3B455A"/>
<path d="M235.085 79.0651C235.161 78.9506 235.237 78.8361 235.237 78.7024C235.256 78.4925 235.161 78.3397 234.989 78.2443C234.894 78.187 234.779 78.1489 234.665 78.1107C234.435 78.0152 234.245 77.9007 234.359 77.5762C234.378 77.5189 234.416 77.4617 234.435 77.4235C234.512 77.2326 234.531 77.0036 234.474 76.7936C234.416 76.6409 234.321 76.5073 234.149 76.45C234.016 76.4118 233.901 76.45 233.767 76.45C233.271 76.4118 233.462 75.9728 233.5 75.6864C233.557 75.1901 233.214 74.7893 232.737 74.7129C232.66 74.6938 232.66 74.8275 232.737 74.8275C232.985 74.8656 233.195 74.9993 233.309 75.2092C233.424 75.4192 233.386 75.6483 233.347 75.8773C233.309 76.0682 233.309 76.3164 233.462 76.45C233.729 76.679 234.092 76.3736 234.321 76.6981C234.531 77.0226 234.302 77.2899 234.206 77.5762C233.977 78.3207 235.504 78.0916 235.027 78.8933C234.913 79.1033 234.684 79.3133 234.722 79.5805C234.741 79.7714 234.894 79.9241 235.104 79.905C235.18 79.905 235.18 79.7714 235.104 79.7905C234.779 79.8287 234.855 79.4278 234.932 79.2751C234.97 79.2178 235.027 79.1415 235.085 79.0651Z" fill="#C69C6D"/>
<path d="M228.365 75.2473C227.945 75.19 227.296 75.2091 227.239 75.7436C227.201 76.0299 227.373 76.2781 227.43 76.5453C227.525 77.0798 226.972 77.1943 226.59 77.3661C226.189 77.5379 225.826 78.0151 226.265 78.3587C226.323 78.3969 226.361 78.4351 226.418 78.4733C226.38 78.5878 226.361 78.7214 226.323 78.836C226.285 78.8741 226.17 78.9123 226.132 78.9696C226.075 79.0268 225.998 79.0841 225.998 79.1795C225.979 79.3323 226.075 79.4468 226.227 79.4659C226.304 79.4659 226.304 79.3513 226.227 79.3513C226.246 79.2559 226.246 79.1414 226.265 79.0459C226.304 79.0268 226.323 79.0078 226.361 78.9887C226.399 78.9696 226.437 78.9505 226.456 78.9123C226.514 78.8741 226.552 78.8169 226.571 78.7596C226.628 78.626 226.59 78.5114 226.495 78.3969C226.399 78.3015 226.285 78.2633 226.227 78.1297C226.113 77.9006 226.285 77.6906 226.495 77.557C226.724 77.4234 226.991 77.3852 227.201 77.2516C227.563 77.0416 227.602 76.7171 227.487 76.3354C227.392 76.049 227.239 75.6673 227.544 75.4573C227.773 75.3046 228.098 75.3237 228.365 75.3618C228.442 75.3809 228.442 75.2664 228.365 75.2473Z" fill="#C69C6D"/>
<path d="M225.597 77.3853C225.674 77.3662 225.636 77.2517 225.559 77.2708C225.235 77.3662 224.815 77.538 224.834 77.9389C224.834 78.0534 224.891 78.1489 224.968 78.2252C225.101 78.3397 225.273 78.3397 225.387 78.4734C225.617 78.7597 225.33 79.1033 224.987 79.0078C224.91 78.9888 224.872 79.1033 224.948 79.1224C225.273 79.2178 225.636 78.9888 225.597 78.6261C225.578 78.4161 225.445 78.3207 225.292 78.2443C225.063 78.1107 224.853 77.9198 225.082 77.6526C225.197 77.4998 225.407 77.4426 225.597 77.3853Z" fill="#C69C6D"/>
<path d="M240.582 73.2429C240.429 72.7848 240.2 72.3266 239.818 72.0021C239.551 71.7731 238.692 71.1431 238.368 71.6204C238.349 71.6394 238.349 71.6776 238.349 71.7158C238.33 72.0021 238.33 72.4984 238.501 72.7466C238.654 72.9756 238.902 72.8993 239.112 73.0902C239.246 73.2238 239.284 73.491 239.131 73.5865C239.036 73.6437 238.921 73.6246 238.826 73.6628C238.73 73.6819 238.616 73.7583 238.635 73.8728C238.654 73.9301 238.692 73.9682 238.73 74.0064C238.94 74.1782 239.15 74.3309 239.341 74.5027C239.647 74.7318 239.971 75.0563 239.914 75.4381C240.257 75.4572 240.601 75.4381 240.926 75.3808C240.83 74.6554 240.792 73.8919 240.582 73.2429Z" fill="#EAC5B0"/>
<path d="M233.882 89.3156C233.748 88.9147 233.615 88.4948 233.5 88.0748C233.424 87.8267 232.641 84.0471 233.271 84.1807C234.664 84.4671 236.077 84.5243 237.47 84.3907C237.68 84.3716 239.799 84.2189 239.799 84.028C239.78 81.9092 239.704 79.8095 239.57 77.6906C239.494 76.6408 239.322 75.5527 239.322 74.5219C239.322 74.0638 239.322 74.1593 239.685 73.9684C239.99 73.8157 240.486 73.7202 240.754 73.9684C241.002 74.1974 241.078 74.541 241.155 74.8846C241.708 77.5379 242.662 80.0576 243.445 82.6537C243.961 84.3525 244.896 86.6813 243.808 88.3611C243.445 88.8956 242.872 89.2583 242.3 89.5828C240.41 90.6518 238.463 91.6062 236.459 92.4461C236.211 92.5415 235.962 92.6561 235.714 92.5988C235.352 92.5224 235.123 92.1598 234.951 91.8162C234.512 90.9572 234.168 90.1555 233.882 89.3156Z" fill="#474EBB"/>
<path d="M220.405 73.9491C220.558 73.491 220.787 73.0329 221.169 72.7084C221.436 72.4793 222.295 71.8494 222.62 72.3266C222.639 72.3457 222.639 72.3839 222.639 72.4221C222.658 72.7084 222.658 73.2047 222.486 73.4528C222.333 73.6819 222.085 73.6056 221.875 73.7964C221.742 73.9301 221.703 74.1973 221.856 74.2927C221.952 74.35 222.066 74.3309 222.162 74.3691C222.257 74.3882 222.372 74.4645 222.352 74.5791C222.333 74.6363 222.295 74.6745 222.257 74.7127C222.047 74.8845 221.837 75.0372 221.646 75.209C221.341 75.4381 221.016 75.7626 221.073 76.1443C220.73 76.1634 220.386 76.1443 220.062 76.0871C220.157 75.3617 220.215 74.5982 220.405 73.9491Z" fill="#EAC5B0"/>
<path d="M227.678 90.1173C227.869 88.972 228.022 87.9221 228.022 87.7312C228.022 87.1776 228.098 85.2306 227.564 84.9252C227.144 84.6961 225.407 85.326 224.796 85.2688C224.07 85.1924 223.421 84.7343 222.982 84.1616C222.524 83.589 222.257 82.9018 222.009 82.2146C221.627 81.1075 221.15 79.8858 221.264 78.7023C221.36 77.5379 221.703 76.4117 221.703 75.2282C221.703 74.7701 221.703 74.8655 221.341 74.6746C221.035 74.5219 220.539 74.4265 220.272 74.6746C219.565 75.3237 219.47 76.7553 219.26 77.6143C218.916 78.9887 218.573 80.363 218.229 81.7565C218.019 82.6155 217.79 83.4936 217.924 84.3716C218.038 85.2688 218.496 86.0705 219.012 86.815C220.94 89.6591 223.65 91.988 226.762 93.4578C226.972 93.6105 227.392 91.7589 227.678 90.1173Z" fill="#474EBB"/>
<path d="M225.99 83.9521V86.6269C225.99 87.5027 226.677 88.1892 227.529 88.1892H234.394C235.246 88.1892 235.932 87.479 235.932 86.6269V83.9521H225.99Z" fill="#3B455A"/>
<path d="M247.626 48.0432C247.626 38.6458 240.169 31 230.961 31C221.753 31 214.297 38.6221 214.297 48.0432C214.297 51.3808 215.244 54.5054 216.877 57.1329C221.517 65.0863 222.582 71.7379 222.582 71.7379H230.961H239.341C239.341 71.7379 240.406 65.0863 245.046 57.1329C246.679 54.5054 247.626 51.4045 247.626 48.0432Z" fill="#F7F8F9"/>
<path d="M222.392 71.7378V83.0999C222.392 83.5734 222.771 83.9521 223.221 83.9521H238.749C239.199 83.9521 239.578 83.5734 239.578 83.0999V71.7378H222.392Z" fill="#9EA6AD"/>
<path opacity="0.2" d="M247.342 44.8714C243.105 53.322 234.891 66.3884 222.582 71.6907C222.582 71.7144 222.582 71.7381 222.582 71.7381H230.961H239.341C239.341 71.7381 240.406 65.0865 245.046 57.133C246.679 54.5055 247.626 51.3809 247.626 48.0433C247.626 46.9545 247.531 45.8893 247.342 44.8714Z" fill="#799FE2"/>
<path d="M217.019 49.4634C217.019 41.2495 223.529 34.598 231.577 34.598C236.264 34.598 240.453 36.8704 243.105 40.3974C240.595 35.9472 235.885 32.941 230.488 32.941C222.463 32.941 215.93 39.5925 215.93 47.8064C215.93 51.215 217.066 54.3633 218.936 56.8724C217.729 54.6947 217.019 52.1619 217.019 49.4634Z" fill="#D6E1F2"/>
<path d="M227.718 71.7379L225.706 49.9369L228.523 52.3276L230.961 48.3509L233.47 52.2093L236.216 49.9132L234.204 71.7379H235.056L237.281 47.9248L233.66 50.9074L230.961 46.7413L228.31 51.0257L224.665 47.9012L226.866 71.7379H227.718Z" fill="#587BC9"/>
<path d="M226.653 69.56L226.866 71.7377H227.718L227.458 69.0629C227.198 69.2286 226.937 69.3943 226.653 69.56Z" fill="#EDECED"/>
<path d="M235.033 62.7427L234.204 71.7377H235.057L235.98 61.7485C235.672 62.0799 235.364 62.4113 235.033 62.7427Z" fill="#EDECED"/>
<path d="M239.554 74.5548H222.392V76.6615H239.554V74.5548Z" fill="#3B455A"/>
<path d="M239.554 79.0286H222.392V81.1353H239.554V79.0286Z" fill="#3B455A"/>
<path opacity="0.11" d="M239.27 71.7378C238.489 72.7557 237.684 73.7025 236.879 74.5547C236.169 75.3122 235.459 76.0223 234.749 76.6614C233.755 77.5609 232.76 78.3657 231.79 79.0522C230.606 79.8807 229.446 80.5908 228.334 81.1589C226.061 82.3188 224.026 82.9816 222.416 83.3366C222.511 83.7154 222.818 83.9758 223.197 83.9758H238.725C239.175 83.9758 239.554 83.597 239.554 83.1236V81.1589V79.0522V76.6614V74.5547V71.7378H239.27Z" fill="black"/>
<path d="M69.3078 82.676C69.3078 84.076 69.0652 85.3733 68.5798 86.568C68.0945 87.744 67.4132 88.7613 66.5358 89.62C65.6772 90.4787 64.6505 91.1507 63.4558 91.636C62.2612 92.1027 60.9545 92.336 59.5358 92.336C58.1358 92.336 56.8385 92.1027 55.6438 91.636C54.4492 91.1507 53.4132 90.4787 52.5358 89.62C51.6772 88.7613 51.0052 87.744 50.5198 86.568C50.0345 85.3733 49.7918 84.076 49.7918 82.676C49.7918 81.276 50.0345 79.988 50.5198 78.812C51.0052 77.6173 51.6772 76.5907 52.5358 75.732C53.4132 74.8733 54.4492 74.2107 55.6438 73.744C56.8385 73.2587 58.1358 73.016 59.5358 73.016C60.9545 73.016 62.2612 73.2587 63.4558 73.744C64.6505 74.2107 65.6772 74.8733 66.5358 75.732C67.4132 76.5907 68.0945 77.6173 68.5798 78.812C69.0652 79.988 69.3078 81.276 69.3078 82.676ZM65.2198 82.676C65.2198 81.7987 65.0798 80.9867 64.7998 80.24C64.5385 79.4933 64.1558 78.8493 63.6518 78.308C63.1665 77.748 62.5692 77.3187 61.8598 77.02C61.1692 76.7027 60.3945 76.544 59.5358 76.544C58.6772 76.544 57.8932 76.7027 57.1838 77.02C56.4932 77.3187 55.9052 77.748 55.4198 78.308C54.9345 78.8493 54.5518 79.4933 54.2718 80.24C54.0105 80.9867 53.8798 81.7987 53.8798 82.676C53.8798 83.5533 54.0105 84.3653 54.2718 85.112C54.5518 85.8587 54.9345 86.5027 55.4198 87.044C55.9052 87.5853 56.4932 88.0147 57.1838 88.332C57.8932 88.6493 58.6772 88.808 59.5358 88.808C60.3945 88.808 61.1692 88.6493 61.8598 88.332C62.5692 88.0147 63.1665 87.5853 63.6518 87.044C64.1558 86.5027 64.5385 85.8587 64.7998 85.112C65.0798 84.3653 65.2198 83.5533 65.2198 82.676ZM75.7726 78.84C75.7726 79.456 75.5579 79.988 75.1286 80.436C74.6992 80.8653 74.1859 81.08 73.5886 81.08C73.2526 81.08 72.9352 81.0147 72.6366 80.884C72.3379 80.7533 72.0672 80.5667 71.8246 80.324C71.6006 80.0813 71.4139 79.7827 71.2646 79.428C71.1339 79.0733 71.0686 78.672 71.0686 78.224C71.0686 77.328 71.2646 76.4787 71.6566 75.676C72.0672 74.8547 72.6272 74.1267 73.3366 73.492C73.5232 73.3053 73.7752 73.212 74.0926 73.212C74.4286 73.212 74.6806 73.3147 74.8486 73.52C75.0166 73.7253 75.1006 73.9307 75.1006 74.136C75.1006 74.3973 75.0166 74.5933 74.8486 74.724C74.4752 75.0227 74.1486 75.368 73.8686 75.76C73.6072 76.152 73.4299 76.5347 73.3366 76.908C73.3739 76.8893 73.4486 76.8707 73.5606 76.852C73.6726 76.8333 73.7752 76.824 73.8686 76.824C74.4099 76.824 74.8579 77.0107 75.2126 77.384C75.5859 77.7573 75.7726 78.2427 75.7726 78.84ZM90.8613 80.044C90.8613 80.3053 90.8239 80.52 90.7493 80.688L85.2893 94.212C84.8039 95.388 84.1599 96.228 83.3573 96.732C82.5546 97.236 81.6493 97.488 80.6413 97.488C80.3239 97.488 80.0346 97.4507 79.7733 97.376C79.5119 97.3013 79.2786 97.1893 79.0733 97.04C78.8866 96.9093 78.7373 96.7413 78.6253 96.536C78.5133 96.3493 78.4573 96.1347 78.4573 95.892C78.4573 95.4627 78.6066 95.0893 78.9053 94.772C79.2226 94.4733 79.6333 94.324 80.1373 94.324C80.2119 94.324 80.2866 94.324 80.3613 94.324C80.4359 94.324 80.5106 94.3147 80.5853 94.296C80.8839 94.24 81.1453 94.1373 81.3693 93.988C81.6119 93.8387 81.7986 93.624 81.9293 93.344L82.4333 92.196L77.8133 80.66C77.7386 80.492 77.7013 80.296 77.7013 80.072C77.7013 79.6427 77.8599 79.2413 78.1773 78.868C78.5133 78.4947 78.9519 78.308 79.4933 78.308C79.8479 78.308 80.1746 78.4107 80.4733 78.616C80.7719 78.8213 80.9959 79.1107 81.1453 79.484L84.2813 87.884L87.4173 79.484C87.5479 79.1293 87.7719 78.8493 88.0893 78.644C88.4066 78.42 88.7519 78.308 89.1253 78.308C89.6666 78.308 90.0866 78.4947 90.3853 78.868C90.7026 79.2227 90.8613 79.6147 90.8613 80.044ZM96.7888 90.404C96.7888 90.8893 96.6114 91.3093 96.2568 91.664C95.9208 92 95.5008 92.168 94.9968 92.168C94.5114 92.168 94.0914 92 93.7368 91.664C93.4008 91.3093 93.2328 90.8893 93.2328 90.404V74.892C93.2328 74.4067 93.4008 73.996 93.7368 73.66C94.0914 73.324 94.5301 73.156 95.0528 73.156C95.5381 73.156 95.9488 73.324 96.2848 73.66C96.6208 73.996 96.7888 74.4067 96.7888 74.892V90.404ZM111.991 90.404C111.991 90.8893 111.823 91.3093 111.487 91.664C111.151 92 110.74 92.168 110.255 92.168C110.255 92.168 110.208 92.168 110.115 92.168C110.021 92.168 109.975 92.168 109.975 92.168C109.545 92.168 109.181 92.0187 108.883 91.72C108.584 91.4027 108.435 91.0293 108.435 90.6C107.968 91.1413 107.361 91.5707 106.615 91.888C105.868 92.1867 105.047 92.336 104.151 92.336C103.609 92.336 103.059 92.2427 102.499 92.056C101.939 91.8693 101.435 91.5987 100.987 91.244C100.539 90.8707 100.165 90.404 99.8668 89.844C99.5868 89.284 99.4468 88.6213 99.4468 87.856C99.4468 87.072 99.5868 86.4 99.8668 85.84C100.165 85.28 100.539 84.832 100.987 84.496C101.435 84.1413 101.939 83.8893 102.499 83.74C103.059 83.572 103.609 83.488 104.151 83.488C105.047 83.488 105.868 83.628 106.615 83.908C107.38 84.188 107.987 84.5987 108.435 85.14V83.32C108.435 82.6293 108.164 82.0787 107.623 81.668C107.081 81.2573 106.363 81.052 105.467 81.052C104.925 81.052 104.403 81.1173 103.899 81.248C103.395 81.3787 102.909 81.6027 102.443 81.92C102.219 82.0507 102.004 82.116 101.799 82.116C101.481 82.116 101.173 81.9947 100.875 81.752C100.595 81.5093 100.455 81.1733 100.455 80.744C100.455 80.5013 100.52 80.268 100.651 80.044C100.856 79.708 101.183 79.4187 101.631 79.176C102.079 78.9333 102.564 78.7373 103.087 78.588C103.628 78.4387 104.16 78.3267 104.683 78.252C105.224 78.1773 105.691 78.14 106.083 78.14C106.848 78.14 107.585 78.224 108.295 78.392C109.004 78.56 109.629 78.8493 110.171 79.26C110.731 79.652 111.169 80.1747 111.487 80.828C111.823 81.4813 111.991 82.2933 111.991 83.264V90.404ZM108.435 88.752V87.072C108.136 86.68 107.725 86.3907 107.203 86.204C106.699 85.9987 106.157 85.896 105.579 85.896C104.869 85.896 104.263 86.0733 103.759 86.428C103.273 86.7827 103.031 87.2867 103.031 87.94C103.031 88.5747 103.273 89.0693 103.759 89.424C104.263 89.76 104.869 89.928 105.579 89.928C106.157 89.928 106.699 89.8347 107.203 89.648C107.725 89.4427 108.136 89.144 108.435 88.752ZM129.238 85.252C129.238 86.372 129.079 87.38 128.762 88.276C128.463 89.1533 128.043 89.8907 127.502 90.488C126.979 91.0853 126.354 91.5427 125.626 91.86C124.898 92.1773 124.105 92.336 123.246 92.336C122.425 92.336 121.659 92.1587 120.95 91.804C120.241 91.4493 119.615 90.936 119.074 90.264V90.404C119.074 90.8893 118.897 91.3093 118.542 91.664C118.206 92 117.786 92.168 117.282 92.168C116.797 92.168 116.377 92 116.022 91.664C115.686 91.3093 115.518 90.8893 115.518 90.404V74.892C115.518 74.4067 115.686 73.996 116.022 73.66C116.377 73.324 116.815 73.156 117.338 73.156C117.823 73.156 118.234 73.324 118.57 73.66C118.906 73.996 119.074 74.4067 119.074 74.892V80.212C119.615 79.5213 120.241 79.008 120.95 78.672C121.678 78.3173 122.443 78.14 123.246 78.14C124.105 78.14 124.898 78.308 125.626 78.644C126.373 78.9613 127.007 79.428 127.53 80.044C128.071 80.66 128.491 81.4067 128.79 82.284C129.089 83.1613 129.238 84.1507 129.238 85.252ZM125.57 85.252C125.57 84.6733 125.486 84.1413 125.318 83.656C125.15 83.1707 124.917 82.7507 124.618 82.396C124.319 82.0413 123.955 81.7707 123.526 81.584C123.115 81.3973 122.649 81.304 122.126 81.304C121.547 81.304 120.969 81.4533 120.39 81.752C119.811 82.0507 119.373 82.424 119.074 82.872V87.66C119.373 88.0893 119.811 88.4533 120.39 88.752C120.969 89.032 121.547 89.172 122.126 89.172C122.649 89.172 123.115 89.0787 123.526 88.892C123.955 88.7053 124.319 88.444 124.618 88.108C124.917 87.7533 125.15 87.3427 125.318 86.876C125.486 86.3907 125.57 85.8493 125.57 85.252ZM57.8865 125.712C57.8865 125.936 57.8398 126.151 57.7465 126.356C57.6718 126.543 57.5318 126.711 57.3265 126.86C57.1211 127.009 56.8318 127.121 56.4585 127.196C56.0851 127.289 55.6091 127.336 55.0305 127.336C53.7798 127.336 52.8278 127.028 52.1745 126.412C51.5211 125.777 51.1945 124.853 51.1945 123.64V116.584H50.3265C49.8971 116.584 49.5331 116.435 49.2345 116.136C48.9358 115.819 48.7865 115.436 48.7865 114.988C48.7865 114.577 48.9358 114.223 49.2345 113.924C49.5331 113.625 49.8971 113.476 50.3265 113.476H51.1945V111.376C51.1945 110.891 51.3625 110.48 51.6985 110.144C52.0531 109.789 52.4918 109.612 53.0145 109.612C53.4998 109.612 53.9105 109.789 54.2465 110.144C54.6011 110.48 54.7785 110.891 54.7785 111.376V113.476H56.1785C56.5891 113.476 56.9438 113.635 57.2425 113.952C57.5411 114.251 57.6905 114.615 57.6905 115.044C57.6905 115.473 57.5411 115.837 57.2425 116.136C56.9438 116.435 56.5891 116.584 56.1785 116.584H54.7785V122.688C54.7785 123.229 54.9091 123.612 55.1705 123.836C55.4505 124.06 55.7305 124.172 56.0105 124.172C56.0478 124.172 56.0945 124.172 56.1505 124.172C56.2251 124.172 56.2811 124.172 56.3185 124.172C56.8225 124.172 57.2051 124.321 57.4665 124.62C57.7465 124.919 57.8865 125.283 57.8865 125.712ZM73.3954 120.224C73.3954 121.195 73.2274 122.109 72.8914 122.968C72.5741 123.827 72.1074 124.583 71.4914 125.236C70.8754 125.871 70.1194 126.384 69.2234 126.776C68.3461 127.149 67.3474 127.336 66.2274 127.336C65.1074 127.336 64.1087 127.149 63.2314 126.776C62.3541 126.384 61.6074 125.871 60.9914 125.236C60.3754 124.583 59.8994 123.827 59.5634 122.968C59.2461 122.109 59.0874 121.195 59.0874 120.224C59.0874 119.272 59.2461 118.367 59.5634 117.508C59.8994 116.649 60.3754 115.903 60.9914 115.268C61.6074 114.615 62.3541 114.101 63.2314 113.728C64.1087 113.336 65.1074 113.14 66.2274 113.14C67.3474 113.14 68.3461 113.336 69.2234 113.728C70.1194 114.101 70.8754 114.615 71.4914 115.268C72.1074 115.903 72.5741 116.649 72.8914 117.508C73.2274 118.367 73.3954 119.272 73.3954 120.224ZM69.6994 120.224C69.6994 119.701 69.6154 119.207 69.4474 118.74C69.2981 118.255 69.0741 117.835 68.7754 117.48C68.4954 117.125 68.1407 116.845 67.7114 116.64C67.2821 116.416 66.7874 116.304 66.2274 116.304C65.6674 116.304 65.1727 116.416 64.7434 116.64C64.3327 116.845 63.9781 117.125 63.6794 117.48C63.3807 117.835 63.1567 118.255 63.0074 118.74C62.8581 119.207 62.7834 119.701 62.7834 120.224C62.7834 120.765 62.8581 121.279 63.0074 121.764C63.1567 122.231 63.3807 122.641 63.6794 122.996C63.9781 123.351 64.3327 123.64 64.7434 123.864C65.1727 124.069 65.6674 124.172 66.2274 124.172C66.7874 124.172 67.2821 124.069 67.7114 123.864C68.1407 123.64 68.4954 123.351 68.7754 122.996C69.0741 122.641 69.2981 122.231 69.4474 121.764C69.6154 121.279 69.6994 120.765 69.6994 120.224ZM89.7535 120.224C89.7535 121.344 89.6042 122.352 89.3055 123.248C89.0069 124.125 88.5869 124.872 88.0455 125.488C87.5229 126.085 86.8882 126.543 86.1415 126.86C85.4135 127.177 84.6202 127.336 83.7615 127.336C82.9589 127.336 82.1935 127.168 81.4655 126.832C80.7562 126.496 80.1309 125.973 79.5895 125.264V130.584C79.5895 131.069 79.4122 131.48 79.0575 131.816C78.7215 132.152 78.3015 132.32 77.7975 132.32C77.3122 132.32 76.8922 132.152 76.5375 131.816C76.2015 131.48 76.0335 131.069 76.0335 130.584V115.044C76.0335 114.559 76.2015 114.148 76.5375 113.812C76.8922 113.476 77.3309 113.308 77.8535 113.308C78.3389 113.308 78.7495 113.476 79.0855 113.812C79.4215 114.148 79.5895 114.559 79.5895 115.044V115.184C80.1122 114.531 80.7282 114.027 81.4375 113.672C82.1469 113.317 82.9215 113.14 83.7615 113.14C84.6202 113.14 85.4135 113.299 86.1415 113.616C86.8882 113.933 87.5229 114.391 88.0455 114.988C88.5869 115.585 89.0069 116.332 89.3055 117.228C89.6042 118.105 89.7535 119.104 89.7535 120.224ZM86.0575 120.224C86.0575 119.645 85.9735 119.113 85.8055 118.628C85.6375 118.143 85.4042 117.732 85.1055 117.396C84.8069 117.041 84.4429 116.771 84.0135 116.584C83.6029 116.397 83.1455 116.304 82.6415 116.304C82.0629 116.304 81.4842 116.453 80.9055 116.752C80.3269 117.051 79.8882 117.415 79.5895 117.844V122.632C79.8882 123.061 80.3269 123.425 80.9055 123.724C81.4842 124.023 82.0629 124.172 82.6415 124.172C83.1455 124.172 83.6029 124.079 84.0135 123.892C84.4429 123.705 84.8069 123.435 85.1055 123.08C85.4042 122.725 85.6375 122.315 85.8055 121.848C85.9735 121.363 86.0575 120.821 86.0575 120.224ZM94.1218 107.792C94.7191 107.792 95.2231 107.997 95.6338 108.408C96.0444 108.8 96.2498 109.295 96.2498 109.892C96.2498 110.489 96.0444 110.993 95.6338 111.404C95.2231 111.815 94.7191 112.02 94.1218 112.02C93.5431 112.02 93.0391 111.815 92.6098 111.404C92.1991 110.993 91.9938 110.489 91.9938 109.892C91.9938 109.295 92.1991 108.8 92.6098 108.408C93.0391 107.997 93.5431 107.792 94.1218 107.792ZM95.9138 125.404C95.9138 125.889 95.7364 126.309 95.3818 126.664C95.0458 127 94.6258 127.168 94.1218 127.168C93.6364 127.168 93.2164 127 92.8618 126.664C92.5258 126.309 92.3578 125.889 92.3578 125.404V115.044C92.3578 114.559 92.5258 114.148 92.8618 113.812C93.2164 113.476 93.6551 113.308 94.1778 113.308C94.6631 113.308 95.0738 113.476 95.4098 113.812C95.7458 114.148 95.9138 114.559 95.9138 115.044V125.404ZM112.124 125.404C112.124 125.889 111.946 126.309 111.592 126.664C111.256 127 110.836 127.168 110.332 127.168C109.846 127.168 109.426 127 109.072 126.664C108.736 126.309 108.568 125.889 108.568 125.404V118.824C108.568 117.872 108.344 117.219 107.896 116.864C107.448 116.491 106.841 116.304 106.076 116.304C105.721 116.304 105.385 116.351 105.068 116.444C104.769 116.537 104.489 116.659 104.228 116.808C103.966 116.957 103.733 117.125 103.528 117.312C103.322 117.499 103.145 117.695 102.996 117.9V125.404C102.996 125.889 102.818 126.309 102.464 126.664C102.128 127 101.708 127.168 101.204 127.168C100.718 127.168 100.298 127 99.9438 126.664C99.6078 126.309 99.4398 125.889 99.4398 125.404V115.044C99.4398 114.559 99.6078 114.148 99.9438 113.812C100.298 113.476 100.737 113.308 101.26 113.308C101.745 113.308 102.156 113.476 102.492 113.812C102.828 114.148 102.996 114.559 102.996 115.044V115.24C103.22 114.979 103.481 114.727 103.78 114.484C104.097 114.223 104.452 113.999 104.844 113.812C105.254 113.607 105.693 113.448 106.16 113.336C106.645 113.205 107.168 113.14 107.728 113.14C109.221 113.14 110.322 113.532 111.032 114.316C111.76 115.081 112.124 116.127 112.124 117.452V125.404ZM128.507 126.076C128.507 127.364 128.283 128.419 127.835 129.24C127.387 130.08 126.808 130.733 126.099 131.2C125.389 131.685 124.605 132.021 123.747 132.208C122.888 132.395 122.039 132.488 121.199 132.488C120.788 132.488 120.321 132.46 119.799 132.404C119.276 132.348 118.763 132.255 118.259 132.124C117.755 131.993 117.297 131.816 116.887 131.592C116.476 131.387 116.168 131.125 115.963 130.808C115.813 130.565 115.739 130.304 115.739 130.024C115.739 129.595 115.888 129.24 116.187 128.96C116.485 128.68 116.831 128.54 117.223 128.54C117.484 128.54 117.736 128.605 117.979 128.736C118.464 129.035 118.968 129.249 119.491 129.38C120.032 129.511 120.601 129.576 121.199 129.576C121.628 129.576 122.057 129.52 122.487 129.408C122.935 129.315 123.336 129.137 123.691 128.876C124.064 128.615 124.363 128.26 124.587 127.812C124.811 127.383 124.923 126.832 124.923 126.16V124.788C124.381 125.46 123.756 125.983 123.047 126.356C122.356 126.729 121.591 126.916 120.751 126.916C119.911 126.916 119.127 126.767 118.399 126.468C117.671 126.169 117.036 125.731 116.495 125.152C115.972 124.573 115.552 123.855 115.235 122.996C114.936 122.137 114.787 121.148 114.787 120.028C114.787 118.927 114.936 117.947 115.235 117.088C115.533 116.229 115.944 115.511 116.467 114.932C117.008 114.335 117.643 113.887 118.371 113.588C119.099 113.289 119.892 113.14 120.751 113.14C121.572 113.14 122.337 113.317 123.047 113.672C123.756 114.008 124.381 114.521 124.923 115.212V115.072C124.923 114.587 125.091 114.176 125.427 113.84C125.781 113.485 126.22 113.308 126.743 113.308C127.228 113.308 127.639 113.485 127.975 113.84C128.329 114.176 128.507 114.587 128.507 115.072V126.076ZM124.923 122.212V117.844C124.773 117.62 124.587 117.415 124.363 117.228C124.139 117.041 123.887 116.883 123.607 116.752C123.345 116.603 123.065 116.491 122.767 116.416C122.468 116.341 122.169 116.304 121.871 116.304C121.367 116.304 120.9 116.388 120.471 116.556C120.06 116.724 119.705 116.976 119.407 117.312C119.108 117.629 118.875 118.021 118.707 118.488C118.539 118.936 118.455 119.449 118.455 120.028C118.455 120.607 118.539 121.129 118.707 121.596C118.875 122.044 119.108 122.436 119.407 122.772C119.705 123.089 120.06 123.332 120.471 123.5C120.9 123.668 121.367 123.752 121.871 123.752C122.169 123.752 122.468 123.715 122.767 123.64C123.065 123.565 123.345 123.463 123.607 123.332C123.887 123.183 124.139 123.015 124.363 122.828C124.587 122.641 124.773 122.436 124.923 122.212Z" fill="white"/>
<defs>
<filter id="filter0_f" x="145.449" y="162.753" width="27.1735" height="8.69578" filterUnits="userSpaceOnUse" color-interpolation-filters="sRGB">
<feFlood flood-opacity="0" result="BackgroundImageFix"/>
<feBlend mode="normal" in="SourceGraphic" in2="BackgroundImageFix" result="shape"/>
<feGaussianBlur stdDeviation="1" result="effect1_foregroundBlur"/>
</filter>
<filter id="filter1_f" x="181.412" y="162.753" width="27.1735" height="8.69578" filterUnits="userSpaceOnUse" color-interpolation-filters="sRGB">
<feFlood flood-opacity="0" result="BackgroundImageFix"/>
<feBlend mode="normal" in="SourceGraphic" in2="BackgroundImageFix" result="shape"/>
<feGaussianBlur stdDeviation="1" result="effect1_foregroundBlur"/>
</filter>
<filter id="filter2_f" x="253.337" y="162.753" width="27.1735" height="8.69578" filterUnits="userSpaceOnUse" color-interpolation-filters="sRGB">
<feFlood flood-opacity="0" result="BackgroundImageFix"/>
<feBlend mode="normal" in="SourceGraphic" in2="BackgroundImageFix" result="shape"/>
<feGaussianBlur stdDeviation="1" result="effect1_foregroundBlur"/>
</filter>
<filter id="filter3_f" x="217.375" y="162.753" width="27.1735" height="8.69578" filterUnits="userSpaceOnUse" color-interpolation-filters="sRGB">
<feFlood flood-opacity="0" result="BackgroundImageFix"/>
<feBlend mode="normal" in="SourceGraphic" in2="BackgroundImageFix" result="shape"/>
<feGaussianBlur stdDeviation="1" result="effect1_foregroundBlur"/>
</filter>
<linearGradient id="paint0_linear" x1="304" y1="-1.76573e-05" x2="-17.879" y2="165.155" gradientUnits="userSpaceOnUse">
<stop stop-color="#00A1FF"/>
<stop offset="1" stop-color="#0081CC"/>
</linearGradient>
</defs>
</svg>
