<svg width="306" height="293" viewBox="0 0 306 293" fill="none" xmlns="http://www.w3.org/2000/svg">
<path d="M300.593 9.91986H4.95642C4.30494 9.91986 3.65986 9.79142 3.05806 9.5419C2.45626 9.29238 1.90956 8.92666 1.44922 8.46568C0.988883 8.00469 0.623943 7.45747 0.375273 6.85532C0.126603 6.25316 -0.000917799 5.6079 4.97242e-06 4.95642C4.97242e-06 3.6419 0.522197 2.38121 1.45171 1.45171C2.38121 0.522197 3.6419 4.97242e-06 4.95642 4.97242e-06H300.593C301.245 -0.000917799 301.89 0.126603 302.492 0.375273C303.094 0.623943 303.642 0.988883 304.103 1.44922C304.564 1.90956 304.929 2.45626 305.179 3.05806C305.428 3.65986 305.557 4.30494 305.557 4.95642C305.558 5.60849 305.43 6.25433 305.181 6.85694C304.932 7.45955 304.566 8.00708 304.105 8.46816C303.644 8.92924 303.096 9.29481 302.494 9.54392C301.891 9.79303 301.245 9.92078 300.593 9.91986Z" fill="#D6D7DB"/>
<path opacity="0.2" d="M292.801 270.784H12.7561C11.3004 270.784 9.85893 271.071 8.514 271.628C7.16908 272.185 5.94705 273.002 4.91769 274.031C2.8388 276.11 1.6709 278.93 1.6709 281.87C1.6709 283.325 1.95768 284.766 2.51485 286.111C3.07202 287.455 3.88866 288.677 4.91812 289.706C5.94757 290.734 7.16965 291.55 8.51453 292.107C9.85942 292.663 11.3007 292.949 12.7561 292.948H292.801C294.256 292.949 295.697 292.663 297.042 292.107C298.387 291.55 299.609 290.734 300.639 289.706C301.668 288.677 302.485 287.455 303.042 286.111C303.599 284.766 303.886 283.325 303.886 281.87C303.886 278.93 302.718 276.11 300.639 274.031C298.56 271.952 295.741 270.784 292.801 270.784Z" fill="black"/>
<path d="M39.3707 12.1593C37.3067 6.06561 30.9462 4.13499 27.6185 5.26528C24.2908 6.39557 20.233 11.2818 22.4655 17.902L39.3707 12.1593Z" fill="#2C314E"/>
<path d="M39.3672 12.1619L22.4624 17.8806L23.3803 20.5939L40.2851 14.8752L39.3672 12.1619Z" fill="#444A6A"/>
<path opacity="0.1" d="M37.833 283.028L23.3779 20.5979L40.2901 14.8762L152.778 283.028H37.833Z" fill="#FFF500"/>
<path d="M266.186 12.1593C268.25 6.06561 274.611 4.13499 277.938 5.26528C281.266 6.39557 285.324 11.2818 283.091 17.902L266.186 12.1593Z" fill="#2C314E"/>
<path d="M265.279 14.8544L282.184 20.5731L283.101 17.8598L266.197 12.1412L265.279 14.8544Z" fill="#444A6A"/>
<path opacity="0.1" d="M267.724 283.028L282.172 20.5979L265.267 14.8762L152.778 283.028H267.724Z" fill="#FFF500"/>
<path d="M162.046 15.6486C162.046 8.97222 156.429 4.95654 152.779 4.95654C149.128 4.95654 143.512 8.42463 143.512 15.6486H162.046Z" fill="#2C314E"/>
<path d="M162.046 15.6484H143.512V18.6251H162.046V15.6484Z" fill="#444A6A"/>
<path opacity="0.1" d="M152.778 283.028H89.061L143.511 18.6322H162.045L216.496 283.028H152.778Z" fill="#FFF500"/>
<path d="M29.0366 233.464H109.069V208.422H196.137V245.981H276.52V283.541H29.0366V233.464Z" fill="#CA684B"/>
<path opacity="0.1" d="M276.521 245.981H196.137V250.924H276.521V245.981Z" fill="black"/>
<path d="M196.13 208.422H109.069V283.541H196.13V208.422Z" fill="#FF8B5A"/>
<path d="M199.647 204.442H105.559V208.422H199.647V204.442Z" fill="#D35930"/>
<path d="M280.038 242.001H196.137V245.981H280.038V242.001Z" fill="#A14828"/>
<path d="M109.076 229.483H25.5264V233.464H109.076V229.483Z" fill="#A14828"/>
<path d="M25.5195 229.483L39.5744 220.006H109.07V229.483H25.5195Z" fill="#5E3E2F"/>
<path d="M105.559 204.442L119.607 194.964H185.599L199.647 204.442H105.559Z" fill="#5E3E2F"/>
<path d="M196.137 242.001V232.523H265.983L280.031 242.001H196.137Z" fill="#5E3E2F"/>
<path d="M160.01 228.887V263.287H148.412V237.634H142.515V228.887H160.01Z" fill="#FFFFFA"/>
<path d="M75.1188 267.478H60.1168V264.341L67.0271 257.325C68.7301 255.453 69.5816 253.965 69.5816 252.862C69.5816 251.968 69.3798 251.289 68.9762 250.823C68.5726 250.357 67.9869 250.124 67.2191 250.124C66.4611 250.124 65.8459 250.438 65.3734 251.065C64.9009 251.683 64.6646 252.458 64.6646 253.39H59.6738C59.6738 252.116 60.0036 250.942 60.6631 249.868C61.3227 248.784 62.2381 247.938 63.4096 247.329C64.581 246.721 65.8902 246.417 67.3372 246.417C69.6604 246.417 71.447 246.935 72.6972 247.971C73.9572 249.007 74.5872 250.495 74.5872 252.434C74.5872 253.252 74.4297 254.05 74.1147 254.83C73.7997 255.6 73.3075 256.413 72.6381 257.268C71.9786 258.114 70.9105 259.25 69.434 260.676L66.658 263.771H75.1188V267.478Z" fill="#FFFFFA"/>
<path d="M236.081 264.799H238.402C240.242 264.799 241.161 263.932 241.161 262.197C241.161 261.521 240.942 260.973 240.504 260.55C240.066 260.119 239.448 259.903 238.65 259.903C237.998 259.903 237.429 260.086 236.942 260.452C236.465 260.818 236.227 261.273 236.227 261.817H231.307C231.307 260.738 231.619 259.777 232.242 258.933C232.865 258.088 233.726 257.432 234.826 256.963C235.935 256.485 237.152 256.245 238.475 256.245C240.84 256.245 242.699 256.766 244.052 257.807C245.404 258.848 246.081 260.278 246.081 262.098C246.081 262.98 245.799 263.814 245.234 264.602C244.679 265.381 243.867 266.014 242.796 266.502C243.925 266.896 244.811 267.496 245.453 268.302C246.095 269.1 246.417 270.089 246.417 271.271C246.417 273.1 245.687 274.563 244.227 275.661C242.767 276.758 240.85 277.307 238.475 277.307C237.083 277.307 235.789 277.053 234.592 276.547C233.405 276.031 232.504 275.323 231.891 274.422C231.278 273.513 230.972 272.481 230.972 271.327H235.92C235.92 271.956 236.183 272.5 236.709 272.959C237.234 273.419 237.882 273.649 238.65 273.649C239.517 273.649 240.207 273.419 240.723 272.959C241.239 272.49 241.497 271.895 241.497 271.173C241.497 270.141 241.229 269.409 240.694 268.978C240.159 268.546 239.419 268.331 238.475 268.331H236.081V264.799Z" fill="#FFFFFA"/>
<path opacity="0.1" d="M109.076 233.464H29.0366V238.406H109.076V233.464Z" fill="black"/>
<path opacity="0.1" d="M109.069 220.006H101.199V283.541H109.069V220.006Z" fill="black"/>
<path opacity="0.1" d="M204.007 232.523H196.137V283.541H204.007V232.523Z" fill="black"/>
<path opacity="0.1" d="M196.13 208.422H109.069V217.141H196.13V208.422Z" fill="black"/>
<path d="M122.857 164.727H122.71C122.151 164.727 121.616 164.505 121.221 164.11C120.826 163.715 120.604 163.18 120.604 162.621C120.604 162.063 120.826 161.527 121.221 161.132C121.616 160.737 122.151 160.515 122.71 160.515H122.759C123.346 160.529 123.918 160.334 124.373 159.963C124.829 159.593 125.137 159.073 125.243 158.496C125.348 157.919 125.245 157.323 124.95 156.815C124.656 156.308 124.19 155.922 123.637 155.727C113.478 151.473 111.863 130.706 111.702 128.347L111.562 126.108H132.532V130.32H116.083C116.834 137.032 119.382 149.388 125.209 151.831C126.451 152.331 127.516 153.187 128.272 154.291C129.028 155.395 129.44 156.699 129.457 158.037C129.462 159.797 128.772 161.488 127.535 162.742C126.299 163.995 124.618 164.709 122.857 164.727Z" fill="#FFB10F"/>
<path d="M182.383 164.727H182.531C183.089 164.727 183.625 164.505 184.02 164.11C184.415 163.715 184.637 163.18 184.637 162.621C184.637 162.063 184.415 161.527 184.02 161.132C183.625 160.737 183.089 160.515 182.531 160.515H182.482C181.895 160.529 181.323 160.334 180.867 159.963C180.412 159.593 180.104 159.073 179.998 158.496C179.892 157.919 179.996 157.323 180.29 156.815C180.585 156.308 181.051 155.922 181.604 155.727C191.763 151.473 193.377 130.706 193.539 128.347L193.679 126.108H172.702V130.32H189.123C188.372 137.032 185.823 149.388 179.996 151.831C178.755 152.331 177.689 153.187 176.934 154.291C176.178 155.395 175.766 156.699 175.749 158.037C175.743 159.803 176.439 161.5 177.683 162.754C178.926 164.008 180.617 164.718 182.383 164.727Z" fill="#FFB10F"/>
<path d="M158.591 188.161H146.678L148.784 164.109H156.485L158.591 188.161Z" fill="#FFB10F"/>
<path d="M172.702 196.501H132.587C134.748 193.281 137.669 190.643 141.091 188.818C144.513 186.994 148.331 186.04 152.209 186.041H153.045C156.929 186.034 160.755 186.985 164.183 188.81C167.612 190.635 170.538 193.276 172.702 196.501Z" fill="#FFCA0F"/>
<path d="M159.378 189.348H145.821V193.56H159.378V189.348Z" fill="#BF7406"/>
<path opacity="0.1" d="M145.821 189.348H153.922L152.603 193.56H145.821V189.348Z" fill="white"/>
<path opacity="0.1" d="M155.938 189.348L155.411 193.56H159.385V189.348H155.938Z" fill="white"/>
<path d="M172.681 196.501H132.587V199.71H172.681V196.501Z" fill="#C97B07"/>
<path d="M128.108 121.067H177.16V148.833C177.16 155.337 174.576 161.574 169.978 166.173C165.379 170.772 159.141 173.355 152.638 173.355C149.417 173.356 146.227 172.723 143.251 171.491C140.275 170.259 137.571 168.452 135.293 166.175C133.015 163.898 131.209 161.194 129.976 158.219C128.743 155.243 128.108 152.054 128.108 148.833V121.102V121.067Z" fill="#FFCA0F"/>
<path d="M178.544 116.813H126.726C125.551 116.813 124.599 117.765 124.599 118.94C124.599 120.115 125.551 121.067 126.726 121.067H178.544C179.718 121.067 180.671 120.115 180.671 118.94C180.671 117.765 179.718 116.813 178.544 116.813Z" fill="#FFB10F"/>
<path opacity="0.2" d="M170.393 127.94V151.992C170.393 153.754 173.138 153.761 173.138 151.992V127.94C173.138 126.171 170.393 126.171 170.393 127.94Z" fill="white"/>
<path opacity="0.2" d="M172.127 157.658C172.295 155.896 169.543 155.91 169.382 157.658C169.311 158.332 169.1 158.985 168.764 159.575C168.429 160.165 167.974 160.678 167.43 161.084C167.121 161.273 166.897 161.575 166.806 161.925C166.714 162.276 166.762 162.649 166.939 162.965C167.128 163.274 167.43 163.498 167.78 163.589C168.131 163.681 168.504 163.633 168.82 163.457L169.024 163.309C169.105 163.251 169.18 163.185 169.248 163.113C170.071 162.444 170.75 161.617 171.245 160.679C171.74 159.742 172.04 158.714 172.127 157.658Z" fill="white"/>
<path d="M133.886 121.067H164.776V153.256C164.776 157.352 163.149 161.28 160.252 164.177C157.356 167.073 153.427 168.701 149.331 168.701C145.235 168.701 141.306 167.073 138.41 164.177C135.513 161.28 133.886 157.352 133.886 153.256V121.067Z" fill="#FFDC01"/>
<path d="M48.4409 194.086H48.3145C47.8323 194.086 47.3698 193.895 47.0288 193.554C46.6878 193.213 46.4962 192.75 46.4962 192.268C46.4962 191.786 46.6878 191.323 47.0288 190.982C47.3698 190.641 47.8323 190.45 48.3145 190.45H48.3566C48.8863 190.513 49.4203 190.373 49.8508 190.058C50.2813 189.743 50.5762 189.277 50.676 188.753C50.7758 188.229 50.6731 187.686 50.3885 187.235C50.104 186.784 49.6588 186.458 49.1429 186.322C40.3814 182.65 38.9914 164.741 38.858 162.712L38.7246 160.768H56.8162V164.397H42.656C43.3019 170.189 45.4993 180.846 50.54 182.959C51.612 183.387 52.5327 184.125 53.1852 185.077C53.8376 186.029 54.1925 187.154 54.2046 188.309C54.2074 189.067 54.0603 189.818 53.7718 190.52C53.4833 191.221 53.0591 191.859 52.5235 192.395C51.9879 192.932 51.3515 193.358 50.6509 193.648C49.9503 193.939 49.1992 194.087 48.4409 194.086Z" fill="#5F686F"/>
<path d="M99.8443 194.087H99.9707C100.453 194.087 100.915 193.895 101.256 193.554C101.597 193.213 101.789 192.751 101.789 192.268C101.789 191.786 101.597 191.324 101.256 190.983C100.915 190.642 100.453 190.45 99.9707 190.45H99.9286C99.4034 190.501 98.8782 190.353 98.457 190.035C98.0357 189.717 97.7491 189.253 97.6538 188.734C97.5585 188.215 97.6614 187.679 97.9423 187.233C98.2231 186.786 98.6614 186.461 99.1704 186.322C107.939 182.65 109.329 164.741 109.455 162.712L109.582 160.782H91.4971V164.411H105.657C105.004 170.203 102.814 180.86 97.7663 182.973C96.695 183.402 95.7753 184.139 95.124 185.092C94.4728 186.044 94.1193 187.169 94.1087 188.323C94.1068 189.078 94.2537 189.826 94.541 190.524C94.8282 191.223 95.2502 191.857 95.7828 192.393C96.3154 192.928 96.9482 193.353 97.6451 193.644C98.342 193.934 99.0893 194.085 99.8443 194.087Z" fill="#5F686F"/>
<path d="M79.3168 214.305H69.0459L70.8642 193.553H77.4985L79.3168 214.305Z" fill="#727B84"/>
<path d="M91.4759 221.494H56.8652C58.7289 218.715 61.249 216.437 64.2026 214.864C67.1561 213.29 70.452 212.469 73.7985 212.473H74.5005C77.8542 212.462 81.1586 213.28 84.12 214.854C87.0815 216.428 89.6083 218.709 91.4759 221.494Z" fill="#D2D3D5"/>
<path d="M80.0046 215.323H68.3086V218.96H80.0046V215.323Z" fill="#5F686F"/>
<path opacity="0.1" d="M68.3086 215.323H75.2869L74.1566 218.96H68.3086V215.323Z" fill="white"/>
<path opacity="0.1" d="M77.0279 215.323L76.5786 218.96H80.0046V215.323H77.0279Z" fill="white"/>
<path d="M91.4693 221.494H56.8867V224.26H91.4693V221.494Z" fill="#808893"/>
<path d="M53.0254 156.422H95.3375V180.348C95.3337 185.955 93.1035 191.332 89.1371 195.296C85.1706 199.259 79.7925 201.486 74.1849 201.486C68.5749 201.486 63.1947 199.258 59.2278 195.291C55.261 191.324 53.0324 185.944 53.0324 180.334V156.422H53.0254Z" fill="#D2D3D5"/>
<path d="M96.5374 152.757H51.8314C50.8194 152.757 49.999 153.578 49.999 154.59V154.597C49.999 155.609 50.8194 156.429 51.8314 156.429H96.5374C97.5493 156.429 98.3697 155.609 98.3697 154.597V154.59C98.3697 153.578 97.5493 152.757 96.5374 152.757Z" fill="#808893"/>
<path opacity="0.2" d="M89.4961 162.354V183.1C89.4961 183.414 89.6211 183.716 89.8436 183.938C90.0661 184.161 90.3679 184.286 90.6825 184.286C90.9972 184.286 91.299 184.161 91.5215 183.938C91.744 183.716 91.869 183.414 91.869 183.1V162.354C91.869 162.04 91.744 161.738 91.5215 161.515C91.299 161.293 90.9972 161.168 90.6825 161.168C90.3679 161.168 90.0661 161.293 89.8436 161.515C89.6211 161.738 89.4961 162.04 89.4961 162.354Z" fill="white"/>
<path opacity="0.2" d="M90.9985 187.986C91.1389 186.469 88.773 186.483 88.6256 187.986C88.5665 188.568 88.3868 189.131 88.098 189.64C87.8091 190.149 87.4173 190.592 86.9477 190.941C86.6841 191.107 86.4933 191.367 86.4138 191.668C86.3343 191.969 86.372 192.289 86.5194 192.563C86.6791 192.833 86.9388 193.03 87.2424 193.11C87.546 193.19 87.8689 193.148 88.1412 192.991L88.3167 192.865C88.3884 192.814 88.4543 192.755 88.5133 192.689C89.2238 192.114 89.8103 191.401 90.2374 190.592C90.6646 189.784 90.9235 188.897 90.9985 187.986Z" fill="white"/>
<path opacity="0.2" d="M71.3276 197.52C67.7899 197.52 64.3971 196.114 61.8956 193.613C59.3941 191.111 57.9888 187.718 57.9888 184.181V156.422H84.6664V184.195C84.6626 187.73 83.2557 191.119 80.7546 193.618C78.2535 196.116 74.8628 197.52 71.3276 197.52Z" fill="white"/>
<path d="M212.396 206.4H212.262C211.782 206.4 211.321 206.209 210.981 205.87C210.642 205.53 210.451 205.069 210.451 204.589C210.45 204.351 210.496 204.114 210.587 203.894C210.677 203.673 210.811 203.473 210.979 203.304C211.147 203.135 211.347 203.001 211.567 202.909C211.788 202.818 212.024 202.771 212.262 202.771H212.304C212.836 202.78 213.352 202.594 213.755 202.247C214.158 201.9 214.419 201.416 214.488 200.889C214.531 200.412 214.418 199.933 214.164 199.526C213.911 199.12 213.531 198.807 213.084 198.636C204.294 194.943 202.89 177.027 202.778 174.998L202.658 173.067H220.743V176.704H206.583C207.228 182.489 209.426 193.146 214.474 195.259C215.543 195.691 216.46 196.429 217.111 197.381C217.762 198.333 218.117 199.456 218.131 200.608C218.138 201.366 217.994 202.118 217.709 202.82C217.424 203.522 217.002 204.16 216.469 204.699C215.936 205.237 215.302 205.664 214.602 205.957C213.903 206.249 213.153 206.399 212.396 206.4Z" fill="#BD6C1A"/>
<path d="M263.771 206.4H263.905C264.385 206.4 264.846 206.209 265.185 205.87C265.525 205.53 265.716 205.069 265.716 204.589C265.717 204.351 265.671 204.114 265.58 203.894C265.489 203.673 265.356 203.473 265.188 203.304C265.019 203.135 264.819 203.001 264.599 202.909C264.379 202.818 264.143 202.771 263.905 202.771H263.862C263.331 202.78 262.814 202.594 262.412 202.247C262.009 201.9 261.748 201.416 261.679 200.889C261.635 200.412 261.749 199.933 262.002 199.526C262.256 199.12 262.635 198.807 263.083 198.636C271.852 194.971 273.242 177.055 273.375 175.026L273.494 173.095H255.424V176.732H269.584C268.938 182.517 266.741 193.174 261.693 195.287C260.624 195.719 259.706 196.457 259.055 197.409C258.405 198.361 258.05 199.484 258.035 200.637C258.033 201.392 258.179 202.14 258.466 202.839C258.753 203.538 259.175 204.173 259.707 204.708C260.24 205.244 260.873 205.669 261.571 205.959C262.268 206.25 263.016 206.399 263.771 206.4Z" fill="#BD6C1A"/>
<path d="M243.251 226.591H232.973L234.791 205.839H241.432L243.251 226.591Z" fill="#A65F17"/>
<path d="M255.403 233.78H220.82C222.683 231.001 225.202 228.725 228.155 227.151C231.107 225.578 234.401 224.756 237.747 224.759H238.449C241.799 224.752 245.099 225.571 248.056 227.145C251.014 228.718 253.537 230.998 255.403 233.78Z" fill="#DA9246"/>
<path d="M243.931 227.616H232.235V231.253H243.931V227.616Z" fill="#BD6C1A"/>
<path opacity="0.1" d="M232.235 227.616H239.221L238.083 231.246H232.235V227.616Z" fill="white"/>
<path opacity="0.1" d="M240.962 227.616L240.505 231.246H243.931V227.616H240.962Z" fill="white"/>
<path d="M255.403 233.78H220.82V236.546H255.403V233.78Z" fill="#BD6C1A"/>
<path d="M238.112 213.793C235.331 213.796 232.578 213.25 230.008 212.188C227.438 211.126 225.103 209.568 223.136 207.603C221.169 205.638 219.609 203.304 218.544 200.736C217.479 198.167 216.931 195.414 216.931 192.633V168.715H259.264V192.633C259.265 195.412 258.719 198.163 257.656 200.73C256.594 203.297 255.036 205.63 253.071 207.595C251.107 209.56 248.775 211.119 246.208 212.182C243.641 213.245 240.89 213.793 238.112 213.793Z" fill="#DA9246"/>
<path d="M260.458 165.043H215.759C215.273 165.043 214.807 165.236 214.463 165.58C214.119 165.923 213.926 166.389 213.926 166.875C213.925 167.117 213.972 167.356 214.064 167.579C214.155 167.802 214.29 168.005 214.46 168.176C214.631 168.347 214.833 168.482 215.056 168.575C215.279 168.667 215.517 168.715 215.759 168.715H260.458C260.945 168.715 261.413 168.521 261.758 168.176C262.103 167.831 262.297 167.363 262.297 166.875C262.297 166.634 262.249 166.395 262.157 166.173C262.064 165.95 261.929 165.748 261.758 165.577C261.587 165.407 261.384 165.272 261.161 165.181C260.938 165.089 260.699 165.042 260.458 165.043Z" fill="#BD6C1A"/>
<path opacity="0.2" d="M253.438 174.64V195.385C253.46 195.683 253.595 195.962 253.814 196.165C254.034 196.368 254.322 196.481 254.62 196.481C254.919 196.481 255.207 196.368 255.426 196.165C255.646 195.962 255.78 195.683 255.803 195.385V174.64C255.78 174.342 255.646 174.064 255.426 173.861C255.207 173.657 254.919 173.545 254.62 173.545C254.322 173.545 254.034 173.657 253.814 173.861C253.595 174.064 253.46 174.342 253.438 174.64Z" fill="#FFBD68"/>
<path opacity="0.2" d="M254.926 200.279C255.073 198.762 252.7 198.769 252.553 200.279C252.494 200.861 252.314 201.424 252.025 201.933C251.736 202.442 251.344 202.885 250.875 203.234C250.61 203.399 250.418 203.659 250.34 203.961C250.261 204.263 250.302 204.583 250.454 204.856C250.613 205.126 250.873 205.323 251.177 205.402C251.481 205.481 251.804 205.436 252.075 205.277L252.251 205.151C252.319 205.1 252.382 205.044 252.44 204.982C253.15 204.406 253.735 203.692 254.162 202.884C254.589 202.076 254.849 201.189 254.926 200.279Z" fill="#FFBD68"/>
<path opacity="0.2" d="M235.261 209.805C231.723 209.805 228.331 208.4 225.829 205.898C223.328 203.397 221.922 200.004 221.922 196.466V168.715H248.6V196.48C248.596 200.016 247.189 203.405 244.688 205.903C242.187 208.402 238.796 209.805 235.261 209.805Z" fill="#FFBD68"/>
<path d="M170.701 114.868L169.466 114.166C168.349 113.555 167.431 112.636 166.819 111.519L166.117 110.284C166.096 110.244 166.065 110.211 166.027 110.188C165.988 110.164 165.944 110.152 165.899 110.152C165.855 110.152 165.811 110.164 165.772 110.188C165.734 110.211 165.703 110.244 165.682 110.284L164.98 111.519C164.368 112.636 163.45 113.555 162.333 114.166L161.097 114.868C161.058 114.889 161.024 114.92 161.001 114.959C160.978 114.997 160.966 115.041 160.966 115.086C160.966 115.131 160.978 115.175 161.001 115.213C161.024 115.251 161.058 115.283 161.097 115.303L162.333 116.005C163.45 116.614 164.368 117.53 164.98 118.645L165.682 119.888C165.704 119.926 165.736 119.957 165.774 119.979C165.812 120 165.855 120.012 165.899 120.012C165.943 120.012 165.987 120 166.025 119.979C166.063 119.957 166.095 119.926 166.117 119.888L166.819 118.645C167.431 117.53 168.349 116.614 169.466 116.005L170.701 115.303C170.741 115.283 170.774 115.251 170.798 115.213C170.821 115.175 170.833 115.131 170.833 115.086C170.833 115.041 170.821 114.997 170.798 114.959C170.774 114.92 170.741 114.889 170.701 114.868Z" fill="#FDD855"/>
<path d="M177.23 105.306L176.528 104.934C175.915 104.601 175.411 104.099 175.075 103.488L174.703 102.786C174.69 102.766 174.673 102.749 174.652 102.737C174.631 102.726 174.607 102.719 174.584 102.719C174.56 102.719 174.536 102.726 174.515 102.737C174.494 102.749 174.477 102.766 174.464 102.786L174.092 103.488C173.759 104.099 173.257 104.601 172.646 104.934L171.944 105.306C171.924 105.319 171.907 105.336 171.895 105.357C171.884 105.378 171.877 105.402 171.877 105.426C171.877 105.45 171.884 105.473 171.895 105.494C171.907 105.515 171.924 105.532 171.944 105.545L172.646 105.917C173.259 106.243 173.766 106.737 174.106 107.342L174.478 108.044C174.489 108.066 174.506 108.085 174.527 108.098C174.549 108.111 174.573 108.118 174.598 108.118C174.622 108.118 174.647 108.111 174.668 108.098C174.689 108.085 174.706 108.066 174.717 108.044L175.089 107.342C175.425 106.731 175.929 106.229 176.542 105.896L177.244 105.524C177.261 105.51 177.274 105.493 177.283 105.474C177.291 105.454 177.295 105.433 177.294 105.411C177.292 105.39 177.286 105.369 177.275 105.351C177.264 105.333 177.248 105.317 177.23 105.306Z" fill="#FDD855"/>
<path d="M82.0125 153.888L80.7699 153.185C79.6538 152.579 78.7371 151.662 78.1302 150.546L77.4282 149.303C77.4059 149.265 77.374 149.234 77.3359 149.212C77.2977 149.19 77.2545 149.179 77.2106 149.179C77.1666 149.179 77.1234 149.19 77.0853 149.212C77.0471 149.234 77.0153 149.265 76.9929 149.303L76.2909 150.546C75.6793 151.661 74.7607 152.577 73.6442 153.185L72.4016 153.888C72.3637 153.91 72.3324 153.942 72.3106 153.98C72.2888 154.018 72.2773 154.061 72.2773 154.105C72.2773 154.149 72.2888 154.192 72.3106 154.23C72.3324 154.269 72.3637 154.3 72.4016 154.323L73.6442 155.025C74.761 155.636 75.6794 156.555 76.2909 157.672L76.9929 158.907C77.0137 158.947 77.045 158.98 77.0834 159.003C77.1218 159.027 77.1657 159.039 77.2106 159.039C77.2554 159.039 77.2994 159.027 77.3377 159.003C77.3761 158.98 77.4074 158.947 77.4282 158.907L78.1302 157.672C78.737 156.554 79.6536 155.635 80.7699 155.025L82.0125 154.323C82.0504 154.3 82.0817 154.269 82.1035 154.23C82.1253 154.192 82.1368 154.149 82.1368 154.105C82.1368 154.061 82.1253 154.018 82.1035 153.98C82.0817 153.942 82.0504 153.91 82.0125 153.888Z" fill="#FDD855"/>
<path d="M70.9065 144.452L70.2044 144.08C69.6078 143.742 69.1205 143.24 68.8003 142.634L68.4282 141.932C68.4157 141.912 68.3981 141.895 68.3772 141.883C68.3563 141.872 68.3328 141.865 68.3089 141.865C68.285 141.865 68.2615 141.872 68.2406 141.883C68.2197 141.895 68.2021 141.912 68.1895 141.932L67.8175 142.634C67.4834 143.247 66.9785 143.749 66.3642 144.08L65.6622 144.452C65.64 144.463 65.6214 144.48 65.6083 144.501C65.5953 144.523 65.5884 144.547 65.5884 144.572C65.5884 144.596 65.5953 144.621 65.6083 144.642C65.6214 144.663 65.64 144.68 65.6622 144.691L66.3642 145.063C66.9773 145.399 67.4816 145.903 67.8175 146.516L68.1895 147.218C68.2006 147.24 68.2177 147.259 68.2387 147.272C68.2598 147.285 68.2841 147.292 68.3089 147.292C68.3337 147.292 68.358 147.285 68.3791 147.272C68.4001 147.259 68.4172 147.24 68.4282 147.218L68.8003 146.516C69.1334 145.903 69.6353 145.399 70.2465 145.063L70.9486 144.691C70.9673 144.675 70.9815 144.655 70.9898 144.632C70.9981 144.608 71.0002 144.584 70.996 144.56C70.9917 144.535 70.9812 144.513 70.9655 144.494C70.9498 144.475 70.9294 144.461 70.9065 144.452Z" fill="#FDD855"/>
<path d="M228.683 162.13L227.181 161.308C225.83 160.568 224.72 159.458 223.98 158.107L223.158 156.605C223.132 156.558 223.094 156.519 223.048 156.492C223.001 156.465 222.949 156.45 222.895 156.45C222.841 156.45 222.789 156.465 222.743 156.492C222.696 156.519 222.658 156.558 222.632 156.605L221.846 158.107C221.108 159.459 219.997 160.571 218.644 161.308L217.149 162.13C217.1 162.154 217.059 162.192 217.031 162.238C217.002 162.285 216.987 162.338 216.987 162.393C216.987 162.448 217.002 162.501 217.031 162.548C217.059 162.594 217.1 162.632 217.149 162.656L218.644 163.478C219.998 164.213 221.11 165.325 221.846 166.679L222.667 168.174C222.693 168.221 222.731 168.26 222.778 168.287C222.824 168.314 222.877 168.328 222.93 168.328C222.984 168.328 223.036 168.314 223.083 168.287C223.129 168.26 223.167 168.221 223.193 168.174L224.015 166.679C224.753 165.327 225.864 164.215 227.216 163.478L228.719 162.656C228.764 162.627 228.8 162.586 228.824 162.538C228.849 162.49 228.859 162.436 228.856 162.383C228.852 162.329 228.834 162.277 228.804 162.233C228.774 162.188 228.732 162.153 228.683 162.13Z" fill="#FDD855"/>
<path d="M230.565 171.635L231.267 171.242C231.912 170.885 232.443 170.352 232.797 169.705L233.19 169.003C233.203 168.981 233.222 168.963 233.244 168.95C233.266 168.938 233.291 168.931 233.317 168.931C233.342 168.931 233.367 168.938 233.389 168.95C233.411 168.963 233.43 168.981 233.443 169.003L233.836 169.705C234.19 170.352 234.721 170.885 235.367 171.242L236.069 171.635C236.09 171.648 236.108 171.667 236.121 171.689C236.133 171.711 236.14 171.736 236.14 171.762C236.14 171.787 236.133 171.812 236.121 171.834C236.108 171.856 236.09 171.875 236.069 171.888L235.367 172.274C234.721 172.631 234.19 173.164 233.836 173.812L233.443 174.514C233.43 174.535 233.411 174.553 233.389 174.566C233.367 174.578 233.342 174.585 233.317 174.585C233.291 174.585 233.266 174.578 233.244 174.566C233.222 174.553 233.203 174.535 233.19 174.514L232.797 173.812C232.443 173.164 231.912 172.631 231.267 172.274L230.565 171.888C230.541 171.876 230.521 171.858 230.507 171.836C230.493 171.814 230.485 171.788 230.485 171.762C230.485 171.735 230.493 171.709 230.507 171.687C230.521 171.665 230.541 171.647 230.565 171.635Z" fill="#FDD855"/>
</svg>
