<svg width="436" height="418" viewBox="0 0 436 418" fill="none" xmlns="http://www.w3.org/2000/svg">
<path d="M428.17 14.13H7.06001C6.13203 14.13 5.21316 13.9471 4.35595 13.5916C3.49874 13.2362 2.72001 12.7153 2.06429 12.0586C1.40858 11.402 0.888754 10.6225 0.534545 9.76482C0.180335 8.90711 -0.00130733 7.98798 7.0828e-06 7.06001C7.0828e-06 5.18758 0.743826 3.39184 2.06783 2.06783C3.39184 0.743826 5.18758 7.0828e-06 7.06001 7.0828e-06H428.17C429.098 -0.00130733 430.017 0.180335 430.875 0.534545C431.733 0.888754 432.512 1.40858 433.169 2.06429C433.825 2.72001 434.346 3.49874 434.702 4.35595C435.057 5.21316 435.24 6.13203 435.24 7.06001C435.241 7.98882 435.059 8.90877 434.704 9.76714C434.35 10.6255 433.829 11.4054 433.172 12.0622C432.515 12.719 431.736 13.2397 430.877 13.5945C430.019 13.9494 429.099 14.1313 428.17 14.13Z" fill="#D6D7DB"/>
<path opacity="0.2" d="M417.07 385.71H18.17C16.0964 385.71 14.0432 386.118 12.1274 386.912C10.2117 387.705 8.47103 388.869 7.00479 390.335C4.04359 393.296 2.38 397.312 2.38 401.5C2.38 403.573 2.7885 405.626 3.58214 407.541C4.37579 409.456 5.53903 411.196 7.00539 412.662C8.47176 414.127 10.2125 415.289 12.1282 416.082C14.0439 416.874 16.0969 417.281 18.17 417.28H417.07C419.143 417.281 421.196 416.874 423.112 416.082C425.027 415.289 426.768 414.127 428.235 412.662C429.701 411.196 430.864 409.456 431.658 407.541C432.452 405.626 432.86 403.573 432.86 401.5C432.86 397.312 431.196 393.296 428.235 390.335C425.274 387.374 421.258 385.71 417.07 385.71Z" fill="black"/>
<path d="M56.08 17.3199C53.14 8.63995 44.08 5.88995 39.34 7.49995C34.6 9.10995 28.82 16.0699 32 25.4999L56.08 17.3199Z" fill="#2C314E"/>
<path d="M56.0754 17.3236L31.9959 25.4694L33.3033 29.3342L57.3828 21.1884L56.0754 17.3236Z" fill="#444A6A"/>
<path opacity="0.1" d="M53.89 403.15L33.3 29.3399L57.39 21.1899L217.62 403.15H53.89Z" fill="#FFF500"/>
<path d="M379.16 17.3199C382.1 8.63995 391.16 5.88995 395.9 7.49995C400.64 9.10995 406.42 16.0699 403.24 25.4999L379.16 17.3199Z" fill="#2C314E"/>
<path d="M377.868 21.159L401.947 29.3048L403.255 25.44L379.175 17.2942L377.868 21.159Z" fill="#444A6A"/>
<path opacity="0.1" d="M381.35 403.15L401.93 29.3399L377.85 21.1899L217.62 403.15H381.35Z" fill="#FFF500"/>
<path d="M230.82 22.2901C230.82 12.7801 222.82 7.06006 217.62 7.06006C212.42 7.06006 204.42 12.0001 204.42 22.2901H230.82Z" fill="#2C314E"/>
<path d="M230.82 22.29H204.42V26.53H230.82V22.29Z" fill="#444A6A"/>
<path opacity="0.1" d="M217.62 403.15H126.86L204.42 26.54H230.82L308.38 403.15H217.62Z" fill="#FFF500"/>
<path d="M41.36 332.55H155.36V296.88H279.38V350.38H393.88V403.88H41.36V332.55Z" fill="#CA684B"/>
<path opacity="0.1" d="M393.88 350.38H279.38V357.42H393.88V350.38Z" fill="black"/>
<path d="M279.37 296.88H155.36V403.88H279.37V296.88Z" fill="#FF8B5A"/>
<path d="M284.38 291.21H150.36V296.88H284.38V291.21Z" fill="#D35930"/>
<path d="M398.89 344.71H279.38V350.38H398.89V344.71Z" fill="#A14828"/>
<path d="M155.37 326.88H36.36V332.55H155.37V326.88Z" fill="#A14828"/>
<path d="M36.35 326.88L56.37 313.38H155.36V326.88H36.35Z" fill="#5E3E2F"/>
<path d="M150.36 291.21L170.37 277.71H264.37L284.38 291.21H150.36Z" fill="#5E3E2F"/>
<path d="M279.38 344.71V331.21H378.87L398.88 344.71H279.38Z" fill="#5E3E2F"/>
<path d="M227.92 326.03V375.03H211.4V338.49H203V326.03H227.92Z" fill="#FFFFFA"/>
<path d="M107 381H85.631V376.531L95.4742 366.538C97.8999 363.871 99.1128 361.752 99.1128 360.181C99.1128 358.908 98.8254 357.94 98.2505 357.276C97.6756 356.613 96.8413 356.281 95.7476 356.281C94.6679 356.281 93.7916 356.728 93.1185 357.622C92.4455 358.502 92.109 359.605 92.109 360.932H85C85 359.118 85.4697 357.445 86.4092 355.915C87.3486 354.372 88.6526 353.167 90.3212 352.3C91.9898 351.433 93.8547 351 95.9159 351C99.225 351 101.77 351.738 103.551 353.214C105.345 354.69 106.243 356.809 106.243 359.571C106.243 360.736 106.018 361.873 105.57 362.984C105.121 364.081 104.42 365.238 103.467 366.457C102.527 367.662 101.006 369.28 98.9025 371.311L94.9484 375.719H107V381Z" fill="#FFFFFA"/>
<path d="M336.278 377.184H339.584C342.204 377.184 343.514 375.949 343.514 373.477C343.514 372.515 343.202 371.733 342.578 371.132C341.955 370.518 341.074 370.21 339.938 370.21C339.009 370.21 338.198 370.471 337.505 370.992C336.825 371.513 336.486 372.161 336.486 372.936H329.478C329.478 371.399 329.922 370.03 330.809 368.828C331.696 367.625 332.923 366.69 334.49 366.022C336.07 365.341 337.803 365 339.688 365C343.057 365 345.704 365.741 347.631 367.224C349.558 368.707 350.522 370.745 350.522 373.337C350.522 374.593 350.12 375.782 349.316 376.904C348.526 378.013 347.368 378.914 345.843 379.609C347.451 380.17 348.713 381.025 349.628 382.174C350.543 383.31 351 384.719 351 386.403C351 389.008 349.96 391.092 347.881 392.655C345.802 394.218 343.071 395 339.688 395C337.706 395 335.862 394.639 334.157 393.918C332.466 393.183 331.183 392.174 330.31 390.892C329.437 389.596 329 388.126 329 386.483H336.049C336.049 387.378 336.423 388.153 337.172 388.808C337.921 389.462 338.842 389.79 339.938 389.79C341.171 389.79 342.156 389.462 342.89 388.808C343.625 388.14 343.992 387.291 343.992 386.263C343.992 384.793 343.611 383.751 342.849 383.136C342.086 382.522 341.033 382.214 339.688 382.214H336.278V377.184Z" fill="#FFFFFA"/>
<path opacity="0.1" d="M155.37 332.55H41.36V339.59H155.37V332.55Z" fill="black"/>
<path opacity="0.1" d="M155.36 313.38H144.15V403.88H155.36V313.38Z" fill="black"/>
<path opacity="0.1" d="M290.59 331.21H279.38V403.88H290.59V331.21Z" fill="black"/>
<path opacity="0.1" d="M279.37 296.88H155.36V309.3H279.37V296.88Z" fill="black"/>
<path d="M175 234.64H174.79C173.994 234.64 173.231 234.324 172.669 233.761C172.106 233.199 171.79 232.436 171.79 231.64C171.79 230.844 172.106 230.081 172.669 229.519C173.231 228.956 173.994 228.64 174.79 228.64H174.86C175.696 228.66 176.511 228.382 177.159 227.854C177.808 227.327 178.247 226.586 178.398 225.764C178.548 224.942 178.401 224.093 177.981 223.37C177.562 222.647 176.898 222.097 176.11 221.82C161.64 215.76 159.34 186.18 159.11 182.82L158.91 179.63H188.78V185.63H165.35C166.42 195.19 170.05 212.79 178.35 216.27C180.118 216.982 181.636 218.202 182.713 219.775C183.789 221.348 184.376 223.204 184.4 225.11C184.408 227.618 183.424 230.027 181.664 231.812C179.903 233.597 177.507 234.614 175 234.64Z" fill="#FFB10F"/>
<path d="M259.79 234.64H260C260.796 234.64 261.559 234.324 262.121 233.761C262.684 233.199 263 232.436 263 231.64C263 230.844 262.684 230.081 262.121 229.519C261.559 228.956 260.796 228.64 260 228.64H259.93C259.094 228.66 258.279 228.382 257.631 227.854C256.982 227.327 256.543 226.586 256.392 225.764C256.242 224.942 256.389 224.093 256.809 223.37C257.228 222.647 257.892 222.097 258.68 221.82C273.15 215.76 275.45 186.18 275.68 182.82L275.88 179.63H246V185.63H269.39C268.32 195.19 264.69 212.79 256.39 216.27C254.622 216.982 253.104 218.202 252.027 219.775C250.951 221.348 250.364 223.204 250.34 225.11C250.332 227.626 251.323 230.043 253.094 231.829C254.866 233.616 257.274 234.627 259.79 234.64Z" fill="#FFB10F"/>
<path d="M225.9 268.02H208.93L211.93 233.76H222.9L225.9 268.02Z" fill="#FFB10F"/>
<path d="M246 279.9H188.86C191.938 275.313 196.098 271.555 200.972 268.956C205.847 266.357 211.286 264.999 216.81 265H218C223.532 264.991 228.982 266.345 233.866 268.944C238.75 271.543 242.917 275.306 246 279.9Z" fill="#FFCA0F"/>
<path d="M227.02 269.71H207.71V275.71H227.02V269.71Z" fill="#BF7406"/>
<path opacity="0.1" d="M207.71 269.71H219.25L217.37 275.71H207.71V269.71Z" fill="white"/>
<path opacity="0.1" d="M222.12 269.71L221.37 275.71H227.03V269.71H222.12Z" fill="white"/>
<path d="M245.97 279.9H188.86V284.47H245.97V279.9Z" fill="#C97B07"/>
<path d="M182.48 172.45H252.35V212C252.35 221.264 248.67 230.149 242.119 236.699C235.569 243.25 226.684 246.93 217.42 246.93C212.832 246.931 208.289 246.029 204.05 244.274C199.811 242.519 195.959 239.946 192.714 236.703C189.47 233.459 186.896 229.608 185.14 225.369C183.384 221.131 182.48 216.588 182.48 212V172.5V172.45Z" fill="#FFCA0F"/>
<path d="M254.32 166.39H180.51C178.837 166.39 177.48 167.747 177.48 169.42C177.48 171.093 178.837 172.45 180.51 172.45H254.32C255.993 172.45 257.35 171.093 257.35 169.42C257.35 167.747 255.993 166.39 254.32 166.39Z" fill="#FFB10F"/>
<path opacity="0.2" d="M242.71 182.24V216.5C242.71 219.01 246.62 219.02 246.62 216.5V182.24C246.62 179.72 242.71 179.72 242.71 182.24Z" fill="white"/>
<path opacity="0.2" d="M245.18 224.57C245.42 222.06 241.5 222.08 241.27 224.57C241.169 225.531 240.869 226.461 240.391 227.301C239.912 228.141 239.265 228.873 238.49 229.45C238.05 229.72 237.731 230.15 237.601 230.649C237.471 231.149 237.538 231.679 237.79 232.13C238.06 232.57 238.49 232.889 238.989 233.019C239.489 233.15 240.019 233.082 240.47 232.83L240.76 232.62C240.875 232.537 240.983 232.443 241.08 232.34C242.252 231.389 243.22 230.21 243.924 228.874C244.629 227.539 245.056 226.075 245.18 224.57Z" fill="white"/>
<path d="M190.71 172.45H234.71V218.3C234.71 224.135 232.392 229.731 228.266 233.856C224.141 237.982 218.545 240.3 212.71 240.3C206.875 240.3 201.279 237.982 197.154 233.856C193.028 229.731 190.71 224.135 190.71 218.3V172.45Z" fill="#FFDC01"/>
<path d="M69 276.46H68.82C68.1331 276.46 67.4743 276.187 66.9886 275.701C66.5028 275.216 66.23 274.557 66.23 273.87C66.23 273.183 66.5028 272.524 66.9886 272.039C67.4743 271.553 68.1331 271.28 68.82 271.28H68.88C69.6344 271.37 70.395 271.171 71.0083 270.722C71.6215 270.274 72.0416 269.609 72.1838 268.863C72.3259 268.116 72.1796 267.344 71.7743 266.701C71.3689 266.058 70.7348 265.593 70 265.4C57.52 260.17 55.54 234.66 55.35 231.77L55.16 229H80.93V234.17H60.76C61.68 242.42 64.81 257.6 71.99 260.61C73.5171 261.22 74.8285 262.27 75.7578 263.627C76.6872 264.983 77.1926 266.586 77.21 268.23C77.2139 269.31 77.0044 270.381 76.5935 271.38C76.1825 272.379 75.5782 273.286 74.8153 274.051C74.0525 274.816 73.146 275.422 72.148 275.836C71.15 276.249 70.0802 276.461 69 276.46Z" fill="#5F686F"/>
<path d="M142.22 276.46H142.4C143.087 276.46 143.746 276.187 144.231 275.701C144.717 275.216 144.99 274.557 144.99 273.87C144.99 273.183 144.717 272.524 144.231 272.039C143.746 271.553 143.087 271.28 142.4 271.28H142.34C141.592 271.353 140.844 271.142 140.244 270.689C139.644 270.237 139.236 269.575 139.1 268.836C138.964 268.097 139.111 267.334 139.511 266.697C139.911 266.061 140.535 265.598 141.26 265.4C153.75 260.17 155.73 234.66 155.91 231.77L156.09 229.02H130.33V234.19H150.5C149.57 242.44 146.45 257.62 139.26 260.63C137.734 261.241 136.424 262.291 135.496 263.648C134.569 265.005 134.065 266.606 134.05 268.25C134.047 269.326 134.257 270.391 134.666 271.386C135.075 272.38 135.676 273.285 136.435 274.047C137.193 274.809 138.095 275.415 139.087 275.829C140.08 276.243 141.144 276.457 142.22 276.46Z" fill="#5F686F"/>
<path d="M112.98 305.26H98.35L100.94 275.7H110.39L112.98 305.26Z" fill="#727B84"/>
<path d="M130.3 315.5H81C83.6546 311.541 87.2443 308.297 91.4514 306.056C95.6585 303.814 100.353 302.645 105.12 302.65H106.12C110.897 302.635 115.604 303.8 119.822 306.041C124.04 308.283 127.64 311.532 130.3 315.5Z" fill="#D2D3D5"/>
<path d="M113.96 306.71H97.3V311.89H113.96V306.71Z" fill="#5F686F"/>
<path opacity="0.1" d="M97.3 306.71H107.24L105.63 311.89H97.3V306.71Z" fill="white"/>
<path opacity="0.1" d="M109.72 306.71L109.08 311.89H113.96V306.71H109.72Z" fill="white"/>
<path d="M130.29 315.5H81.03V319.44H130.29V315.5Z" fill="#808893"/>
<path d="M75.53 222.81H135.8V256.89C135.795 264.878 132.618 272.536 126.968 278.182C121.318 283.828 113.658 287 105.67 287C97.6791 287 90.0154 283.826 84.3649 278.175C78.7144 272.525 75.54 264.861 75.54 256.87V222.81H75.53Z" fill="#D2D3D5"/>
<path d="M137.51 217.59H73.83C72.3885 217.59 71.22 218.759 71.22 220.2V220.21C71.22 221.651 72.3885 222.82 73.83 222.82H137.51C138.951 222.82 140.12 221.651 140.12 220.21V220.2C140.12 218.759 138.951 217.59 137.51 217.59Z" fill="#808893"/>
<path opacity="0.2" d="M127.48 231.26V260.81C127.48 261.258 127.658 261.688 127.975 262.005C128.292 262.322 128.722 262.5 129.17 262.5C129.618 262.5 130.048 262.322 130.365 262.005C130.682 261.688 130.86 261.258 130.86 260.81V231.26C130.86 230.812 130.682 230.382 130.365 230.065C130.048 229.748 129.618 229.57 129.17 229.57C128.722 229.57 128.292 229.748 127.975 230.065C127.658 230.382 127.48 230.812 127.48 231.26Z" fill="white"/>
<path opacity="0.2" d="M129.62 267.77C129.82 265.61 126.45 265.63 126.24 267.77C126.156 268.599 125.9 269.402 125.488 270.127C125.077 270.852 124.519 271.483 123.85 271.98C123.475 272.216 123.203 272.586 123.089 273.015C122.976 273.444 123.03 273.899 123.24 274.29C123.467 274.675 123.837 274.955 124.27 275.069C124.702 275.183 125.162 275.123 125.55 274.9L125.8 274.72C125.902 274.647 125.996 274.563 126.08 274.47C127.092 273.65 127.927 272.634 128.536 271.482C129.144 270.331 129.513 269.068 129.62 267.77Z" fill="white"/>
<path opacity="0.2" d="M101.6 281.35C96.5609 281.35 91.7281 279.348 88.1649 275.785C84.6018 272.222 82.6 267.389 82.6 262.35V222.81H120.6V262.37C120.595 267.406 118.591 272.233 115.028 275.792C111.465 279.351 106.636 281.35 101.6 281.35Z" fill="white"/>
<path d="M302.54 294H302.35C301.666 294 301.01 293.728 300.526 293.244C300.042 292.76 299.77 292.104 299.77 291.42C299.769 291.08 299.834 290.744 299.964 290.43C300.093 290.115 300.282 289.83 300.522 289.589C300.762 289.349 301.047 289.158 301.36 289.027C301.674 288.897 302.01 288.83 302.35 288.83H302.41C303.167 288.844 303.903 288.578 304.477 288.084C305.05 287.589 305.422 286.901 305.52 286.15C305.582 285.47 305.421 284.788 305.06 284.209C304.699 283.629 304.158 283.184 303.52 282.94C291 277.68 289 252.16 288.84 249.27L288.67 246.52H314.43V251.7H294.26C295.18 259.94 298.31 275.12 305.5 278.13C307.023 278.745 308.33 279.797 309.257 281.152C310.184 282.508 310.69 284.108 310.71 285.75C310.719 286.829 310.515 287.9 310.108 288.9C309.702 289.899 309.102 290.809 308.343 291.576C307.583 292.343 306.679 292.952 305.684 293.368C304.688 293.784 303.619 293.999 302.54 294Z" fill="#BD6C1A"/>
<path d="M375.72 294H375.91C376.594 294 377.251 293.728 377.734 293.244C378.218 292.761 378.49 292.104 378.49 291.42C378.491 291.08 378.426 290.744 378.296 290.43C378.167 290.115 377.978 289.83 377.738 289.589C377.498 289.349 377.213 289.158 376.9 289.027C376.586 288.897 376.25 288.83 375.91 288.83H375.85C375.093 288.844 374.357 288.578 373.783 288.084C373.21 287.589 372.838 286.901 372.74 286.15C372.678 285.47 372.839 284.788 373.2 284.209C373.561 283.629 374.102 283.184 374.74 282.94C387.23 277.72 389.21 252.2 389.4 249.31L389.57 246.56H363.83V251.74H384C383.08 259.98 379.95 275.16 372.76 278.17C371.237 278.785 369.93 279.837 369.003 281.192C368.076 282.548 367.57 284.148 367.55 285.79C367.546 286.866 367.754 287.932 368.163 288.927C368.572 289.923 369.173 290.827 369.932 291.59C370.691 292.353 371.593 292.958 372.586 293.372C373.579 293.785 374.644 293.999 375.72 294Z" fill="#BD6C1A"/>
<path d="M346.49 322.76H331.85L334.44 293.2H343.9L346.49 322.76Z" fill="#A65F17"/>
<path d="M363.8 333H314.54C317.194 329.042 320.782 325.799 324.987 323.558C329.192 321.317 333.885 320.146 338.65 320.15H339.65C344.422 320.14 349.123 321.307 353.335 323.548C357.548 325.79 361.143 329.036 363.8 333Z" fill="#DA9246"/>
<path d="M347.46 324.22H330.8V329.4H347.46V324.22Z" fill="#BD6C1A"/>
<path opacity="0.1" d="M330.8 324.22H340.75L339.13 329.39H330.8V324.22Z" fill="white"/>
<path opacity="0.1" d="M343.23 324.22L342.58 329.39H347.46V324.22H343.23Z" fill="white"/>
<path d="M363.8 333H314.54V336.94H363.8V333Z" fill="#BD6C1A"/>
<path d="M339.17 304.53C335.209 304.534 331.287 303.757 327.627 302.244C323.966 300.732 320.64 298.512 317.838 295.713C315.036 292.914 312.814 289.59 311.297 285.931C309.781 282.272 309 278.351 309 274.39V240.32H369.3V274.39C369.301 278.348 368.523 282.267 367.009 285.923C365.496 289.58 363.277 292.903 360.479 295.702C357.681 298.501 354.359 300.721 350.703 302.236C347.046 303.75 343.128 304.53 339.17 304.53Z" fill="#DA9246"/>
<path d="M371 235.09H307.33C306.638 235.09 305.974 235.365 305.484 235.854C304.995 236.344 304.72 237.008 304.72 237.7C304.719 238.044 304.785 238.384 304.916 238.702C305.046 239.02 305.238 239.309 305.481 239.552C305.723 239.795 306.012 239.989 306.329 240.12C306.646 240.252 306.986 240.32 307.33 240.32H371C371.695 240.32 372.361 240.044 372.853 239.553C373.344 239.061 373.62 238.395 373.62 237.7C373.62 237.356 373.552 237.016 373.42 236.699C373.289 236.382 373.095 236.093 372.852 235.851C372.609 235.608 372.32 235.416 372.002 235.286C371.684 235.155 371.344 235.089 371 235.09Z" fill="#BD6C1A"/>
<path opacity="0.2" d="M361 248.76V278.31C361.033 278.735 361.224 279.131 361.537 279.42C361.849 279.709 362.259 279.87 362.685 279.87C363.111 279.87 363.521 279.709 363.833 279.42C364.146 279.131 364.337 278.735 364.37 278.31V248.76C364.337 248.336 364.146 247.939 363.833 247.65C363.521 247.361 363.111 247.2 362.685 247.2C362.259 247.2 361.849 247.361 361.537 247.65C361.224 247.939 361.033 248.336 361 248.76Z" fill="#FFBD68"/>
<path opacity="0.2" d="M363.12 285.28C363.33 283.12 359.95 283.13 359.74 285.28C359.656 286.109 359.4 286.912 358.988 287.637C358.577 288.362 358.019 288.993 357.35 289.49C356.972 289.724 356.7 290.095 356.588 290.525C356.476 290.955 356.534 291.412 356.75 291.8C356.977 292.185 357.348 292.465 357.781 292.578C358.214 292.69 358.674 292.626 359.06 292.4L359.31 292.22C359.407 292.148 359.497 292.068 359.58 291.98C360.59 291.159 361.425 290.142 362.033 288.991C362.641 287.84 363.011 286.578 363.12 285.28Z" fill="#FFBD68"/>
<path opacity="0.2" d="M335.11 298.85C330.071 298.85 325.238 296.848 321.675 293.285C318.112 289.722 316.11 284.889 316.11 279.85V240.32H354.11V279.87C354.105 284.906 352.101 289.733 348.538 293.292C344.975 296.851 340.146 298.85 335.11 298.85Z" fill="#FFBD68"/>
<path d="M243.15 163.62L241.39 162.62C239.799 161.749 238.491 160.441 237.62 158.85L236.62 157.09C236.59 157.033 236.546 156.986 236.491 156.953C236.436 156.92 236.374 156.902 236.31 156.902C236.246 156.902 236.183 156.92 236.129 156.953C236.074 156.986 236.03 157.033 236 157.09L235 158.85C234.129 160.441 232.821 161.749 231.23 162.62L229.47 163.62C229.413 163.65 229.366 163.694 229.333 163.749C229.3 163.803 229.282 163.866 229.282 163.93C229.282 163.994 229.3 164.056 229.333 164.111C229.366 164.166 229.413 164.21 229.47 164.24L231.23 165.24C232.82 166.107 234.129 167.412 235 169L236 170.77C236.032 170.824 236.077 170.869 236.132 170.9C236.186 170.931 236.247 170.947 236.31 170.947C236.373 170.947 236.434 170.931 236.488 170.9C236.543 170.869 236.588 170.824 236.62 170.77L237.62 169C238.491 167.412 239.8 166.107 241.39 165.24L243.15 164.24C243.207 164.21 243.254 164.166 243.287 164.111C243.32 164.056 243.338 163.994 243.338 163.93C243.338 163.866 243.32 163.803 243.287 163.749C243.254 163.694 243.207 163.65 243.15 163.62Z" fill="#FDD855"/>
<path d="M252.45 150L251.45 149.47C250.577 148.996 249.859 148.281 249.38 147.41L248.85 146.41C248.832 146.381 248.807 146.357 248.777 146.341C248.748 146.324 248.714 146.315 248.68 146.315C248.646 146.315 248.612 146.324 248.583 146.341C248.553 146.357 248.528 146.381 248.51 146.41L247.98 147.41C247.505 148.28 246.79 148.995 245.92 149.47L244.92 150C244.891 150.018 244.867 150.043 244.851 150.073C244.834 150.102 244.825 150.136 244.825 150.17C244.825 150.204 244.834 150.237 244.851 150.267C244.867 150.297 244.891 150.322 244.92 150.34L245.92 150.87C246.793 151.334 247.515 152.038 248 152.9L248.53 153.9C248.546 153.932 248.57 153.958 248.6 153.977C248.63 153.995 248.665 154.005 248.7 154.005C248.735 154.005 248.77 153.995 248.8 153.977C248.83 153.958 248.854 153.932 248.87 153.9L249.4 152.9C249.879 152.029 250.597 151.314 251.47 150.84L252.47 150.31C252.494 150.291 252.512 150.266 252.525 150.238C252.537 150.211 252.542 150.18 252.54 150.15C252.538 150.119 252.529 150.09 252.513 150.064C252.498 150.038 252.476 150.016 252.45 150Z" fill="#FDD855"/>
<path d="M116.82 219.2L115.05 218.2C113.46 217.336 112.154 216.03 111.29 214.44L110.29 212.67C110.258 212.616 110.213 212.571 110.158 212.54C110.104 212.509 110.043 212.493 109.98 212.493C109.917 212.493 109.856 212.509 109.801 212.54C109.747 212.571 109.702 212.616 109.67 212.67L108.67 214.44C107.799 216.028 106.49 217.333 104.9 218.2L103.13 219.2C103.076 219.232 103.031 219.277 103 219.332C102.969 219.386 102.953 219.447 102.953 219.51C102.953 219.573 102.969 219.634 103 219.688C103.031 219.743 103.076 219.788 103.13 219.82L104.9 220.82C106.491 221.691 107.799 222.999 108.67 224.59L109.67 226.35C109.7 226.407 109.744 226.454 109.799 226.487C109.853 226.52 109.916 226.538 109.98 226.538C110.044 226.538 110.106 226.52 110.161 226.487C110.216 226.454 110.26 226.407 110.29 226.35L111.29 224.59C112.154 222.998 113.46 221.688 115.05 220.82L116.82 219.82C116.874 219.788 116.919 219.743 116.95 219.688C116.981 219.634 116.997 219.573 116.997 219.51C116.997 219.447 116.981 219.386 116.95 219.332C116.919 219.277 116.874 219.232 116.82 219.2Z" fill="#FDD855"/>
<path d="M101 205.76L100 205.23C99.1502 204.749 98.4561 204.034 98 203.17L97.47 202.17C97.4521 202.141 97.4271 202.117 97.3973 202.101C97.3676 202.084 97.3341 202.075 97.3 202.075C97.266 202.075 97.2325 202.084 97.2027 202.101C97.173 202.117 97.1479 202.141 97.13 202.17L96.6 203.17C96.1242 204.043 95.405 204.758 94.53 205.23L93.53 205.76C93.4984 205.776 93.4719 205.8 93.4533 205.83C93.4347 205.86 93.4249 205.895 93.4249 205.93C93.4249 205.965 93.4347 206 93.4533 206.03C93.4719 206.06 93.4984 206.084 93.53 206.1L94.53 206.63C95.4033 207.108 96.1216 207.827 96.6 208.7L97.13 209.7C97.1458 209.732 97.17 209.758 97.2001 209.777C97.2301 209.795 97.2647 209.805 97.3 209.805C97.3353 209.805 97.3699 209.795 97.4 209.777C97.43 209.758 97.4542 209.732 97.47 209.7L98 208.7C98.4744 207.827 99.1894 207.109 100.06 206.63L101.06 206.1C101.087 206.077 101.107 206.048 101.119 206.015C101.131 205.982 101.134 205.947 101.128 205.913C101.121 205.878 101.106 205.846 101.084 205.819C101.062 205.793 101.033 205.772 101 205.76Z" fill="#FDD855"/>
<path d="M325.74 230.94L323.6 229.77C321.676 228.716 320.094 227.134 319.04 225.21L317.87 223.07C317.833 223.003 317.778 222.948 317.712 222.909C317.646 222.871 317.571 222.85 317.495 222.85C317.419 222.85 317.344 222.871 317.278 222.909C317.212 222.948 317.157 223.003 317.12 223.07L316 225.21C314.949 227.136 313.366 228.719 311.44 229.77L309.31 230.94C309.241 230.975 309.182 231.029 309.141 231.095C309.101 231.161 309.079 231.237 309.079 231.315C309.079 231.393 309.101 231.469 309.141 231.535C309.182 231.601 309.241 231.655 309.31 231.69L311.44 232.86C313.368 233.908 314.952 235.492 316 237.42L317.17 239.55C317.207 239.617 317.262 239.672 317.328 239.711C317.394 239.749 317.469 239.77 317.545 239.77C317.621 239.77 317.696 239.749 317.762 239.711C317.828 239.672 317.883 239.617 317.92 239.55L319.09 237.42C320.141 235.494 321.724 233.911 323.65 232.86L325.79 231.69C325.854 231.648 325.906 231.59 325.941 231.522C325.975 231.453 325.991 231.377 325.986 231.3C325.98 231.224 325.955 231.15 325.912 231.087C325.869 231.023 325.809 230.973 325.74 230.94Z" fill="#FDD855"/>
<path d="M328.42 244.48L329.42 243.92C330.34 243.412 331.096 242.652 331.6 241.73L332.16 240.73C332.179 240.699 332.205 240.673 332.237 240.655C332.268 240.638 332.304 240.628 332.34 240.628C332.376 240.628 332.412 240.638 332.443 240.655C332.475 240.673 332.501 240.699 332.52 240.73L333.08 241.73C333.584 242.652 334.34 243.412 335.26 243.92L336.26 244.48C336.291 244.499 336.317 244.525 336.335 244.557C336.352 244.588 336.362 244.624 336.362 244.66C336.362 244.696 336.352 244.732 336.335 244.763C336.317 244.795 336.291 244.821 336.26 244.84L335.26 245.39C334.34 245.898 333.584 246.658 333.08 247.58L332.52 248.58C332.501 248.611 332.475 248.637 332.443 248.655C332.412 248.672 332.376 248.682 332.34 248.682C332.304 248.682 332.268 248.672 332.237 248.655C332.205 248.637 332.179 248.611 332.16 248.58L331.6 247.58C331.096 246.658 330.34 245.898 329.42 245.39L328.42 244.84C328.386 244.824 328.358 244.798 328.338 244.766C328.318 244.734 328.307 244.698 328.307 244.66C328.307 244.622 328.318 244.586 328.338 244.554C328.358 244.522 328.386 244.496 328.42 244.48Z" fill="#FDD855"/>
</svg>
