<svg width="130" height="44" viewBox="0 0 130 44" fill="none" xmlns="http://www.w3.org/2000/svg">
<path d="M12.54 10.556C12.54 11.2307 12.4153 11.854 12.166 12.426C11.9313 12.998 11.572 13.4967 11.088 13.922C10.604 14.3327 9.988 14.6627 9.24 14.912C8.50667 15.1467 7.64867 15.264 6.666 15.264C6.138 15.264 5.588 15.22 5.016 15.132C4.444 15.044 3.894 14.9193 3.366 14.758C2.85267 14.5967 2.39067 14.3987 1.98 14.164C1.584 13.9293 1.28333 13.658 1.078 13.35C0.916667 13.1153 0.836 12.866 0.836 12.602C0.836 12.1767 0.982667 11.832 1.276 11.568C1.584 11.2893 1.92867 11.15 2.31 11.15C2.45667 11.15 2.60333 11.172 2.75 11.216C2.89667 11.2453 3.02867 11.304 3.146 11.392C3.64467 11.7293 4.202 12.008 4.818 12.228C5.434 12.4333 6.10133 12.536 6.82 12.536C7.24533 12.536 7.61933 12.492 7.942 12.404C8.26467 12.316 8.52867 12.1987 8.734 12.052C8.954 11.8907 9.11533 11.7147 9.218 11.524C9.32067 11.3187 9.372 11.1133 9.372 10.908C9.372 10.5853 9.24733 10.3213 8.998 10.116C8.76333 9.91067 8.448 9.742 8.052 9.61C7.656 9.46333 7.20133 9.33867 6.688 9.236C6.18933 9.11867 5.676 8.98667 5.148 8.84C4.62 8.69333 4.09933 8.51733 3.586 8.312C3.08733 8.10667 2.64 7.84267 2.244 7.52C1.848 7.19733 1.52533 6.80133 1.276 6.332C1.04133 5.848 0.924 5.26133 0.924 4.572C0.924 3.956 1.04867 3.384 1.298 2.856C1.562 2.31333 1.92867 1.83667 2.398 1.426C2.882 1.01533 3.46867 0.692666 4.158 0.458C4.84733 0.223333 5.62467 0.105999 6.49 0.105999C6.90067 0.105999 7.35533 0.142666 7.854 0.215999C8.36733 0.274666 8.85867 0.377332 9.328 0.523999C9.79733 0.655999 10.23 0.824666 10.626 1.03C11.022 1.23533 11.3227 1.47 11.528 1.734C11.704 1.954 11.792 2.20333 11.792 2.482C11.792 2.90733 11.6233 3.252 11.286 3.516C10.9633 3.76533 10.6113 3.89 10.23 3.89C9.95133 3.89 9.68733 3.81667 9.438 3.67C8.92467 3.37667 8.38933 3.164 7.832 3.032C7.28933 2.9 6.74667 2.834 6.204 2.834C5.52933 2.834 5.00867 2.97333 4.642 3.252C4.29 3.516 4.114 3.868 4.114 4.308C4.114 4.60133 4.23133 4.84333 4.466 5.034C4.71533 5.21 5.038 5.364 5.434 5.496C5.83 5.628 6.27733 5.75267 6.776 5.87C7.28933 5.97267 7.80267 6.09733 8.316 6.244C8.844 6.39067 9.35733 6.574 9.856 6.794C10.3693 6.99933 10.824 7.27067 11.22 7.608C11.616 7.93067 11.9313 8.334 12.166 8.818C12.4153 9.28733 12.54 9.86667 12.54 10.556ZM25.3574 9.676C25.3574 10.556 25.2401 11.348 25.0054 12.052C24.7707 12.7413 24.4407 13.328 24.0154 13.812C23.6047 14.2813 23.1061 14.6407 22.5194 14.89C21.9474 15.1393 21.3241 15.264 20.6494 15.264C20.0187 15.264 19.4174 15.132 18.8454 14.868C18.2881 14.604 17.7967 14.1933 17.3714 13.636V17.816C17.3714 18.1973 17.2321 18.52 16.9534 18.784C16.6894 19.048 16.3594 19.18 15.9634 19.18C15.5821 19.18 15.2521 19.048 14.9734 18.784C14.7094 18.52 14.5774 18.1973 14.5774 17.816V5.606C14.5774 5.22467 14.7094 4.902 14.9734 4.638C15.2521 4.374 15.5967 4.242 16.0074 4.242C16.3887 4.242 16.7114 4.374 16.9754 4.638C17.2394 4.902 17.3714 5.22467 17.3714 5.606V5.716C17.7821 5.20267 18.2661 4.80667 18.8234 4.528C19.3807 4.24933 19.9894 4.11 20.6494 4.11C21.3241 4.11 21.9474 4.23467 22.5194 4.484C23.1061 4.73333 23.6047 5.09267 24.0154 5.562C24.4407 6.03133 24.7707 6.618 25.0054 7.322C25.2401 8.01133 25.3574 8.796 25.3574 9.676ZM22.4534 9.676C22.4534 9.22133 22.3874 8.80333 22.2554 8.422C22.1234 8.04067 21.9401 7.718 21.7054 7.454C21.4707 7.17533 21.1847 6.96267 20.8474 6.816C20.5247 6.66933 20.1654 6.596 19.7694 6.596C19.3147 6.596 18.8601 6.71333 18.4054 6.948C17.9507 7.18267 17.6061 7.46867 17.3714 7.806V11.568C17.6061 11.9053 17.9507 12.1913 18.4054 12.426C18.8601 12.6607 19.3147 12.778 19.7694 12.778C20.1654 12.778 20.5247 12.7047 20.8474 12.558C21.1847 12.4113 21.4707 12.1987 21.7054 11.92C21.9401 11.6413 22.1234 11.3187 22.2554 10.952C22.3874 10.5707 22.4534 10.1453 22.4534 9.676ZM37.9636 9.676C37.9636 10.4387 37.8316 11.1573 37.5676 11.832C37.3182 12.5067 36.9516 13.1007 36.4676 13.614C35.9836 14.1127 35.3896 14.516 34.6856 14.824C33.9962 15.1173 33.2116 15.264 32.3316 15.264C31.4516 15.264 30.6669 15.1173 29.9776 14.824C29.2882 14.516 28.7016 14.1127 28.2176 13.614C27.7336 13.1007 27.3596 12.5067 27.0956 11.832C26.8462 11.1573 26.7216 10.4387 26.7216 9.676C26.7216 8.928 26.8462 8.21667 27.0956 7.542C27.3596 6.86733 27.7336 6.28067 28.2176 5.782C28.7016 5.26867 29.2882 4.86533 29.9776 4.572C30.6669 4.264 31.4516 4.11 32.3316 4.11C33.2116 4.11 33.9962 4.264 34.6856 4.572C35.3896 4.86533 35.9836 5.26867 36.4676 5.782C36.9516 6.28067 37.3182 6.86733 37.5676 7.542C37.8316 8.21667 37.9636 8.928 37.9636 9.676ZM35.0596 9.676C35.0596 9.26533 34.9936 8.87667 34.8616 8.51C34.7442 8.12867 34.5682 7.79867 34.3336 7.52C34.1136 7.24133 33.8349 7.02133 33.4976 6.86C33.1602 6.684 32.7716 6.596 32.3316 6.596C31.8916 6.596 31.5029 6.684 31.1656 6.86C30.8429 7.02133 30.5642 7.24133 30.3296 7.52C30.0949 7.79867 29.9189 8.12867 29.8016 8.51C29.6842 8.87667 29.6256 9.26533 29.6256 9.676C29.6256 10.1013 29.6842 10.5047 29.8016 10.886C29.9189 11.2527 30.0949 11.5753 30.3296 11.854C30.5642 12.1327 30.8429 12.36 31.1656 12.536C31.5029 12.6973 31.8916 12.778 32.3316 12.778C32.7716 12.778 33.1602 12.6973 33.4976 12.536C33.8349 12.36 34.1136 12.1327 34.3336 11.854C34.5682 11.5753 34.7442 11.2527 34.8616 10.886C34.9936 10.5047 35.0596 10.1013 35.0596 9.676ZM46.3504 5.43C46.3504 5.85533 46.2184 6.18533 45.9544 6.42C45.7051 6.65467 45.3897 6.80133 45.0084 6.86C44.5831 6.91867 44.1724 7.036 43.7764 7.212C43.3951 7.388 43.0797 7.64467 42.8304 7.982V13.746C42.8304 14.1273 42.6984 14.4573 42.4344 14.736C42.1704 15 41.8477 15.132 41.4664 15.132H41.4224C41.0411 15.132 40.7111 15 40.4324 14.736C40.1684 14.4573 40.0364 14.1273 40.0364 13.746V5.606C40.0364 5.22467 40.1684 4.902 40.4324 4.638C40.7111 4.374 41.0557 4.242 41.4664 4.242C41.8477 4.242 42.1704 4.374 42.4344 4.638C42.6984 4.902 42.8304 5.22467 42.8304 5.606V5.826C42.9624 5.65 43.1017 5.474 43.2484 5.298C43.4097 5.10733 43.5857 4.93867 43.7764 4.792C43.9671 4.64533 44.1724 4.528 44.3924 4.44C44.6124 4.33733 44.8544 4.286 45.1184 4.286C45.5291 4.286 45.8371 4.396 46.0424 4.616C46.2477 4.836 46.3504 5.10733 46.3504 5.43ZM53.7721 13.988C53.7721 14.164 53.7355 14.3327 53.6621 14.494C53.6035 14.6407 53.4935 14.7727 53.3321 14.89C53.1708 15.0073 52.9435 15.0953 52.6501 15.154C52.3568 15.2273 51.9828 15.264 51.5281 15.264C50.5455 15.264 49.7975 15.022 49.2841 14.538C48.7708 14.0393 48.5141 13.3133 48.5141 12.36V6.816H47.8321C47.4948 6.816 47.2088 6.69867 46.9741 6.464C46.7395 6.21467 46.6221 5.914 46.6221 5.562C46.6221 5.23933 46.7395 4.96067 46.9741 4.726C47.2088 4.49133 47.4948 4.374 47.8321 4.374H48.5141V2.724C48.5141 2.34267 48.6461 2.02 48.9101 1.756C49.1888 1.47733 49.5335 1.338 49.9441 1.338C50.3255 1.338 50.6481 1.47733 50.9121 1.756C51.1908 2.02 51.3301 2.34267 51.3301 2.724V4.374H52.4301C52.7528 4.374 53.0315 4.49867 53.2661 4.748C53.5008 4.98267 53.6181 5.26867 53.6181 5.606C53.6181 5.94333 53.5008 6.22933 53.2661 6.464C53.0315 6.69867 52.7528 6.816 52.4301 6.816H51.3301V11.612C51.3301 12.0373 51.4328 12.338 51.6381 12.514C51.8581 12.69 52.0781 12.778 52.2981 12.778C52.3275 12.778 52.3641 12.778 52.4081 12.778C52.4668 12.778 52.5108 12.778 52.5401 12.778C52.9361 12.778 53.2368 12.8953 53.4421 13.13C53.6621 13.3647 53.7721 13.6507 53.7721 13.988ZM73.3246 11.04C73.3246 11.5973 73.2293 12.118 73.0386 12.602C72.8626 13.0713 72.5913 13.4893 72.2246 13.856C71.8726 14.208 71.4326 14.4867 70.9046 14.692C70.3766 14.8973 69.7606 15 69.0566 15H62.8526C62.3686 15 61.9506 14.8313 61.5986 14.494C61.2613 14.142 61.0926 13.724 61.0926 13.24V2.086C61.0926 1.602 61.2613 1.19133 61.5986 0.854C61.9506 0.501999 62.3686 0.325999 62.8526 0.325999H68.8146C69.5186 0.325999 70.1346 0.428665 70.6626 0.633999C71.1906 0.839332 71.6306 1.118 71.9826 1.47C72.3346 1.80733 72.5986 2.20333 72.7746 2.658C72.9506 3.11267 73.0386 3.582 73.0386 4.066C73.0386 4.53533 72.9726 4.96067 72.8406 5.342C72.7086 5.72333 72.5253 6.06067 72.2906 6.354C72.056 6.63267 71.7846 6.86733 71.4766 7.058C71.1833 7.234 70.8606 7.35867 70.5086 7.432C70.9046 7.49067 71.2713 7.63 71.6086 7.85C71.946 8.05533 72.2393 8.31933 72.4886 8.642C72.7526 8.95 72.958 9.31667 73.1046 9.742C73.2513 10.1527 73.3246 10.5853 73.3246 11.04ZM69.8486 4.616C69.8486 4.14667 69.6946 3.76533 69.3866 3.472C69.0786 3.164 68.6606 3.01 68.1326 3.01H64.2166V6.2H68.1326C68.6606 6.2 69.0786 6.05333 69.3866 5.76C69.6946 5.46667 69.8486 5.08533 69.8486 4.616ZM70.1346 10.6C70.1346 10.3653 70.0906 10.1453 70.0026 9.94C69.9293 9.73467 69.812 9.55867 69.6506 9.412C69.4893 9.25067 69.2913 9.126 69.0566 9.038C68.822 8.93533 68.5506 8.884 68.2426 8.884H64.2166V12.294H68.2426C68.844 12.294 69.306 12.1473 69.6286 11.854C69.966 11.546 70.1346 11.128 70.1346 10.6ZM86.1745 9.676C86.1745 10.4387 86.0425 11.1573 85.7785 11.832C85.5292 12.5067 85.1625 13.1007 84.6785 13.614C84.1945 14.1127 83.6005 14.516 82.8965 14.824C82.2072 15.1173 81.4225 15.264 80.5425 15.264C79.6625 15.264 78.8778 15.1173 78.1885 14.824C77.4992 14.516 76.9125 14.1127 76.4285 13.614C75.9445 13.1007 75.5705 12.5067 75.3065 11.832C75.0572 11.1573 74.9325 10.4387 74.9325 9.676C74.9325 8.928 75.0572 8.21667 75.3065 7.542C75.5705 6.86733 75.9445 6.28067 76.4285 5.782C76.9125 5.26867 77.4992 4.86533 78.1885 4.572C78.8778 4.264 79.6625 4.11 80.5425 4.11C81.4225 4.11 82.2072 4.264 82.8965 4.572C83.6005 4.86533 84.1945 5.26867 84.6785 5.782C85.1625 6.28067 85.5292 6.86733 85.7785 7.542C86.0425 8.21667 86.1745 8.928 86.1745 9.676ZM83.2705 9.676C83.2705 9.26533 83.2045 8.87667 83.0725 8.51C82.9552 8.12867 82.7792 7.79867 82.5445 7.52C82.3245 7.24133 82.0458 7.02133 81.7085 6.86C81.3712 6.684 80.9825 6.596 80.5425 6.596C80.1025 6.596 79.7138 6.684 79.3765 6.86C79.0538 7.02133 78.7752 7.24133 78.5405 7.52C78.3058 7.79867 78.1298 8.12867 78.0125 8.51C77.8952 8.87667 77.8365 9.26533 77.8365 9.676C77.8365 10.1013 77.8952 10.5047 78.0125 10.886C78.1298 11.2527 78.3058 11.5753 78.5405 11.854C78.7752 12.1327 79.0538 12.36 79.3765 12.536C79.7138 12.6973 80.1025 12.778 80.5425 12.778C80.9825 12.778 81.3712 12.6973 81.7085 12.536C82.0458 12.36 82.3245 12.1327 82.5445 11.854C82.7792 11.5753 82.9552 11.2527 83.0725 10.886C83.2045 10.5047 83.2705 10.1013 83.2705 9.676ZM91.0413 13.746C91.0413 14.1273 90.902 14.4573 90.6233 14.736C90.3593 15 90.0293 15.132 89.6333 15.132C89.252 15.132 88.922 15 88.6433 14.736C88.3793 14.4573 88.2473 14.1273 88.2473 13.746V1.558C88.2473 1.17667 88.3793 0.853999 88.6433 0.589999C88.922 0.325999 89.2667 0.193999 89.6773 0.193999C90.0587 0.193999 90.3813 0.325999 90.6453 0.589999C90.9093 0.853999 91.0413 1.17667 91.0413 1.558V13.746ZM102.986 13.746C102.986 14.1273 102.854 14.4573 102.59 14.736C102.326 15 102.003 15.132 101.622 15.132C101.622 15.132 101.585 15.132 101.512 15.132C101.438 15.132 101.402 15.132 101.402 15.132C101.064 15.132 100.778 15.0147 100.544 14.78C100.309 14.5307 100.192 14.2373 100.192 13.9C99.8251 14.3253 99.3484 14.6627 98.7618 14.912C98.1751 15.1467 97.5298 15.264 96.8258 15.264C96.4004 15.264 95.9678 15.1907 95.5278 15.044C95.0878 14.8973 94.6918 14.6847 94.3398 14.406C93.9878 14.1127 93.6944 13.746 93.4598 13.306C93.2398 12.866 93.1298 12.3453 93.1298 11.744C93.1298 11.128 93.2398 10.6 93.4598 10.16C93.6944 9.72 93.9878 9.368 94.3398 9.104C94.6918 8.82533 95.0878 8.62733 95.5278 8.51C95.9678 8.378 96.4004 8.312 96.8258 8.312C97.5298 8.312 98.1751 8.422 98.7618 8.642C99.3631 8.862 99.8398 9.18467 100.192 9.61V8.18C100.192 7.63733 99.9791 7.20467 99.5538 6.882C99.1284 6.55933 98.5638 6.398 97.8598 6.398C97.4344 6.398 97.0238 6.44933 96.6278 6.552C96.2318 6.65467 95.8504 6.83067 95.4838 7.08C95.3078 7.18267 95.1391 7.234 94.9778 7.234C94.7284 7.234 94.4864 7.13867 94.2518 6.948C94.0318 6.75733 93.9218 6.49333 93.9218 6.156C93.9218 5.96533 93.9731 5.782 94.0758 5.606C94.2371 5.342 94.4938 5.11467 94.8458 4.924C95.1978 4.73333 95.5791 4.57933 95.9898 4.462C96.4151 4.34467 96.8331 4.25667 97.2438 4.198C97.6691 4.13933 98.0358 4.11 98.3438 4.11C98.9451 4.11 99.5244 4.176 100.082 4.308C100.639 4.44 101.13 4.66733 101.556 4.99C101.996 5.298 102.34 5.70867 102.59 6.222C102.854 6.73533 102.986 7.37333 102.986 8.136V13.746ZM100.192 12.448V11.128C99.9571 10.82 99.6344 10.5927 99.2238 10.446C98.8278 10.2847 98.4024 10.204 97.9478 10.204C97.3904 10.204 96.9138 10.3433 96.5178 10.622C96.1364 10.9007 95.9458 11.2967 95.9458 11.81C95.9458 12.3087 96.1364 12.6973 96.5178 12.976C96.9138 13.24 97.3904 13.372 97.9478 13.372C98.4024 13.372 98.8278 13.2987 99.2238 13.152C99.6344 12.9907 99.9571 12.756 100.192 12.448ZM108.551 13.746C108.551 14.1273 108.412 14.4573 108.133 14.736C107.869 15 107.539 15.132 107.143 15.132C106.762 15.132 106.432 15 106.153 14.736C105.889 14.4573 105.757 14.1273 105.757 13.746V1.558C105.757 1.17667 105.889 0.853999 106.153 0.589999C106.432 0.325999 106.776 0.193999 107.187 0.193999C107.568 0.193999 107.891 0.325999 108.155 0.589999C108.419 0.853999 108.551 1.17667 108.551 1.558V13.746ZM120.496 13.746C120.496 14.1273 120.364 14.4573 120.1 14.736C119.836 15 119.513 15.132 119.132 15.132C119.132 15.132 119.095 15.132 119.022 15.132C118.948 15.132 118.912 15.132 118.912 15.132C118.574 15.132 118.288 15.0147 118.054 14.78C117.819 14.5307 117.702 14.2373 117.702 13.9C117.335 14.3253 116.858 14.6627 116.272 14.912C115.685 15.1467 115.04 15.264 114.336 15.264C113.91 15.264 113.478 15.1907 113.038 15.044C112.598 14.8973 112.202 14.6847 111.85 14.406C111.498 14.1127 111.204 13.746 110.97 13.306C110.75 12.866 110.64 12.3453 110.64 11.744C110.64 11.128 110.75 10.6 110.97 10.16C111.204 9.72 111.498 9.368 111.85 9.104C112.202 8.82533 112.598 8.62733 113.038 8.51C113.478 8.378 113.91 8.312 114.336 8.312C115.04 8.312 115.685 8.422 116.272 8.642C116.873 8.862 117.35 9.18467 117.702 9.61V8.18C117.702 7.63733 117.489 7.20467 117.064 6.882C116.638 6.55933 116.074 6.398 115.37 6.398C114.944 6.398 114.534 6.44933 114.138 6.552C113.742 6.65467 113.36 6.83067 112.994 7.08C112.818 7.18267 112.649 7.234 112.488 7.234C112.238 7.234 111.996 7.13867 111.762 6.948C111.542 6.75733 111.432 6.49333 111.432 6.156C111.432 5.96533 111.483 5.782 111.586 5.606C111.747 5.342 112.004 5.11467 112.356 4.924C112.708 4.73333 113.089 4.57933 113.5 4.462C113.925 4.34467 114.343 4.25667 114.754 4.198C115.179 4.13933 115.546 4.11 115.854 4.11C116.455 4.11 117.034 4.176 117.592 4.308C118.149 4.44 118.64 4.66733 119.066 4.99C119.506 5.298 119.85 5.70867 120.1 6.222C120.364 6.73533 120.496 7.37333 120.496 8.136V13.746ZM117.702 12.448V11.128C117.467 10.82 117.144 10.5927 116.734 10.446C116.338 10.2847 115.912 10.204 115.458 10.204C114.9 10.204 114.424 10.3433 114.028 10.622C113.646 10.9007 113.456 11.2967 113.456 11.81C113.456 12.3087 113.646 12.6973 114.028 12.976C114.424 13.24 114.9 13.372 115.458 13.372C115.912 13.372 116.338 13.2987 116.734 13.152C117.144 12.9907 117.467 12.756 117.702 12.448ZM129.581 5.43C129.581 5.85533 129.449 6.18533 129.185 6.42C128.936 6.65467 128.62 6.80133 128.239 6.86C127.814 6.91867 127.403 7.036 127.007 7.212C126.626 7.388 126.31 7.64467 126.061 7.982V13.746C126.061 14.1273 125.929 14.4573 125.665 14.736C125.401 15 125.078 15.132 124.697 15.132H124.653C124.272 15.132 123.942 15 123.663 14.736C123.399 14.4573 123.267 14.1273 123.267 13.746V5.606C123.267 5.22467 123.399 4.902 123.663 4.638C123.942 4.374 124.286 4.242 124.697 4.242C125.078 4.242 125.401 4.374 125.665 4.638C125.929 4.902 126.061 5.22467 126.061 5.606V5.826C126.193 5.65 126.332 5.474 126.479 5.298C126.64 5.10733 126.816 4.93867 127.007 4.792C127.198 4.64533 127.403 4.528 127.623 4.44C127.843 4.33733 128.085 4.286 128.349 4.286C128.76 4.286 129.068 4.396 129.273 4.616C129.478 4.836 129.581 5.10733 129.581 5.43ZM14.586 37.24C14.586 37.4893 14.5347 37.7313 14.432 37.966C14.344 38.186 14.212 38.384 14.036 38.56C13.86 38.736 13.6547 38.8753 13.42 38.978C13.1853 39.0807 12.9287 39.132 12.65 39.132C12.3567 39.132 12.0707 39.066 11.792 38.934C11.5133 38.7873 11.2787 38.5893 11.088 38.34L4.576 29.43V37.592C4.576 38.0173 4.422 38.384 4.114 38.692C3.806 38.9853 3.432 39.132 2.992 39.132C2.56667 39.132 2.2 38.9853 1.892 38.692C1.59867 38.384 1.452 38.0173 1.452 37.592V26.196C1.452 25.932 1.50333 25.6827 1.606 25.448C1.70867 25.2133 1.848 25.0007 2.024 24.81C2.21467 24.6193 2.43467 24.4727 2.684 24.37C2.93333 24.2527 3.20467 24.194 3.498 24.194C3.83533 24.194 4.15067 24.2673 4.444 24.414C4.752 24.5607 5.00867 24.7733 5.214 25.052L11.462 33.544V25.734C11.462 25.3087 11.616 24.9493 11.924 24.656C12.232 24.348 12.606 24.194 13.046 24.194C13.4713 24.194 13.8307 24.348 14.124 24.656C14.432 24.9493 14.586 25.3087 14.586 25.734V37.24ZM18.7993 23.908C19.2687 23.908 19.6647 24.0693 19.9873 24.392C20.31 24.7 20.4713 25.0887 20.4713 25.558C20.4713 26.0273 20.31 26.4233 19.9873 26.746C19.6647 27.0687 19.2687 27.23 18.7993 27.23C18.3447 27.23 17.9487 27.0687 17.6113 26.746C17.2887 26.4233 17.1273 26.0273 17.1273 25.558C17.1273 25.0887 17.2887 24.7 17.6113 24.392C17.9487 24.0693 18.3447 23.908 18.7993 23.908ZM20.2073 37.746C20.2073 38.1273 20.068 38.4573 19.7893 38.736C19.5253 39 19.1953 39.132 18.7993 39.132C18.418 39.132 18.088 39 17.8093 38.736C17.5453 38.4573 17.4133 38.1273 17.4133 37.746V29.606C17.4133 29.2247 17.5453 28.902 17.8093 28.638C18.088 28.374 18.4327 28.242 18.8433 28.242C19.2247 28.242 19.5473 28.374 19.8113 28.638C20.0753 28.902 20.2073 29.2247 20.2073 29.606V37.746ZM33.0758 38.274C33.0758 39.286 32.8998 40.1147 32.5478 40.76C32.1958 41.42 31.7411 41.9333 31.1838 42.3C30.6265 42.6813 30.0105 42.9453 29.3358 43.092C28.6611 43.2387 27.9938 43.312 27.3338 43.312C27.0111 43.312 26.6445 43.29 26.2338 43.246C25.8231 43.202 25.4198 43.1287 25.0238 43.026C24.6278 42.9233 24.2685 42.784 23.9458 42.608C23.6231 42.4467 23.3811 42.2413 23.2198 41.992C23.1025 41.8013 23.0438 41.596 23.0438 41.376C23.0438 41.0387 23.1611 40.76 23.3958 40.54C23.6305 40.32 23.9018 40.21 24.2098 40.21C24.4151 40.21 24.6131 40.2613 24.8038 40.364C25.1851 40.5987 25.5811 40.7673 25.9918 40.87C26.4171 40.9727 26.8645 41.024 27.3338 41.024C27.6711 41.024 28.0085 40.98 28.3458 40.892C28.6978 40.8187 29.0131 40.6793 29.2918 40.474C29.5851 40.2687 29.8198 39.99 29.9958 39.638C30.1718 39.3007 30.2598 38.868 30.2598 38.34V37.262C29.8345 37.79 29.3431 38.2007 28.7858 38.494C28.2431 38.7873 27.6418 38.934 26.9818 38.934C26.3218 38.934 25.7058 38.8167 25.1338 38.582C24.5618 38.3473 24.0631 38.0027 23.6378 37.548C23.2271 37.0933 22.8971 36.5287 22.6478 35.854C22.4131 35.1793 22.2958 34.402 22.2958 33.522C22.2958 32.6567 22.4131 31.8867 22.6478 31.212C22.8825 30.5373 23.2051 29.9727 23.6158 29.518C24.0411 29.0487 24.5398 28.6967 25.1118 28.462C25.6838 28.2273 26.3071 28.11 26.9818 28.11C27.6271 28.11 28.2285 28.2493 28.7858 28.528C29.3431 28.792 29.8345 29.1953 30.2598 29.738V29.628C30.2598 29.2467 30.3918 28.924 30.6558 28.66C30.9345 28.3813 31.2791 28.242 31.6898 28.242C32.0711 28.242 32.3938 28.3813 32.6578 28.66C32.9365 28.924 33.0758 29.2467 33.0758 29.628V38.274ZM30.2598 35.238V31.806C30.1425 31.63 29.9958 31.4687 29.8198 31.322C29.6438 31.1753 29.4458 31.0507 29.2258 30.948C29.0205 30.8307 28.8005 30.7427 28.5658 30.684C28.3311 30.6253 28.0965 30.596 27.8618 30.596C27.4658 30.596 27.0991 30.662 26.7618 30.794C26.4391 30.926 26.1605 31.124 25.9258 31.388C25.6911 31.6373 25.5078 31.9453 25.3758 32.312C25.2438 32.664 25.1778 33.0673 25.1778 33.522C25.1778 33.9767 25.2438 34.3873 25.3758 34.754C25.5078 35.106 25.6911 35.414 25.9258 35.678C26.1605 35.9273 26.4391 36.118 26.7618 36.25C27.0991 36.382 27.4658 36.448 27.8618 36.448C28.0965 36.448 28.3311 36.4187 28.5658 36.36C28.8005 36.3013 29.0205 36.2207 29.2258 36.118C29.4458 36.0007 29.6438 35.8687 29.8198 35.722C29.9958 35.5753 30.1425 35.414 30.2598 35.238ZM46.4069 33.676C46.4069 34.4387 46.2749 35.1573 46.0109 35.832C45.7616 36.5067 45.3949 37.1007 44.9109 37.614C44.4269 38.1127 43.8329 38.516 43.1289 38.824C42.4396 39.1173 41.6549 39.264 40.7749 39.264C39.8949 39.264 39.1103 39.1173 38.4209 38.824C37.7316 38.516 37.1449 38.1127 36.6609 37.614C36.1769 37.1007 35.8029 36.5067 35.5389 35.832C35.2896 35.1573 35.1649 34.4387 35.1649 33.676C35.1649 32.928 35.2896 32.2167 35.5389 31.542C35.8029 30.8673 36.1769 30.2807 36.6609 29.782C37.1449 29.2687 37.7316 28.8653 38.4209 28.572C39.1103 28.264 39.8949 28.11 40.7749 28.11C41.6549 28.11 42.4396 28.264 43.1289 28.572C43.8329 28.8653 44.4269 29.2687 44.9109 29.782C45.3949 30.2807 45.7616 30.8673 46.0109 31.542C46.2749 32.2167 46.4069 32.928 46.4069 33.676ZM43.5029 33.676C43.5029 33.2653 43.4369 32.8767 43.3049 32.51C43.1876 32.1287 43.0116 31.7987 42.7769 31.52C42.5569 31.2413 42.2783 31.0213 41.9409 30.86C41.6036 30.684 41.2149 30.596 40.7749 30.596C40.3349 30.596 39.9463 30.684 39.6089 30.86C39.2863 31.0213 39.0076 31.2413 38.7729 31.52C38.5383 31.7987 38.3623 32.1287 38.2449 32.51C38.1276 32.8767 38.0689 33.2653 38.0689 33.676C38.0689 34.1013 38.1276 34.5047 38.2449 34.886C38.3623 35.2527 38.5383 35.5753 38.7729 35.854C39.0076 36.1327 39.2863 36.36 39.6089 36.536C39.9463 36.6973 40.3349 36.778 40.7749 36.778C41.2149 36.778 41.6036 36.6973 41.9409 36.536C42.2783 36.36 42.5569 36.1327 42.7769 35.854C43.0116 35.5753 43.1876 35.2527 43.3049 34.886C43.4369 34.5047 43.5029 34.1013 43.5029 33.676ZM58.4678 37.746C58.4678 38.1273 58.3284 38.4573 58.0498 38.736C57.7858 39 57.4558 39.132 57.0598 39.132C56.6784 39.132 56.3484 39 56.0698 38.736C55.8058 38.4573 55.6738 38.1273 55.6738 37.746V32.532C55.6738 32.1653 55.6224 31.8573 55.5198 31.608C55.4318 31.3587 55.2998 31.1607 55.1238 31.014C54.9624 30.8673 54.7571 30.7647 54.5078 30.706C54.2731 30.6327 54.0018 30.596 53.6938 30.596C53.4298 30.596 53.1731 30.6327 52.9238 30.706C52.6891 30.7793 52.4691 30.8747 52.2638 30.992C52.0584 31.1093 51.8678 31.2413 51.6918 31.388C51.5304 31.5347 51.3911 31.6887 51.2738 31.85V37.746C51.2738 38.1273 51.1344 38.4573 50.8558 38.736C50.5918 39 50.2618 39.132 49.8658 39.132C49.4844 39.132 49.1544 39 48.8758 38.736C48.6118 38.4573 48.4798 38.1273 48.4798 37.746V25.558C48.4798 25.1767 48.6118 24.854 48.8758 24.59C49.1544 24.326 49.4991 24.194 49.9098 24.194C50.2911 24.194 50.6138 24.326 50.8778 24.59C51.1418 24.854 51.2738 25.1767 51.2738 25.558V29.76C51.4498 29.5547 51.6551 29.3567 51.8898 29.166C52.1391 28.9607 52.4251 28.7847 52.7477 28.638C53.0704 28.4767 53.4151 28.352 53.7818 28.264C54.1631 28.1613 54.5738 28.11 55.0138 28.11C56.1871 28.11 57.0524 28.4107 57.6098 29.012C58.1818 29.5987 58.4678 30.4127 58.4678 31.454V37.746ZM62.6275 23.908C63.0968 23.908 63.4928 24.0693 63.8155 24.392C64.1381 24.7 64.2995 25.0887 64.2995 25.558C64.2995 26.0273 64.1381 26.4233 63.8155 26.746C63.4928 27.0687 63.0968 27.23 62.6275 27.23C62.1728 27.23 61.7768 27.0687 61.4395 26.746C61.1168 26.4233 60.9555 26.0273 60.9555 25.558C60.9555 25.0887 61.1168 24.7 61.4395 24.392C61.7768 24.0693 62.1728 23.908 62.6275 23.908ZM64.0355 37.746C64.0355 38.1273 63.8961 38.4573 63.6175 38.736C63.3535 39 63.0235 39.132 62.6275 39.132C62.2461 39.132 61.9161 39 61.6375 38.736C61.3735 38.4573 61.2415 38.1273 61.2415 37.746V29.606C61.2415 29.2247 61.3735 28.902 61.6375 28.638C61.9161 28.374 62.2608 28.242 62.6715 28.242C63.0528 28.242 63.3755 28.374 63.6395 28.638C63.9035 28.902 64.0355 29.2247 64.0355 29.606V37.746ZM76.9259 37.746C76.9259 38.1273 76.7866 38.4573 76.5079 38.736C76.2439 39 75.9066 39.132 75.4959 39.132C75.1146 39.132 74.7846 39 74.5059 38.736C74.2419 38.4573 74.1099 38.1273 74.1099 37.746V37.636C73.6846 38.164 73.1933 38.5673 72.6359 38.846C72.0786 39.1247 71.4773 39.264 70.8319 39.264C70.1573 39.264 69.5339 39.1393 68.9619 38.89C68.3899 38.6407 67.8913 38.2813 67.4659 37.812C67.0553 37.3427 66.7253 36.7633 66.4759 36.074C66.2413 35.37 66.1239 34.578 66.1239 33.698C66.1239 32.8327 66.2413 32.0553 66.4759 31.366C66.7106 30.6767 67.0333 30.09 67.4439 29.606C67.8693 29.122 68.3679 28.7553 68.9399 28.506C69.5266 28.242 70.1573 28.11 70.8319 28.11C71.4626 28.11 72.0566 28.2493 72.6139 28.528C73.1859 28.792 73.6846 29.1953 74.1099 29.738V25.58C74.1099 25.1987 74.2419 24.876 74.5059 24.612C74.7846 24.3333 75.1293 24.194 75.5399 24.194C75.9213 24.194 76.2439 24.3333 76.5079 24.612C76.7866 24.876 76.9259 25.1987 76.9259 25.58V37.746ZM74.1099 35.568V31.806C73.8753 31.454 73.5306 31.168 73.0759 30.948C72.6213 30.7133 72.1593 30.596 71.6899 30.596C71.2939 30.596 70.9273 30.6693 70.5899 30.816C70.2673 30.9627 69.9886 31.1753 69.7539 31.454C69.5193 31.7327 69.3359 32.0627 69.2039 32.444C69.0719 32.8253 69.0059 33.2433 69.0059 33.698C69.0059 34.1527 69.0719 34.5707 69.2039 34.952C69.3359 35.3333 69.5193 35.6633 69.7539 35.942C69.9886 36.206 70.2673 36.4113 70.5899 36.558C70.9273 36.7047 71.2939 36.778 71.6899 36.778C72.1593 36.778 72.6213 36.668 73.0759 36.448C73.5306 36.2133 73.8753 35.92 74.1099 35.568ZM88.8705 37.746C88.8705 38.1273 88.7385 38.4573 88.4745 38.736C88.2105 39 87.8879 39.132 87.5065 39.132C87.5065 39.132 87.4699 39.132 87.3965 39.132C87.3232 39.132 87.2865 39.132 87.2865 39.132C86.9492 39.132 86.6632 39.0147 86.4285 38.78C86.1939 38.5307 86.0765 38.2373 86.0765 37.9C85.7099 38.3253 85.2332 38.6627 84.6465 38.912C84.0599 39.1467 83.4145 39.264 82.7105 39.264C82.2852 39.264 81.8525 39.1907 81.4125 39.044C80.9725 38.8973 80.5765 38.6847 80.2245 38.406C79.8725 38.1127 79.5792 37.746 79.3445 37.306C79.1245 36.866 79.0145 36.3453 79.0145 35.744C79.0145 35.128 79.1245 34.6 79.3445 34.16C79.5792 33.72 79.8725 33.368 80.2245 33.104C80.5765 32.8253 80.9725 32.6273 81.4125 32.51C81.8525 32.378 82.2852 32.312 82.7105 32.312C83.4145 32.312 84.0599 32.422 84.6465 32.642C85.2479 32.862 85.7245 33.1847 86.0765 33.61V32.18C86.0765 31.6373 85.8639 31.2047 85.4385 30.882C85.0132 30.5593 84.4485 30.398 83.7445 30.398C83.3192 30.398 82.9085 30.4493 82.5125 30.552C82.1165 30.6547 81.7352 30.8307 81.3685 31.08C81.1925 31.1827 81.0239 31.234 80.8625 31.234C80.6132 31.234 80.3712 31.1387 80.1365 30.948C79.9165 30.7573 79.8065 30.4933 79.8065 30.156C79.8065 29.9653 79.8579 29.782 79.9605 29.606C80.1219 29.342 80.3785 29.1147 80.7305 28.924C81.0825 28.7333 81.4639 28.5793 81.8745 28.462C82.2999 28.3447 82.7179 28.2567 83.1285 28.198C83.5539 28.1393 83.9205 28.11 84.2285 28.11C84.8299 28.11 85.4092 28.176 85.9665 28.308C86.5239 28.44 87.0152 28.6673 87.4405 28.99C87.8805 29.298 88.2252 29.7087 88.4745 30.222C88.7385 30.7353 88.8705 31.3733 88.8705 32.136V37.746ZM86.0765 36.448V35.128C85.8419 34.82 85.5192 34.5927 85.1085 34.446C84.7125 34.2847 84.2872 34.204 83.8325 34.204C83.2752 34.204 82.7985 34.3433 82.4025 34.622C82.0212 34.9007 81.8305 35.2967 81.8305 35.81C81.8305 36.3087 82.0212 36.6973 82.4025 36.976C82.7985 37.24 83.2752 37.372 83.8325 37.372C84.2872 37.372 84.7125 37.2987 85.1085 37.152C85.5192 36.9907 85.8419 36.756 86.0765 36.448Z" fill="#5D748A"/>
</svg>
