<svg width="389" height="373" viewBox="0 0 389 373" fill="none" xmlns="http://www.w3.org/2000/svg">
<path d="M382.681 12.6288H6.30995C5.48056 12.6288 4.65931 12.4653 3.89317 12.1477C3.12703 11.83 2.43103 11.3644 1.84498 10.7775C1.25893 10.1907 0.794333 9.494 0.477755 8.72741C0.161176 7.96082 -0.00116844 7.13934 6.33032e-06 6.30995C6.33032e-06 4.63645 0.664802 3.03149 1.84815 1.84815C3.03149 0.664802 4.63645 6.33032e-06 6.30995 6.33032e-06H382.681C383.511 -0.00116844 384.332 0.161176 385.099 0.477755C385.865 0.794333 386.562 1.25893 387.149 1.84498C387.736 2.43103 388.201 3.12703 388.519 3.89317C388.837 4.65931 389 5.48056 389 6.30995C389.001 7.14009 388.839 7.9623 388.521 8.72947C388.204 9.49665 387.739 10.1937 387.152 10.7807C386.565 11.3677 385.868 11.8331 385.101 12.1502C384.333 12.4674 383.511 12.63 382.681 12.6288Z" fill="#D6D7DB"/>
<path opacity="0.2" d="M372.76 344.732H16.2397C14.3864 344.732 12.5513 345.097 10.8391 345.806C9.12685 346.515 7.57111 347.555 6.26064 348.865C3.61404 351.512 2.1272 355.102 2.1272 358.844C2.1272 360.697 2.49229 362.532 3.20162 364.244C3.91095 365.955 4.9506 367.511 6.26118 368.82C7.57177 370.13 9.12758 371.169 10.8397 371.877C12.5519 372.585 14.3868 372.949 16.2397 372.948H372.76C374.613 372.949 376.448 372.585 378.16 371.877C379.873 371.169 381.428 370.13 382.739 368.82C384.049 367.511 385.089 365.955 385.798 364.244C386.508 362.532 386.873 360.697 386.873 358.844C386.873 355.102 385.386 351.512 382.739 348.865C380.093 346.219 376.503 344.732 372.76 344.732Z" fill="black"/>
<path d="M50.122 15.4798C47.4943 7.72197 39.3969 5.26413 35.1604 6.70309C30.924 8.14204 25.7581 14.3626 28.6002 22.7908L50.122 15.4798Z" fill="#2C314E"/>
<path d="M50.118 15.4831L28.5967 22.7635L29.7652 26.2178L51.2865 18.9374L50.118 15.4831Z" fill="#444A6A"/>
<path opacity="0.1" d="M48.1647 360.319L29.7622 26.2229L51.2929 18.9387L194.5 360.319H48.1647Z" fill="#FFF500"/>
<path d="M338.878 15.4798C341.506 7.72197 349.603 5.26413 353.839 6.70309C358.076 8.14204 363.242 14.3626 360.4 22.7908L338.878 15.4798Z" fill="#2C314E"/>
<path d="M337.723 18.911L359.244 26.1914L360.413 22.7372L338.892 15.4568L337.723 18.911Z" fill="#444A6A"/>
<path opacity="0.1" d="M340.835 360.319L359.229 26.2229L337.707 18.9387L194.5 360.319H340.835Z" fill="#FFF500"/>
<path d="M206.298 19.922C206.298 11.4224 199.148 6.31006 194.5 6.31006C189.852 6.31006 182.702 10.7252 182.702 19.922H206.298Z" fill="#2C314E"/>
<path d="M206.298 19.9219H182.702V23.7114H206.298V19.9219Z" fill="#444A6A"/>
<path opacity="0.1" d="M194.5 360.319H113.382L182.702 23.7205H206.298L275.618 360.319H194.5Z" fill="#FFF500"/>
<path d="M36.9658 297.22H138.854V265.339H249.699V313.156H352.034V360.972H36.9658V297.22Z" fill="#CA684B"/>
<path opacity="0.1" d="M352.034 313.156H249.699V319.448H352.034V313.156Z" fill="black"/>
<path d="M249.69 265.339H138.854V360.972H249.69V265.339Z" fill="#FF8B5A"/>
<path d="M254.167 260.272H134.386V265.339H254.167V260.272Z" fill="#D35930"/>
<path d="M356.512 308.088H249.699V313.156H356.512V308.088Z" fill="#A14828"/>
<path d="M138.863 292.152H32.4971V297.22H138.863V292.152Z" fill="#A14828"/>
<path d="M32.488 292.152L50.3811 280.086H138.854V292.152H32.488Z" fill="#5E3E2F"/>
<path d="M134.386 260.272L152.27 248.206H236.283L254.167 260.272H134.386Z" fill="#5E3E2F"/>
<path d="M249.699 308.088V296.022H338.619L356.503 308.088H249.699Z" fill="#5E3E2F"/>
<path d="M203.706 291.393V335.187H188.941V302.529H181.433V291.393H203.706Z" fill="#FFFFFA"/>
<path d="M95.6322 340.523H76.5334V336.529L85.3309 327.597C87.4989 325.213 88.5829 323.319 88.5829 321.915C88.5829 320.777 88.326 319.912 87.8122 319.319C87.2984 318.726 86.5528 318.43 85.5753 318.43C84.6103 318.43 83.827 318.829 83.2255 319.628C82.624 320.414 82.3232 321.401 82.3232 322.587H75.9695C75.9695 320.965 76.3893 319.47 77.2289 318.103C78.0686 316.723 79.2341 315.646 80.7254 314.872C82.2167 314.097 83.8834 313.71 85.7256 313.71C88.6832 313.71 90.9578 314.369 92.5493 315.688C94.1534 317.008 94.9555 318.902 94.9555 321.371C94.9555 322.411 94.755 323.428 94.3539 324.42C93.9529 325.401 93.3263 326.435 92.4741 327.525C91.6345 328.602 90.2748 330.048 88.395 331.863L84.8609 335.803H95.6322V340.523Z" fill="#FFFFFA"/>
<path d="M300.552 337.112H303.507C305.848 337.112 307.019 336.008 307.019 333.799C307.019 332.939 306.74 332.241 306.183 331.703C305.625 331.154 304.838 330.879 303.822 330.879C302.992 330.879 302.268 331.112 301.648 331.578C301.041 332.043 300.737 332.623 300.737 333.315H294.474C294.474 331.942 294.871 330.718 295.664 329.643C296.457 328.569 297.553 327.733 298.953 327.136C300.366 326.527 301.914 326.222 303.599 326.222C306.61 326.222 308.977 326.885 310.699 328.211C312.421 329.536 313.282 331.357 313.282 333.673C313.282 334.796 312.923 335.859 312.204 336.862C311.498 337.853 310.463 338.659 309.101 339.28C310.538 339.781 311.665 340.545 312.483 341.572C313.301 342.587 313.71 343.847 313.71 345.351C313.71 347.68 312.78 349.543 310.922 350.94C309.063 352.337 306.623 353.035 303.599 353.035C301.828 353.035 300.18 352.713 298.656 352.068C297.144 351.411 295.998 350.51 295.218 349.363C294.437 348.205 294.047 346.892 294.047 345.423H300.347C300.347 346.223 300.682 346.916 301.351 347.501C302.02 348.086 302.844 348.378 303.822 348.378C304.925 348.378 305.805 348.086 306.462 347.501C307.118 346.904 307.447 346.145 307.447 345.226C307.447 343.913 307.106 342.981 306.424 342.432C305.743 341.883 304.801 341.608 303.599 341.608H300.552V337.112Z" fill="#FFFFFA"/>
<path opacity="0.1" d="M138.863 297.22H36.9658V303.512H138.863V297.22Z" fill="black"/>
<path opacity="0.1" d="M138.855 280.086H128.835V360.972H138.855V280.086Z" fill="black"/>
<path opacity="0.1" d="M259.718 296.022H249.699V360.972H259.718V296.022Z" fill="black"/>
<path opacity="0.1" d="M249.69 265.339H138.854V276.44H249.69V265.339Z" fill="black"/>
<path d="M156.408 209.712H156.22C155.509 209.712 154.827 209.429 154.324 208.927C153.821 208.424 153.539 207.742 153.539 207.031C153.539 206.319 153.821 205.637 154.324 205.135C154.827 204.632 155.509 204.349 156.22 204.349H156.283C157.03 204.367 157.758 204.118 158.338 203.647C158.917 203.176 159.31 202.513 159.444 201.779C159.579 201.044 159.447 200.285 159.072 199.639C158.698 198.993 158.105 198.502 157.4 198.254C144.467 192.838 142.412 166.4 142.206 163.397L142.027 160.546H168.724V165.909H147.783C148.739 174.453 151.984 190.183 159.402 193.293C160.982 193.93 162.339 195.02 163.301 196.426C164.263 197.832 164.788 199.491 164.809 201.194C164.816 203.435 163.937 205.589 162.364 207.184C160.79 208.78 158.649 209.688 156.408 209.712Z" fill="#FFB10F"/>
<path d="M232.19 209.712H232.378C233.089 209.712 233.771 209.429 234.274 208.927C234.776 208.424 235.059 207.742 235.059 207.031C235.059 206.319 234.776 205.637 234.274 205.135C233.771 204.632 233.089 204.349 232.378 204.349H232.315C231.568 204.367 230.84 204.118 230.26 203.647C229.68 203.176 229.288 202.513 229.153 201.779C229.019 201.044 229.151 200.285 229.525 199.639C229.9 198.993 230.493 198.502 231.198 198.254C244.131 192.838 246.186 166.4 246.392 163.397L246.571 160.546H219.865V165.909H240.77C239.814 174.453 236.569 190.183 229.151 193.293C227.571 193.93 226.214 195.02 225.252 196.426C224.29 197.832 223.765 199.491 223.744 201.194C223.737 203.443 224.622 205.603 226.205 207.2C227.789 208.797 229.941 209.7 232.19 209.712Z" fill="#FFB10F"/>
<path d="M201.9 239.545H186.733L189.414 208.925H199.219L201.9 239.545Z" fill="#FFB10F"/>
<path d="M219.865 250.163H168.795C171.546 246.064 175.264 242.704 179.621 240.382C183.978 238.059 188.839 236.845 193.776 236.846H194.84C199.784 236.838 204.655 238.048 209.02 240.371C213.385 242.694 217.11 246.057 219.865 250.163Z" fill="#FFCA0F"/>
<path d="M202.901 241.056H185.643V246.418H202.901V241.056Z" fill="#BF7406"/>
<path opacity="0.1" d="M185.643 241.056H195.957L194.277 246.418H185.643V241.056Z" fill="white"/>
<path opacity="0.1" d="M198.522 241.056L197.852 246.418H202.91V241.056H198.522Z" fill="white"/>
<path d="M219.838 250.163H168.795V254.248H219.838V250.163Z" fill="#C97B07"/>
<path d="M163.093 154.129H225.54V189.477C225.54 197.757 222.251 205.698 216.396 211.552C210.542 217.407 202.601 220.696 194.321 220.696C190.221 220.697 186.16 219.891 182.371 218.322C178.583 216.754 175.14 214.455 172.24 211.555C169.34 208.656 167.04 205.214 165.471 201.426C163.901 197.638 163.093 193.578 163.093 189.477V154.174V154.129Z" fill="#FFCA0F"/>
<path d="M227.301 148.713H161.333C159.837 148.713 158.625 149.925 158.625 151.421C158.625 152.916 159.837 154.129 161.333 154.129H227.301C228.797 154.129 230.009 152.916 230.009 151.421C230.009 149.925 228.797 148.713 227.301 148.713Z" fill="#FFB10F"/>
<path opacity="0.2" d="M216.924 162.879V193.499C216.924 195.742 220.419 195.751 220.419 193.499V162.879C220.419 160.626 216.924 160.626 216.924 162.879Z" fill="white"/>
<path opacity="0.2" d="M219.132 200.712C219.346 198.468 215.843 198.486 215.637 200.712C215.547 201.571 215.279 202.402 214.852 203.153C214.424 203.903 213.846 204.557 213.153 205.073C212.759 205.315 212.475 205.699 212.358 206.145C212.241 206.591 212.302 207.066 212.527 207.469C212.768 207.862 213.152 208.146 213.599 208.263C214.045 208.38 214.519 208.319 214.922 208.094L215.181 207.906C215.285 207.832 215.38 207.749 215.467 207.656C216.515 206.806 217.38 205.752 218.01 204.559C218.639 203.365 219.021 202.057 219.132 200.712Z" fill="white"/>
<path d="M170.449 154.129H209.774V195.108C209.774 200.323 207.703 205.324 204.015 209.011C200.328 212.699 195.327 214.771 190.112 214.771C184.897 214.771 179.896 212.699 176.208 209.011C172.521 205.324 170.449 200.323 170.449 195.108V154.129Z" fill="#FFDC01"/>
<path d="M61.6694 247.089H61.5086C60.8946 247.089 60.3058 246.845 59.8717 246.411C59.4376 245.977 59.1937 245.388 59.1937 244.774C59.1937 244.16 59.4376 243.571 59.8717 243.137C60.3058 242.703 60.8946 242.459 61.5086 242.459H61.5622C62.2365 242.54 62.9163 242.362 63.4644 241.961C64.0124 241.56 64.3879 240.966 64.515 240.299C64.642 239.631 64.5112 238.941 64.149 238.366C63.7867 237.792 63.22 237.377 62.5632 237.204C51.4091 232.529 49.6394 209.73 49.4696 207.147L49.2998 204.671H72.332V209.292H54.3049C55.1271 216.665 57.9246 230.232 64.3418 232.923C65.7066 233.468 66.8787 234.406 67.7093 235.619C68.54 236.831 68.9917 238.263 69.0072 239.733C69.0107 240.699 68.8235 241.655 68.4562 242.548C68.0889 243.441 67.5488 244.252 66.867 244.936C66.1851 245.619 65.375 246.161 64.483 246.531C63.5911 246.9 62.6349 247.09 61.6694 247.089Z" fill="#5F686F"/>
<path d="M127.11 247.089H127.271C127.885 247.089 128.474 246.845 128.908 246.411C129.342 245.977 129.586 245.388 129.586 244.774C129.586 244.16 129.342 243.571 128.908 243.137C128.474 242.703 127.885 242.459 127.271 242.459H127.218C126.549 242.524 125.881 242.336 125.344 241.931C124.808 241.527 124.443 240.936 124.322 240.275C124.2 239.614 124.331 238.932 124.689 238.363C125.046 237.795 125.604 237.381 126.252 237.204C137.415 232.53 139.185 209.73 139.346 207.147L139.507 204.689H116.484V209.31H134.511C133.68 216.683 130.891 230.25 124.465 232.941C123.101 233.486 121.93 234.425 121.101 235.638C120.272 236.851 119.822 238.282 119.808 239.751C119.806 240.712 119.993 241.665 120.359 242.554C120.724 243.443 121.262 244.251 121.94 244.932C122.618 245.614 123.423 246.155 124.311 246.525C125.198 246.895 126.149 247.087 127.11 247.089Z" fill="#5F686F"/>
<path d="M100.977 272.829H87.9014L90.2162 246.41H98.6622L100.977 272.829Z" fill="#727B84"/>
<path d="M116.457 281.981H72.3945C74.7671 278.443 77.9755 275.543 81.7356 273.54C85.4957 271.537 89.6916 270.492 93.952 270.496H94.8458C99.1153 270.483 103.322 271.524 107.092 273.528C110.862 275.531 114.079 278.435 116.457 281.981Z" fill="#D2D3D5"/>
<path d="M101.853 274.125H86.9629V278.755H101.853V274.125Z" fill="#5F686F"/>
<path opacity="0.1" d="M86.9629 274.125H95.8469L94.4079 278.755H86.9629V274.125Z" fill="white"/>
<path opacity="0.1" d="M98.0632 274.125L97.4912 278.755H101.853V274.125H98.0632Z" fill="white"/>
<path d="M116.448 281.981H72.4214V285.503H116.448V281.981Z" fill="#808893"/>
<path d="M67.5056 199.139H121.373V229.598C121.368 236.737 118.529 243.582 113.479 248.628C108.429 253.674 101.582 256.509 94.4435 256.509C87.3015 256.509 80.452 253.672 75.4019 248.622C70.3517 243.572 67.5146 236.722 67.5146 229.58V199.139H67.5056Z" fill="#D2D3D5"/>
<path d="M122.901 194.473H65.9863C64.698 194.473 63.6536 195.518 63.6536 196.806V196.815C63.6536 198.103 64.698 199.148 65.9863 199.148H122.901C124.189 199.148 125.234 198.103 125.234 196.815V196.806C125.234 195.518 124.189 194.473 122.901 194.473Z" fill="#808893"/>
<path opacity="0.2" d="M113.937 206.691V233.101C113.937 233.502 114.096 233.886 114.379 234.17C114.662 234.453 115.046 234.612 115.447 234.612C115.848 234.612 116.232 234.453 116.515 234.17C116.798 233.886 116.957 233.502 116.957 233.101V206.691C116.957 206.29 116.798 205.906 116.515 205.623C116.232 205.34 115.848 205.18 115.447 205.18C115.046 205.18 114.662 205.34 114.379 205.623C114.096 205.906 113.937 206.29 113.937 206.691Z" fill="white"/>
<path opacity="0.2" d="M115.849 239.322C116.028 237.392 113.016 237.409 112.828 239.322C112.753 240.063 112.524 240.781 112.157 241.428C111.789 242.076 111.29 242.64 110.692 243.085C110.357 243.296 110.114 243.626 110.013 244.01C109.911 244.393 109.959 244.8 110.147 245.149C110.35 245.494 110.681 245.744 111.067 245.846C111.454 245.948 111.865 245.894 112.212 245.695L112.435 245.534C112.526 245.469 112.61 245.394 112.685 245.31C113.59 244.578 114.337 243.669 114.88 242.64C115.424 241.611 115.754 240.482 115.849 239.322Z" fill="white"/>
<path opacity="0.2" d="M90.8059 251.459C86.3021 251.459 81.9828 249.67 78.7982 246.486C75.6136 243.301 73.8245 238.982 73.8245 234.478V199.139H107.787V234.496C107.783 238.996 105.991 243.311 102.807 246.492C99.6231 249.673 95.3066 251.459 90.8059 251.459Z" fill="white"/>
<path d="M270.398 262.765H270.228C269.617 262.765 269.03 262.522 268.598 262.09C268.165 261.657 267.922 261.071 267.922 260.459C267.921 260.156 267.98 259.855 268.095 259.574C268.211 259.293 268.38 259.038 268.595 258.823C268.809 258.608 269.063 258.437 269.344 258.321C269.624 258.204 269.925 258.145 270.228 258.145H270.282C270.959 258.157 271.616 257.919 272.129 257.478C272.642 257.036 272.974 256.42 273.062 255.749C273.117 255.142 272.973 254.532 272.65 254.014C272.327 253.496 271.844 253.098 271.274 252.88C260.084 248.179 258.297 225.37 258.154 222.787L258.002 220.33H281.025V224.959H262.998C263.82 232.324 266.618 245.891 273.044 248.581C274.405 249.131 275.573 250.071 276.402 251.283C277.23 252.494 277.682 253.924 277.7 255.392C277.708 256.356 277.526 257.313 277.163 258.207C276.799 259.1 276.263 259.913 275.584 260.599C274.905 261.284 274.098 261.828 273.208 262.2C272.318 262.572 271.363 262.764 270.398 262.765Z" fill="#BD6C1A"/>
<path d="M335.803 262.765H335.973C336.585 262.765 337.171 262.522 337.604 262.09C338.036 261.658 338.279 261.071 338.279 260.46C338.28 260.156 338.221 259.855 338.106 259.574C337.991 259.294 337.821 259.038 337.607 258.823C337.393 258.608 337.138 258.438 336.858 258.321C336.577 258.205 336.277 258.145 335.973 258.145H335.92C335.243 258.157 334.585 257.92 334.072 257.478C333.56 257.036 333.228 256.421 333.14 255.749C333.084 255.142 333.229 254.532 333.551 254.014C333.874 253.496 334.357 253.098 334.927 252.88C346.09 248.215 347.86 225.406 348.03 222.823L348.182 220.365H325.177V224.995H343.204C342.381 232.36 339.584 245.927 333.158 248.617C331.797 249.167 330.628 250.107 329.8 251.318C328.971 252.53 328.52 253.96 328.501 255.428C328.498 256.389 328.684 257.342 329.049 258.232C329.415 259.121 329.952 259.93 330.63 260.611C331.308 261.293 332.114 261.834 333.002 262.204C333.89 262.573 334.842 262.764 335.803 262.765Z" fill="#BD6C1A"/>
<path d="M309.679 288.47H296.594L298.909 262.05H307.364L309.679 288.47Z" fill="#A65F17"/>
<path d="M325.15 297.622H281.123C283.495 294.085 286.702 291.186 290.46 289.183C294.219 287.18 298.413 286.134 302.672 286.137H303.566C307.831 286.128 312.032 287.171 315.797 289.175C319.562 291.178 322.775 294.08 325.15 297.622Z" fill="#DA9246"/>
<path d="M310.546 289.775H295.656V294.405H310.546V289.775Z" fill="#BD6C1A"/>
<path opacity="0.1" d="M295.656 289.775H304.549L303.101 294.396H295.656V289.775Z" fill="white"/>
<path opacity="0.1" d="M306.765 289.775L306.184 294.396H310.546V289.775H306.765Z" fill="white"/>
<path d="M325.15 297.622H281.123V301.143H325.15V297.622Z" fill="#BD6C1A"/>
<path d="M303.137 272.177C299.597 272.18 296.091 271.486 292.82 270.134C289.548 268.782 286.576 266.798 284.071 264.296C281.567 261.794 279.58 258.824 278.225 255.554C276.87 252.284 276.172 248.779 276.172 245.239V214.788H330.066V245.239C330.067 248.776 329.371 252.279 328.018 255.547C326.666 258.815 324.682 261.785 322.181 264.286C319.681 266.788 316.712 268.772 313.444 270.126C310.176 271.48 306.674 272.177 303.137 272.177Z" fill="#DA9246"/>
<path d="M331.585 210.114H274.679C274.06 210.114 273.467 210.36 273.03 210.797C272.592 211.235 272.346 211.828 272.346 212.447C272.345 212.754 272.405 213.058 272.521 213.342C272.638 213.626 272.81 213.884 273.027 214.102C273.243 214.32 273.501 214.492 273.784 214.61C274.068 214.728 274.372 214.788 274.679 214.788H331.585C332.206 214.788 332.802 214.542 333.241 214.103C333.68 213.663 333.926 213.068 333.926 212.447C333.926 212.14 333.866 211.836 333.748 211.552C333.63 211.268 333.458 211.011 333.24 210.794C333.023 210.577 332.764 210.406 332.48 210.289C332.196 210.172 331.892 210.113 331.585 210.114Z" fill="#BD6C1A"/>
<path opacity="0.2" d="M322.647 222.332V248.742C322.676 249.122 322.848 249.476 323.127 249.734C323.406 249.993 323.773 250.137 324.153 250.137C324.534 250.137 324.9 249.993 325.179 249.734C325.459 249.476 325.63 249.122 325.659 248.742V222.332C325.63 221.952 325.459 221.598 325.179 221.339C324.9 221.081 324.534 220.937 324.153 220.937C323.773 220.937 323.406 221.081 323.127 221.339C322.848 221.598 322.676 221.952 322.647 222.332Z" fill="#FFBD68"/>
<path opacity="0.2" d="M324.542 254.972C324.73 253.041 321.709 253.05 321.521 254.972C321.446 255.713 321.217 256.43 320.849 257.078C320.482 257.726 319.983 258.29 319.385 258.735C319.048 258.944 318.804 259.275 318.704 259.66C318.604 260.044 318.656 260.452 318.849 260.799C319.052 261.144 319.383 261.394 319.77 261.494C320.157 261.595 320.568 261.538 320.913 261.335L321.137 261.175C321.223 261.11 321.304 261.038 321.378 260.96C322.281 260.226 323.027 259.317 323.57 258.288C324.114 257.26 324.445 256.132 324.542 254.972Z" fill="#FFBD68"/>
<path opacity="0.2" d="M299.508 267.1C295.004 267.1 290.685 265.311 287.5 262.126C284.315 258.942 282.526 254.622 282.526 250.119V214.788H316.489V250.137C316.485 254.637 314.693 258.952 311.509 262.133C308.325 265.313 304.008 267.1 299.508 267.1Z" fill="#FFBD68"/>
<path d="M217.318 146.237L215.745 145.343C214.323 144.565 213.154 143.396 212.375 141.974L211.481 140.401C211.455 140.35 211.415 140.308 211.366 140.278C211.317 140.249 211.261 140.233 211.204 140.233C211.147 140.233 211.091 140.249 211.042 140.278C210.994 140.308 210.954 140.35 210.927 140.401L210.033 141.974C209.255 143.396 208.086 144.565 206.664 145.343L205.091 146.237C205.04 146.263 204.998 146.303 204.968 146.352C204.939 146.401 204.923 146.457 204.923 146.514C204.923 146.571 204.939 146.627 204.968 146.676C204.998 146.725 205.04 146.765 205.091 146.791L206.664 147.685C208.085 148.46 209.255 149.626 210.033 151.045L210.927 152.627C210.956 152.676 210.996 152.715 211.045 152.743C211.093 152.771 211.148 152.786 211.204 152.786C211.26 152.786 211.315 152.771 211.364 152.743C211.412 152.715 211.453 152.676 211.481 152.627L212.375 151.045C213.154 149.626 214.323 148.46 215.745 147.685L217.318 146.791C217.368 146.765 217.41 146.725 217.44 146.676C217.47 146.627 217.485 146.571 217.485 146.514C217.485 146.457 217.47 146.401 217.44 146.352C217.41 146.303 217.368 146.263 217.318 146.237Z" fill="#FDD855"/>
<path d="M225.63 134.064L224.736 133.59C223.956 133.166 223.313 132.527 222.886 131.749L222.412 130.855C222.396 130.829 222.374 130.808 222.347 130.793C222.32 130.779 222.29 130.771 222.26 130.771C222.23 130.771 222.2 130.779 222.173 130.793C222.147 130.808 222.124 130.829 222.108 130.855L221.634 131.749C221.21 132.527 220.571 133.166 219.793 133.59L218.9 134.064C218.874 134.08 218.852 134.102 218.838 134.129C218.823 134.156 218.815 134.185 218.815 134.216C218.815 134.246 218.823 134.276 218.838 134.303C218.852 134.329 218.874 134.352 218.9 134.368L219.793 134.842C220.574 135.256 221.219 135.886 221.652 136.656L222.126 137.55C222.14 137.578 222.162 137.602 222.189 137.618C222.215 137.635 222.246 137.644 222.278 137.644C222.309 137.644 222.34 137.635 222.367 137.618C222.394 137.602 222.416 137.578 222.43 137.55L222.904 136.656C223.331 135.878 223.973 135.239 224.754 134.815L225.647 134.341C225.669 134.324 225.685 134.302 225.696 134.277C225.707 134.252 225.712 134.225 225.71 134.198C225.709 134.171 225.7 134.144 225.686 134.121C225.672 134.098 225.653 134.078 225.63 134.064Z" fill="#FDD855"/>
<path d="M104.409 195.912L102.827 195.018C101.406 194.246 100.239 193.079 99.4664 191.658L98.5726 190.076C98.5442 190.028 98.5037 189.988 98.4551 189.96C98.4065 189.932 98.3515 189.918 98.2956 189.918C98.2396 189.918 98.1846 189.932 98.136 189.96C98.0875 189.988 98.0469 190.028 98.0185 190.076L97.1247 191.658C96.3461 193.077 95.1767 194.244 93.7553 195.018L92.1733 195.912C92.1251 195.941 92.0852 195.981 92.0575 196.03C92.0297 196.078 92.0151 196.133 92.0151 196.189C92.0151 196.245 92.0297 196.3 92.0575 196.349C92.0852 196.397 92.1251 196.438 92.1733 196.466L93.7553 197.36C95.177 198.139 96.3462 199.308 97.1247 200.73L98.0185 202.303C98.045 202.353 98.0848 202.395 98.1337 202.425C98.1825 202.455 98.2385 202.47 98.2956 202.47C98.3526 202.47 98.4086 202.455 98.4575 202.425C98.5063 202.395 98.5461 202.353 98.5726 202.303L99.4664 200.73C100.239 199.306 101.406 198.136 102.827 197.36L104.409 196.466C104.457 196.438 104.497 196.397 104.525 196.349C104.552 196.3 104.567 196.245 104.567 196.189C104.567 196.133 104.552 196.078 104.525 196.03C104.497 195.981 104.457 195.941 104.409 195.912Z" fill="#FDD855"/>
<path d="M90.2696 183.9L89.3759 183.426C88.6163 182.996 87.996 182.357 87.5884 181.585L87.1147 180.692C87.0986 180.666 87.0763 180.644 87.0497 180.63C87.0231 180.615 86.9932 180.607 86.9627 180.607C86.9323 180.607 86.9024 180.615 86.8758 180.63C86.8492 180.644 86.8268 180.666 86.8108 180.692L86.3371 181.585C85.9118 182.365 85.269 183.005 84.487 183.426L83.5932 183.9C83.565 183.914 83.5413 183.936 83.5247 183.963C83.5081 183.99 83.4993 184.02 83.4993 184.052C83.4993 184.084 83.5081 184.115 83.5247 184.141C83.5413 184.168 83.565 184.19 83.5932 184.204L84.487 184.678C85.2675 185.105 85.9095 185.747 86.3371 186.528L86.8108 187.422C86.8249 187.45 86.8466 187.474 86.8734 187.49C86.9002 187.507 86.9312 187.516 86.9627 187.516C86.9943 187.516 87.0252 187.507 87.0521 187.49C87.0789 187.474 87.1006 187.45 87.1147 187.422L87.5884 186.528C88.0123 185.748 88.6514 185.105 89.4295 184.678L90.3233 184.204C90.347 184.184 90.3651 184.158 90.3757 184.128C90.3863 184.099 90.389 184.067 90.3836 184.037C90.3782 184.006 90.3648 183.977 90.3448 183.953C90.3248 183.929 90.2989 183.911 90.2696 183.9Z" fill="#FDD855"/>
<path d="M291.133 206.405L289.221 205.359C287.501 204.417 286.087 203.003 285.145 201.284L284.099 199.371C284.066 199.312 284.017 199.262 283.958 199.227C283.899 199.193 283.832 199.175 283.764 199.175C283.696 199.175 283.629 199.193 283.57 199.227C283.511 199.262 283.462 199.312 283.429 199.371L282.428 201.284C281.489 203.005 280.074 204.42 278.352 205.359L276.449 206.405C276.387 206.436 276.335 206.484 276.298 206.543C276.262 206.602 276.242 206.671 276.242 206.74C276.242 206.81 276.262 206.878 276.298 206.937C276.335 206.996 276.387 207.044 276.449 207.075L278.352 208.121C280.076 209.058 281.491 210.473 282.428 212.197L283.474 214.1C283.507 214.16 283.556 214.209 283.615 214.244C283.674 214.278 283.741 214.296 283.809 214.296C283.877 214.296 283.944 214.278 284.003 214.244C284.062 214.209 284.111 214.16 284.144 214.1L285.19 212.197C286.129 210.475 287.544 209.06 289.265 208.121L291.178 207.075C291.235 207.038 291.282 206.986 291.313 206.925C291.343 206.864 291.357 206.795 291.353 206.727C291.348 206.659 291.325 206.593 291.287 206.536C291.248 206.479 291.195 206.434 291.133 206.405Z" fill="#FDD855"/>
<path d="M293.529 218.506L294.422 218.006C295.245 217.552 295.92 216.873 296.371 216.048L296.871 215.155C296.888 215.127 296.911 215.104 296.94 215.088C296.968 215.072 297 215.064 297.032 215.064C297.064 215.064 297.096 215.072 297.125 215.088C297.153 215.104 297.176 215.127 297.193 215.155L297.693 216.048C298.144 216.873 298.82 217.552 299.642 218.006L300.536 218.506C300.563 218.523 300.586 218.547 300.602 218.575C300.618 218.603 300.627 218.635 300.627 218.667C300.627 218.7 300.618 218.731 300.602 218.76C300.586 218.788 300.563 218.811 300.536 218.828L299.642 219.32C298.82 219.774 298.144 220.453 297.693 221.277L297.193 222.171C297.176 222.199 297.153 222.221 297.125 222.237C297.096 222.253 297.064 222.262 297.032 222.262C297 222.262 296.968 222.253 296.94 222.237C296.911 222.221 296.888 222.199 296.871 222.171L296.371 221.277C295.92 220.453 295.245 219.774 294.422 219.32L293.529 218.828C293.498 218.813 293.473 218.791 293.455 218.762C293.437 218.734 293.428 218.701 293.428 218.667C293.428 218.634 293.437 218.601 293.455 218.572C293.473 218.544 293.498 218.521 293.529 218.506Z" fill="#FDD855"/>
</svg>
