<svg width="416" height="260" viewBox="0 0 416 260" fill="none" xmlns="http://www.w3.org/2000/svg">
<rect width="416" height="260" rx="40" fill="url(#paint0_linear)"/>
<mask id="mask0" mask-type="alpha" maskUnits="userSpaceOnUse" x="0" y="0" width="416" height="260">
<rect width="416" height="260" rx="40" fill="url(#paint1_linear)"/>
</mask>
<g mask="url(#mask0)">
<path opacity="0.95" d="M195.998 123.044C195.998 123.305 195.961 123.52 195.886 123.688L190.426 137.212C189.941 138.388 189.297 139.228 188.494 139.732C187.691 140.236 186.786 140.488 185.778 140.488C185.461 140.488 185.171 140.451 184.91 140.376C184.649 140.301 184.415 140.189 184.21 140.04C184.023 139.909 183.874 139.741 183.762 139.536C183.65 139.349 183.594 139.135 183.594 138.892C183.594 138.463 183.743 138.089 184.042 137.772C184.359 137.473 184.77 137.324 185.274 137.324C185.349 137.324 185.423 137.324 185.498 137.324C185.573 137.324 185.647 137.315 185.722 137.296C186.021 137.24 186.282 137.137 186.506 136.988C186.749 136.839 186.935 136.624 187.066 136.344L187.57 135.196L182.95 123.66C182.875 123.492 182.838 123.296 182.838 123.072C182.838 122.643 182.997 122.241 183.314 121.868C183.65 121.495 184.089 121.308 184.63 121.308C184.985 121.308 185.311 121.411 185.61 121.616C185.909 121.821 186.133 122.111 186.282 122.484L189.418 130.884L192.554 122.484C192.685 122.129 192.909 121.849 193.226 121.644C193.543 121.42 193.889 121.308 194.262 121.308C194.803 121.308 195.223 121.495 195.522 121.868C195.839 122.223 195.998 122.615 195.998 123.044ZM211.809 128.224C211.809 129.195 211.641 130.109 211.305 130.968C210.988 131.827 210.521 132.583 209.905 133.236C209.289 133.871 208.533 134.384 207.637 134.776C206.76 135.149 205.761 135.336 204.641 135.336C203.521 135.336 202.523 135.149 201.645 134.776C200.768 134.384 200.021 133.871 199.405 133.236C198.789 132.583 198.313 131.827 197.977 130.968C197.66 130.109 197.501 129.195 197.501 128.224C197.501 127.272 197.66 126.367 197.977 125.508C198.313 124.649 198.789 123.903 199.405 123.268C200.021 122.615 200.768 122.101 201.645 121.728C202.523 121.336 203.521 121.14 204.641 121.14C205.761 121.14 206.76 121.336 207.637 121.728C208.533 122.101 209.289 122.615 209.905 123.268C210.521 123.903 210.988 124.649 211.305 125.508C211.641 126.367 211.809 127.272 211.809 128.224ZM208.113 128.224C208.113 127.701 208.029 127.207 207.861 126.74C207.712 126.255 207.488 125.835 207.189 125.48C206.909 125.125 206.555 124.845 206.125 124.64C205.696 124.416 205.201 124.304 204.641 124.304C204.081 124.304 203.587 124.416 203.157 124.64C202.747 124.845 202.392 125.125 202.093 125.48C201.795 125.835 201.571 126.255 201.421 126.74C201.272 127.207 201.197 127.701 201.197 128.224C201.197 128.765 201.272 129.279 201.421 129.764C201.571 130.231 201.795 130.641 202.093 130.996C202.392 131.351 202.747 131.64 203.157 131.864C203.587 132.069 204.081 132.172 204.641 132.172C205.201 132.172 205.696 132.069 206.125 131.864C206.555 131.64 206.909 131.351 207.189 130.996C207.488 130.641 207.712 130.231 207.861 129.764C208.029 129.279 208.113 128.765 208.113 128.224ZM226.04 133.376C226.04 133.805 225.872 134.216 225.536 134.608C225.218 134.981 224.798 135.168 224.276 135.168C223.996 135.168 223.716 135.112 223.436 135C223.174 134.869 222.96 134.673 222.792 134.412L219.628 129.792L218.004 131.528V133.404C218.004 133.889 217.826 134.309 217.472 134.664C217.136 135 216.716 135.168 216.212 135.168C215.726 135.168 215.306 135 214.952 134.664C214.616 134.309 214.448 133.889 214.448 133.404V117.892C214.448 117.407 214.616 116.996 214.952 116.66C215.306 116.324 215.745 116.156 216.268 116.156C216.753 116.156 217.164 116.324 217.5 116.66C217.836 116.996 218.004 117.407 218.004 117.892V127.496L222.792 121.84C223.109 121.467 223.51 121.28 223.996 121.28C224.444 121.28 224.836 121.448 225.172 121.784C225.508 122.12 225.676 122.512 225.676 122.96C225.676 123.352 225.545 123.707 225.284 124.024L222.148 127.608L225.704 132.368C225.928 132.685 226.04 133.021 226.04 133.376ZM231.196 115.792C231.793 115.792 232.297 115.997 232.708 116.408C233.119 116.8 233.324 117.295 233.324 117.892C233.324 118.489 233.119 118.993 232.708 119.404C232.297 119.815 231.793 120.02 231.196 120.02C230.617 120.02 230.113 119.815 229.684 119.404C229.273 118.993 229.068 118.489 229.068 117.892C229.068 117.295 229.273 116.8 229.684 116.408C230.113 115.997 230.617 115.792 231.196 115.792ZM232.988 133.404C232.988 133.889 232.811 134.309 232.456 134.664C232.12 135 231.7 135.168 231.196 135.168C230.711 135.168 230.291 135 229.936 134.664C229.6 134.309 229.432 133.889 229.432 133.404V123.044C229.432 122.559 229.6 122.148 229.936 121.812C230.291 121.476 230.729 121.308 231.252 121.308C231.737 121.308 232.148 121.476 232.484 121.812C232.82 122.148 232.988 122.559 232.988 123.044V133.404Z" fill="white"/>
<path d="M209.037 95.66C209.037 96.356 208.785 96.956 208.281 97.46C207.777 97.964 207.165 98.216 206.445 98.216C205.749 98.216 205.149 97.964 204.645 97.46C204.141 96.956 203.889 96.356 203.889 95.66V87.92H192.549V95.696C192.549 96.392 192.297 96.992 191.793 97.496C191.289 97.976 190.677 98.216 189.957 98.216C189.261 98.216 188.661 97.976 188.157 97.496C187.677 96.992 187.437 96.392 187.437 95.696V76.292C187.437 75.596 187.689 75.008 188.193 74.528C188.697 74.024 189.309 73.772 190.029 73.772C190.725 73.772 191.313 74.024 191.793 74.528C192.297 75.008 192.549 75.596 192.549 76.292V83.42H203.889V76.292C203.889 75.596 204.141 75.008 204.645 74.528C205.149 74.024 205.773 73.772 206.517 73.772C207.213 73.772 207.801 74.024 208.281 74.528C208.785 75.008 209.037 75.596 209.037 76.292V95.66ZM228.673 95.948C228.673 96.572 228.457 97.112 228.025 97.568C227.593 98 227.065 98.216 226.441 98.216C226.441 98.216 226.381 98.216 226.261 98.216C226.141 98.216 226.081 98.216 226.081 98.216C225.529 98.216 225.061 98.024 224.677 97.64C224.293 97.232 224.101 96.752 224.101 96.2C223.501 96.896 222.721 97.448 221.761 97.856C220.801 98.24 219.745 98.432 218.593 98.432C217.897 98.432 217.189 98.312 216.469 98.072C215.749 97.832 215.101 97.484 214.525 97.028C213.949 96.548 213.469 95.948 213.085 95.228C212.725 94.508 212.545 93.656 212.545 92.672C212.545 91.664 212.725 90.8 213.085 90.08C213.469 89.36 213.949 88.784 214.525 88.352C215.101 87.896 215.749 87.572 216.469 87.38C217.189 87.164 217.897 87.056 218.593 87.056C219.745 87.056 220.801 87.236 221.761 87.596C222.745 87.956 223.525 88.484 224.101 89.18V86.84C224.101 85.952 223.753 85.244 223.057 84.716C222.361 84.188 221.437 83.924 220.285 83.924C219.589 83.924 218.917 84.008 218.269 84.176C217.621 84.344 216.997 84.632 216.397 85.04C216.109 85.208 215.833 85.292 215.569 85.292C215.161 85.292 214.765 85.136 214.381 84.824C214.021 84.512 213.841 84.08 213.841 83.528C213.841 83.216 213.925 82.916 214.093 82.628C214.357 82.196 214.777 81.824 215.353 81.512C215.929 81.2 216.553 80.948 217.225 80.756C217.921 80.564 218.605 80.42 219.277 80.324C219.973 80.228 220.573 80.18 221.077 80.18C222.061 80.18 223.009 80.288 223.921 80.504C224.833 80.72 225.637 81.092 226.333 81.62C227.053 82.124 227.617 82.796 228.025 83.636C228.457 84.476 228.673 85.52 228.673 86.768V95.948ZM224.101 93.824V91.664C223.717 91.16 223.189 90.788 222.517 90.548C221.869 90.284 221.173 90.152 220.429 90.152C219.517 90.152 218.737 90.38 218.089 90.836C217.465 91.292 217.153 91.94 217.153 92.78C217.153 93.596 217.465 94.232 218.089 94.688C218.737 95.12 219.517 95.336 220.429 95.336C221.173 95.336 221.869 95.216 222.517 94.976C223.189 94.712 223.717 94.328 224.101 93.824Z" fill="white"/>
<path d="M194.881 156.148C194.881 156.604 194.761 157.024 194.521 157.408L187.573 168.172V175.696C187.573 176.392 187.321 176.992 186.817 177.496C186.313 177.976 185.701 178.216 184.981 178.216C184.285 178.216 183.685 177.976 183.181 177.496C182.701 176.992 182.461 176.392 182.461 175.696V168.172L175.441 157.372C175.201 157.036 175.081 156.628 175.081 156.148C175.081 155.572 175.309 155.044 175.765 154.564C176.221 154.06 176.809 153.808 177.529 153.808C177.937 153.808 178.321 153.904 178.681 154.096C179.065 154.288 179.377 154.576 179.617 154.96L185.017 163.636L190.309 154.996C190.549 154.612 190.849 154.324 191.209 154.132C191.593 153.916 192.001 153.808 192.433 153.808C193.177 153.808 193.765 154.048 194.197 154.528C194.653 155.008 194.881 155.548 194.881 156.148ZM211.675 169.288C211.675 170.536 211.459 171.712 211.027 172.816C210.619 173.92 210.019 174.892 209.227 175.732C208.435 176.548 207.463 177.208 206.311 177.712C205.183 178.192 203.899 178.432 202.459 178.432C201.019 178.432 199.735 178.192 198.607 177.712C197.479 177.208 196.519 176.548 195.727 175.732C194.935 174.892 194.323 173.92 193.891 172.816C193.483 171.712 193.279 170.536 193.279 169.288C193.279 168.064 193.483 166.9 193.891 165.796C194.323 164.692 194.935 163.732 195.727 162.916C196.519 162.076 197.479 161.416 198.607 160.936C199.735 160.432 201.019 160.18 202.459 160.18C203.899 160.18 205.183 160.432 206.311 160.936C207.463 161.416 208.435 162.076 209.227 162.916C210.019 163.732 210.619 164.692 211.027 165.796C211.459 166.9 211.675 168.064 211.675 169.288ZM206.923 169.288C206.923 168.616 206.815 167.98 206.599 167.38C206.407 166.756 206.119 166.216 205.735 165.76C205.375 165.304 204.919 164.944 204.367 164.68C203.815 164.392 203.179 164.248 202.459 164.248C201.739 164.248 201.103 164.392 200.551 164.68C200.023 164.944 199.567 165.304 199.183 165.76C198.799 166.216 198.511 166.756 198.319 167.38C198.127 167.98 198.031 168.616 198.031 169.288C198.031 169.984 198.127 170.644 198.319 171.268C198.511 171.868 198.799 172.396 199.183 172.852C199.567 173.308 200.023 173.68 200.551 173.968C201.103 174.232 201.739 174.364 202.459 174.364C203.179 174.364 203.815 174.232 204.367 173.968C204.919 173.68 205.375 173.308 205.735 172.852C206.119 172.396 206.407 171.868 206.599 171.268C206.815 170.644 206.923 169.984 206.923 169.288ZM219.899 161.08C219.899 161.872 219.623 162.556 219.071 163.132C218.519 163.684 217.859 163.96 217.091 163.96C216.659 163.96 216.251 163.876 215.867 163.708C215.483 163.54 215.135 163.3 214.823 162.988C214.535 162.676 214.295 162.292 214.103 161.836C213.935 161.38 213.851 160.864 213.851 160.288C213.851 159.136 214.103 158.044 214.607 157.012C215.135 155.956 215.855 155.02 216.767 154.204C217.007 153.964 217.331 153.844 217.739 153.844C218.171 153.844 218.495 153.976 218.711 154.24C218.927 154.504 219.035 154.768 219.035 155.032C219.035 155.368 218.927 155.62 218.711 155.788C218.231 156.172 217.811 156.616 217.451 157.12C217.115 157.624 216.887 158.116 216.767 158.596C216.815 158.572 216.911 158.548 217.055 158.524C217.199 158.5 217.331 158.488 217.451 158.488C218.147 158.488 218.723 158.728 219.179 159.208C219.659 159.688 219.899 160.312 219.899 161.08ZM240.379 182.572C240.379 183.196 240.151 183.724 239.695 184.156C239.263 184.612 238.711 184.84 238.039 184.84C237.415 184.84 236.875 184.612 236.419 184.156C235.987 183.724 235.771 183.196 235.771 182.572V175.768C235.075 176.68 234.259 177.352 233.323 177.784C232.411 178.216 231.439 178.432 230.407 178.432C229.279 178.432 228.247 178.228 227.311 177.82C226.375 177.412 225.559 176.824 224.863 176.056C224.191 175.264 223.663 174.304 223.279 173.176C222.895 172.024 222.703 170.728 222.703 169.288C222.703 167.848 222.895 166.564 223.279 165.436C223.663 164.284 224.191 163.324 224.863 162.556C225.559 161.788 226.375 161.2 227.311 160.792C228.247 160.384 229.279 160.18 230.407 160.18C231.487 160.18 232.483 160.408 233.395 160.864C234.307 161.32 235.099 161.968 235.771 162.808V162.664C235.771 162.04 235.987 161.512 236.419 161.08C236.875 160.624 237.439 160.396 238.111 160.396C238.735 160.396 239.263 160.624 239.695 161.08C240.151 161.512 240.379 162.04 240.379 162.664V182.572ZM235.771 172.384V166.228C235.579 165.94 235.339 165.676 235.051 165.436C234.763 165.196 234.439 164.992 234.079 164.824C233.719 164.632 233.347 164.488 232.963 164.392C232.579 164.296 232.207 164.248 231.847 164.248C231.199 164.248 230.599 164.368 230.047 164.608C229.519 164.848 229.063 165.196 228.679 165.652C228.295 166.084 227.995 166.612 227.779 167.236C227.563 167.86 227.455 168.544 227.455 169.288C227.455 170.056 227.563 170.752 227.779 171.376C227.995 171.976 228.295 172.504 228.679 172.96C229.063 173.416 229.519 173.764 230.047 174.004C230.599 174.244 231.199 174.364 231.847 174.364C232.207 174.364 232.579 174.316 232.963 174.22C233.347 174.1 233.719 173.956 234.079 173.788C234.439 173.596 234.763 173.38 235.051 173.14C235.339 172.9 235.579 172.648 235.771 172.384Z" fill="white"/>
<path d="M50 187.119V187.555H80.3536L80.2346 187C70.1564 187 60.0782 187.079 50 187.119Z" fill="white"/>
<path d="M26.1001 187.957V266.397H104.13V187.72L26.1001 187.957Z" fill="#F2F2F2"/>
<path d="M104.13 266.397L107.075 264.498V189.049L104.13 187.72V266.397Z" fill="#505B75"/>
<path d="M102.611 189.809C102.611 190.378 102.183 190.806 101.613 190.806C101.043 190.806 100.616 190.331 100.616 189.809C100.616 189.239 101.043 188.811 101.613 188.811C102.136 188.764 102.611 189.239 102.611 189.809Z" fill="#C6C6C6"/>
<path d="M29.0446 189.809C29.0446 190.379 28.6172 190.806 28.0473 190.806C27.4774 190.806 27.0499 190.331 27.0499 189.809C27.0499 189.239 27.4774 188.812 28.0473 188.812C28.5697 188.764 29.0446 189.239 29.0446 189.809Z" fill="#C6C6C6"/>
<path d="M46.0944 222.951L38.638 227.32C38.638 227.32 46.4743 243.748 48.0891 251.963C48.0891 251.963 55.5929 234.347 91.5922 199.78L90.1675 198.308C90.1675 198.308 61.3395 219.295 51.366 236.484L46.0944 222.951Z" fill="#26B545"/>
<path d="M76.2995 176.087C76.252 176.087 76.2045 176.087 76.157 176.087C73.8773 175.992 54.5954 176.039 53.5505 176.087C53.5505 176.087 51.5084 176.182 48.6113 176.609C50.8435 182.544 46.7591 184.301 44.8119 184.729V187.91H81.1437L80.3838 183.969C76.9644 182.734 76.2995 178.936 76.2995 176.087Z" fill="#006AB0"/>
<path d="M76.2995 176.893C76.2995 176.608 76.252 176.371 76.252 176.086C76.2046 176.086 76.1571 176.086 76.1096 176.086C73.8299 175.991 54.548 176.039 53.5031 176.086C53.5031 176.086 51.4609 176.181 48.5639 176.608C48.6114 176.656 48.6114 176.751 48.6114 176.798C57.8724 176.798 67.086 176.846 76.2995 176.893Z" fill="white"/>
<path d="M49.2288 179.695C49.2288 179.979 49.2288 180.217 49.1813 180.454C58.4424 180.502 67.7509 180.549 77.012 180.549C76.8695 180.217 76.7745 179.884 76.6795 179.552C67.5135 179.552 58.3474 179.647 49.2288 179.695Z" fill="white"/>
<path d="M79.2916 183.446C68.6533 183.446 58.015 183.446 47.4241 183.541C47.0442 183.826 46.6167 184.063 46.1893 184.253C57.5875 184.3 69.0332 184.3 80.4314 184.3L80.384 184.015C79.9565 183.826 79.5766 183.636 79.2916 183.446Z" fill="white"/>
<g style="mix-blend-mode:multiply">
<path d="M57.16 194.272C59.6296 193.702 61.3868 191.66 58.4898 191.803C55.5927 191.898 54.168 193.797 53.788 193.702C53.5506 193.655 48.3739 190.473 44.147 187.909C41.6299 187.909 39.1603 187.909 36.6432 187.957C41.8199 191.186 51.1759 196.693 51.1759 196.693C51.1759 196.693 50.701 197.833 51.5559 199.305C51.5559 199.305 51.3659 206.095 52.6007 205.81C53.8355 205.525 52.9807 199.115 53.5506 200.255C54.1205 201.394 56.5426 206.285 57.3025 205.05C58.0624 203.816 54.1205 197.88 55.9727 199.305C57.7774 200.729 60.6744 203.531 61.2444 202.201C61.8143 200.872 55.4978 197.406 58.1573 197.88C60.8644 198.355 64.8538 198.735 63.0491 196.931C61.2918 195.079 54.6429 194.889 57.16 194.272Z" fill="#C6C6C6"/>
</g>
<path d="M95.8665 137.626C95.8665 137.626 111.397 139.905 114.864 160.512L111.872 164.548L109.402 158.993L111.112 165.973L106.885 168.584L104.89 162.174L105.84 168.584L99.5234 169.914C99.5234 169.914 99.8084 156.476 96.2465 151.396L95.8665 137.626Z" fill="#E08804"/>
<path opacity="0.3" d="M98.2888 156.524C100.568 150.921 100.663 144.558 99.2386 138.623C97.2439 137.816 95.9141 137.626 95.9141 137.626L96.2941 151.443C97.1489 152.725 97.8138 154.529 98.2888 156.524Z" fill="#E08804"/>
<path d="M58.9648 174.425C58.9648 174.425 57.2551 183.161 61.5769 183.731C65.8987 184.301 67.5135 176.656 67.3235 174.425H58.9648Z" fill="#EFCAA6"/>
<path d="M48.5642 176.609C45.3347 177.084 41.0128 177.986 37.2609 179.648C30.0895 182.829 30.9444 184.538 32.6067 185.868C34.2214 187.197 50.3214 196.694 50.3214 196.694C50.3214 196.694 49.8465 197.833 50.7013 199.305C50.7013 199.305 50.5113 206.095 51.7462 205.81C52.981 205.525 52.1261 199.115 52.696 200.255C53.2659 201.394 55.688 206.285 56.4479 205.051C57.2078 203.816 53.2659 197.881 55.1181 199.305C56.9228 200.73 59.8199 203.531 60.3898 202.202C60.9597 200.872 54.6432 197.406 57.3028 197.881C60.0099 198.356 63.9992 198.735 62.1945 196.931C60.3898 195.127 53.7408 194.937 56.2579 194.32C58.7276 193.75 60.4848 191.708 57.5877 191.851C54.6907 191.945 53.2659 193.845 52.886 193.75C52.506 193.655 37.8308 184.633 37.8308 184.633C37.8308 184.633 42.4376 182.544 44.7173 181.927V184.728C46.712 184.253 50.7963 182.544 48.5642 176.609Z" fill="#EFCAA6"/>
<path d="M48.1366 180.787C48.1366 180.787 47.9466 180.93 47.6616 181.072C47.3767 181.215 46.9493 181.405 46.5218 181.547C46.0944 181.689 45.667 181.784 45.3345 181.832C45.0021 181.879 44.7646 181.879 44.7646 181.879C44.7646 181.879 44.9546 181.737 45.2395 181.594C45.5245 181.452 45.9519 181.262 46.3793 181.12C46.8068 180.977 47.2342 180.882 47.5667 180.835C47.8991 180.787 48.1366 180.787 48.1366 180.787Z" fill="#C39368"/>
<path d="M120.23 145.413C120.515 144.558 124.267 139.667 123.317 138.908C122.367 138.148 119.755 143.703 118.995 143.229C118.235 142.754 119.85 134.872 117.95 135.964C116.051 137.008 117.096 143.466 116.146 142.849C115.196 142.184 114.531 134.539 113.059 135.869C111.634 137.198 115.148 144.036 113.724 143.751C112.299 143.466 110.304 142.564 108.832 143.466C107.36 144.321 112.679 144.796 113.154 146.172C113.629 147.502 113.534 148.072 113.534 148.072C113.534 148.072 107.597 159.183 98.4311 165.878C89.455 172.43 78.8641 176.086 76.2995 176.134C76.2995 179.03 77.0119 182.781 80.3839 184.063L79.624 180.075C79.624 180.075 101.281 178.508 117.998 147.739C117.998 147.739 118.853 148.024 119.613 147.17C119.613 147.17 125.359 146.6 125.359 145.46C125.312 144.273 119.945 146.267 120.23 145.413Z" fill="#EFCAA6"/>
<path d="M78.8165 177.037C78.8165 177.037 78.959 177.274 79.1015 177.606C79.244 177.939 79.3865 178.414 79.5289 178.888C79.6239 179.363 79.7189 179.838 79.7664 180.218C79.8139 180.598 79.7664 180.835 79.7664 180.835C79.7664 180.835 79.6239 180.598 79.4814 180.265C79.339 179.933 79.1965 179.458 79.1015 178.983C79.0065 178.508 78.9115 178.034 78.864 177.654C78.8165 177.274 78.8165 177.037 78.8165 177.037Z" fill="#C39368"/>
<g style="mix-blend-mode:multiply">
<path d="M56.9701 183.114C60.4845 183.588 64.0939 183.541 67.6084 182.924C74.5898 181.642 81.1912 178.27 85.893 173C81.3812 174.994 77.6293 176.086 76.252 176.086C76.2045 176.086 76.1571 176.086 76.1096 176.086C75.1597 176.039 71.4078 176.039 67.2284 176.039C67.3234 175.421 67.3234 174.852 67.2759 174.472H58.9173C58.9173 174.472 58.7748 175.089 58.6798 176.039C55.8777 176.039 53.7881 176.086 53.4556 176.086C53.4556 176.086 51.4134 176.181 48.5164 176.608C47.3291 176.798 45.9518 177.036 44.527 177.321C47.519 180.929 52.5058 182.496 56.9701 183.114Z" fill="#D4D4D4"/>
</g>
<path d="M32.6065 138.813C32.6065 138.813 27.7147 136.723 20.3059 142.754C12.897 148.784 10 161.177 10 161.177L12.1372 162.411C12.1372 162.411 16.079 154.197 19.6885 150.778C19.6885 150.778 14.6068 158.375 13.5619 163.931C13.5619 163.931 18.0262 165.64 19.831 165.782C19.831 165.782 21.6832 156.856 23.0605 155.052C23.0605 155.052 21.0658 162.601 21.2557 166.495C21.2557 166.495 25.1501 167.634 28.2371 167.207C28.2371 167.207 27.4298 156.144 32.179 149.211L32.6065 138.813Z" fill="#E08804"/>
<path opacity="0.3" d="M28.997 138.575C28.3321 140.475 27.9046 142.564 27.7147 144.131C27.2872 147.122 27.1448 150.114 27.5722 153.105C27.8572 155.004 28.2371 156.856 28.807 158.66C29.3294 155.526 30.3268 152.013 32.274 149.211L32.6539 138.765C32.6064 138.813 31.2766 138.243 28.997 138.575Z" fill="#E08804"/>
<path d="M98.1935 143.941C95.9139 122.906 73.0224 104.531 47.7089 119.393C47.7089 119.393 32.3213 126.658 29.7093 144.986C27.0972 163.314 36.8806 170.341 41.7724 171.575C41.7724 171.575 33.7936 162.554 36.2157 147.122C36.2157 147.122 42.0573 147.645 50.5585 147.929C51.1284 144.606 52.5532 138.765 56.0676 135.109C56.0676 135.109 52.7431 140.855 52.5532 147.977C55.7352 148.072 59.2496 148.072 62.954 148.024C63.049 145.175 63.5239 140.38 65.5661 136.296C65.5661 136.296 64.5213 142.089 64.5213 147.977C69.8879 147.882 75.5396 147.55 81.0012 146.932C81.0487 144.558 81.0012 140.95 80.2888 137.626C80.2888 137.626 81.9036 141.852 82.8534 146.695C85.6555 146.363 88.3625 145.888 90.9271 145.365C90.9271 145.365 92.2569 156.191 87.5552 167.634C87.6976 167.445 87.7451 167.302 87.7451 167.302C87.7451 167.302 100.283 163.171 98.1935 143.941Z" fill="#F39F00"/>
<path d="M91.0223 145.413C88.4102 145.935 85.7031 146.41 82.9485 146.742C81.9987 141.899 80.3839 137.673 80.3839 137.673C81.0963 140.997 81.1438 144.653 81.0963 146.98C75.6347 147.597 69.9831 147.929 64.6164 148.024C64.6164 142.136 65.6612 136.344 65.6612 136.344C63.5716 140.427 63.1441 145.223 63.0491 148.072C59.3922 148.119 55.8778 148.119 52.6483 148.024C52.8382 140.902 56.1627 135.157 56.1627 135.157C52.6483 138.813 51.176 144.605 50.6536 147.977C42.1999 147.739 36.3108 147.169 36.3108 147.169C35.9309 149.496 35.8359 151.68 35.8834 153.722C35.9784 157.236 36.5483 160.227 37.3557 162.791C39.1129 168.536 41.915 171.67 41.915 171.67C41.915 171.67 50.4161 181.974 66.6586 179.79C81.1913 177.843 86.7479 169.534 87.7453 167.777C88.5052 165.877 89.1226 164.026 89.5975 162.221C90.3099 159.467 90.7373 156.903 90.9748 154.624C91.4497 149.116 91.0223 145.413 91.0223 145.413Z" fill="#F4D9BF"/>
<path d="M41.8198 129.316C41.2974 129.886 40.775 130.504 40.3001 131.121C39.8252 131.738 39.3502 132.403 38.8753 133.02L38.2104 134.017L37.593 135.014C37.2131 135.679 36.7856 136.391 36.4532 137.104C36.2632 137.436 36.0733 137.816 35.9308 138.148L35.4558 139.24L35.0284 140.332C34.8859 140.712 34.7435 141.092 34.6485 141.472C34.506 141.852 34.411 142.232 34.2685 142.611L33.9836 143.751C33.8886 144.131 33.7936 144.511 33.6986 144.891L33.4612 146.078L33.4137 145.935C33.6036 146.078 33.8411 146.22 34.0786 146.363C34.316 146.505 34.5535 146.6 34.791 146.695C35.0284 146.79 35.2659 146.885 35.5508 146.932C35.7883 147.027 36.0732 147.027 36.3107 147.122C36.0258 147.075 35.7883 147.122 35.5033 147.027C35.2184 146.98 34.9809 146.932 34.7435 146.837C34.506 146.742 34.221 146.647 33.9836 146.552C33.7461 146.457 33.5087 146.315 33.2712 146.173L33.1762 146.125V146.03L33.3662 144.843C33.4137 144.463 33.4612 144.036 33.5561 143.656L33.7936 142.469C33.8886 142.089 34.0311 141.709 34.1261 141.329C34.221 140.95 34.3635 140.57 34.506 140.19L34.9334 139.05L35.4084 137.958C35.5508 137.578 35.7408 137.246 35.9308 136.866C36.1207 136.534 36.3107 136.154 36.5007 135.822C36.6907 135.489 36.9281 135.109 37.1181 134.777L37.783 133.78L38.4954 132.83C38.9703 132.213 39.4927 131.548 40.0626 130.978C40.6325 130.409 41.2024 129.791 41.8198 129.316Z" fill="#CC6809"/>
<path d="M88.4103 129.316C88.6477 129.554 88.8852 129.839 89.0752 130.076C89.2651 130.361 89.4551 130.646 89.6451 130.931C90.025 131.501 90.31 132.118 90.6424 132.735L91.0698 133.637C91.2123 133.97 91.3548 134.255 91.4973 134.587C91.6398 134.919 91.7347 135.204 91.8772 135.537C92.0197 135.869 92.1147 136.201 92.2097 136.534C92.3047 136.866 92.4471 137.198 92.4946 137.531L92.7796 138.528L93.017 139.525C93.112 139.857 93.1595 140.19 93.207 140.522L93.3495 141.519L93.4445 142.564C93.492 143.229 93.492 143.941 93.492 144.606V144.701L93.397 144.748C92.6371 144.938 91.8297 145.175 91.0698 145.365C91.8297 145.033 92.5421 144.748 93.302 144.463L93.207 144.606C93.1595 143.941 93.112 143.276 93.017 142.611L92.8746 141.614L92.6846 140.617C92.6371 140.285 92.5421 139.952 92.4946 139.62L92.2572 138.623L91.9722 137.626C91.8772 137.293 91.7822 136.961 91.6872 136.676C91.5923 136.344 91.4973 136.011 91.3548 135.727C91.2598 135.394 91.1648 135.062 91.0224 134.777C90.7849 134.16 90.5474 133.495 90.2625 132.878C89.9775 132.26 89.6926 131.643 89.4076 131.026C89.2651 130.741 89.1227 130.409 88.9327 130.124C88.7427 129.839 88.6477 129.554 88.4103 129.316Z" fill="#CC6809"/>
<path d="M69.983 152.345C69.983 152.345 71.2178 150.256 72.6425 150.636C74.0673 151.016 74.5897 152.345 74.7797 152.915C75.0172 153.485 73.07 150.826 69.983 152.345Z" fill="#CC6809"/>
<path d="M48.3738 153.057C48.3738 153.057 49.6086 150.968 51.0334 151.348C52.4582 151.728 52.9806 153.057 53.1705 153.627C53.408 154.197 51.4608 151.538 48.3738 153.057Z" fill="#CC6809"/>
<path d="M53.028 169.106C53.028 169.106 61.9091 175.089 72.8799 168.679C72.8799 168.679 70.8377 176.941 62.9064 177.131C54.9277 177.321 53.028 169.106 53.028 169.106Z" fill="white"/>
<path d="M61.8141 163.124C61.8141 163.124 61.7192 163.124 61.5767 163.124C61.4342 163.124 61.1967 163.124 60.9593 163.171C60.8643 163.219 60.7218 163.266 60.6268 163.314C60.5318 163.409 60.4843 163.503 60.3894 163.598C60.3894 163.646 60.3419 163.741 60.3419 163.788C60.3419 163.883 60.2944 163.978 60.3419 164.026C60.3419 164.121 60.3894 164.263 60.4843 164.406C60.5793 164.548 60.6743 164.643 60.7693 164.786C60.8643 164.88 61.0068 165.023 61.1492 165.118C61.2917 165.213 61.3867 165.308 61.5292 165.403C61.6717 165.498 61.7666 165.545 61.9091 165.64C62.1466 165.783 62.3366 165.878 62.479 165.925C62.6215 165.973 62.7165 165.973 62.7165 165.973C62.7165 165.973 62.6215 166.02 62.479 166.02C62.2891 166.02 62.0516 166.02 61.7666 165.925C61.4817 165.83 61.1492 165.735 60.8643 165.545C60.7218 165.45 60.5318 165.355 60.3894 165.213C60.2469 165.07 60.1044 164.928 60.0094 164.738C59.9144 164.548 59.8194 164.358 59.8194 164.073C59.8194 163.931 59.8669 163.883 59.8669 163.788C59.9144 163.646 59.9619 163.598 60.0094 163.456C60.1044 163.266 60.2944 163.124 60.4368 163.029C60.6268 162.934 60.7693 162.886 60.9593 162.886C61.2917 162.886 61.4817 162.981 61.6717 163.029C61.7666 163.076 61.8141 163.124 61.8141 163.124Z" fill="#C39368"/>
<path d="M32.9862 153.77C29.7092 155.052 31.039 162.506 37.2605 162.696C36.4532 160.18 35.8833 157.141 35.7883 153.627C35.1234 153.39 34.221 153.295 32.9862 153.77Z" fill="#EFCAA6"/>
<path d="M93.9665 153.769C92.6842 153.532 91.6394 153.912 90.8795 154.482C90.642 156.761 90.2146 159.372 89.5022 162.079C90.4046 162.079 91.4494 161.936 92.6367 161.556C96.5311 160.464 97.101 154.434 93.9665 153.769Z" fill="#EFCAA6"/>
<path d="M32.6062 157.188C32.6062 157.188 32.9387 157.093 33.4611 157.141C33.6986 157.141 34.031 157.188 34.316 157.283C34.6009 157.378 34.9334 157.521 35.2183 157.711C35.5033 157.901 35.7882 158.138 35.9782 158.375C36.0732 158.518 36.1682 158.613 36.2632 158.755C36.3582 158.898 36.4056 158.993 36.4531 159.135C36.5481 159.373 36.5956 159.61 36.5956 159.752C36.5956 159.895 36.5956 159.99 36.5956 159.99C36.5956 159.99 36.5481 159.942 36.4531 159.8C36.4056 159.752 36.3581 159.657 36.3107 159.562C36.2632 159.468 36.1682 159.42 36.1207 159.278C36.0732 159.183 35.9782 159.088 35.8832 158.993C35.7882 158.898 35.6933 158.803 35.5983 158.708C35.5033 158.613 35.3608 158.518 35.2658 158.423C35.1708 158.328 35.0284 158.233 34.8859 158.185C34.7434 158.091 34.6484 158.043 34.5059 157.948C34.3635 157.901 34.221 157.806 34.126 157.758C33.8411 157.616 33.6036 157.521 33.3661 157.426C32.8912 157.283 32.6062 157.188 32.6062 157.188Z" fill="#C39368"/>
<path d="M93.8717 157.9C93.8717 157.9 93.5867 157.805 93.1593 157.805C93.0643 157.805 92.9218 157.805 92.8268 157.853C92.7318 157.853 92.5894 157.9 92.4944 157.948C92.2569 158.043 92.0195 158.138 91.782 158.28C91.687 158.328 91.5445 158.423 91.4496 158.518C91.3546 158.613 91.2121 158.708 91.1646 158.803C91.0696 158.897 90.9746 158.992 90.8796 159.087C90.7847 159.182 90.6897 159.277 90.6422 159.325C90.4997 159.467 90.3572 159.61 90.2622 159.705C90.1673 159.8 90.1198 159.847 90.1198 159.847C90.1198 159.847 90.1198 159.752 90.1672 159.657C90.1672 159.61 90.2147 159.515 90.2622 159.42C90.3097 159.325 90.3097 159.23 90.4047 159.135C90.4997 158.945 90.6422 158.66 90.8322 158.47C90.9271 158.375 91.0221 158.233 91.1646 158.138C91.2596 158.043 91.4021 157.9 91.5445 157.853C91.687 157.758 91.8295 157.71 91.972 157.615C92.1145 157.568 92.3044 157.52 92.4469 157.473C92.5894 157.473 92.7793 157.426 92.9218 157.473C93.0643 157.473 93.2068 157.52 93.3018 157.568C93.6817 157.663 93.8717 157.9 93.8717 157.9Z" fill="#C39368"/>
<path d="M54.2154 160.417C54.3104 162.174 53.7405 163.598 52.9331 163.646C52.1732 163.693 51.4608 162.269 51.4134 160.512C51.3184 158.755 51.8883 157.331 52.6957 157.283C53.4555 157.283 54.1679 158.66 54.2154 160.417Z" fill="#673121"/>
<path d="M52.6007 159.182C52.6007 159.705 52.3632 160.132 52.1257 160.132C51.8883 160.132 51.6983 159.705 51.7458 159.135C51.7458 158.613 51.9833 158.185 52.2207 158.185C52.4582 158.185 52.6007 158.66 52.6007 159.182Z" fill="white"/>
<path d="M73.9247 159.087C74.0197 160.844 73.4498 162.269 72.6424 162.316C71.8825 162.364 71.1702 160.939 71.1227 159.182C71.0277 157.425 71.5976 156.001 72.4049 155.953C73.1648 155.953 73.8297 157.33 73.9247 159.087Z" fill="#673121"/>
<path d="M72.2625 157.853C72.2625 158.375 72.0251 158.802 71.7876 158.802C71.5502 158.802 71.4077 158.375 71.4077 157.805C71.4077 157.283 71.6451 156.856 71.8826 156.856C72.1201 156.856 72.2625 157.283 72.2625 157.853Z" fill="white"/>
<path d="M50.8433 165.973C50.8433 166.97 48.8487 167.777 46.4265 167.777C44.0044 167.777 42.0097 166.97 42.0097 165.925C42.0097 164.928 44.0044 164.121 46.4265 164.121C48.8961 164.121 50.8433 164.976 50.8433 165.973Z" fill="#F9CBC0"/>
<path d="M84.1356 164.168C84.1356 165.165 82.1409 165.973 79.7187 165.973C77.2966 165.973 75.3019 165.165 75.3019 164.121C75.3019 163.124 77.2966 162.269 79.7187 162.316C82.1409 162.316 84.1356 163.124 84.1356 164.168Z" fill="#F9CBC0"/>
<path d="M48.8013 147.882C49.3712 147.882 49.9411 147.93 50.5585 147.93C51.1284 144.606 52.5532 138.766 56.0677 135.109C51.8883 137.578 49.6562 144.511 48.8013 147.882Z" fill="#CC6809"/>
<path d="M62.9541 148.025C63.049 145.176 63.524 140.38 65.5661 136.297C62.2892 139.62 61.2918 145.461 61.0069 148.025C61.6717 148.025 62.2892 148.025 62.9541 148.025Z" fill="#CC6809"/>
<path d="M77.0118 147.36C78.3416 147.265 79.7189 147.123 81.0487 146.98C81.0962 144.653 81.0487 141.092 80.3838 137.816C78.959 133.97 77.2018 131.596 77.2018 131.596C79.0065 137.151 77.7242 144.369 77.0118 147.36Z" fill="#CC6809"/>
<path d="M44.7644 186.865V187.909H81.0962L80.8588 186.722C68.8432 186.675 56.78 186.722 44.7644 186.865Z" fill="#D4D4D4"/>
<path d="M151.552 67.2644C151.593 72.71 150.463 78.317 147.719 83.0768C146.711 84.892 145.541 87.393 143.644 88.4821C141.95 89.4502 140.013 89.4098 138.117 89.4502C131.984 89.5712 125.892 88.9661 119.759 88.5224C118.992 90.2973 117.782 91.8301 116.249 93.4839C113.344 96.5496 109.955 98.9699 106.162 100.906C105.476 101.229 104.831 101.592 104.145 101.915C100.554 103.367 96.9631 104.859 93.2916 106.069C90.9111 106.836 88.571 107.32 86.1099 107.683C85.9082 107.723 85.7468 107.763 85.545 107.804C85.7871 107.683 86.0695 107.562 86.3116 107.4C87.6834 106.795 89.1359 106.11 90.3866 105.303C92.2426 104.415 94.0582 103.407 95.7931 102.237C98.4963 100.382 101.24 98.1228 102.813 95.1781C103.661 93.605 104.468 91.8301 104.508 89.9746C104.508 89.4905 104.468 89.0468 104.347 88.6031C98.577 91.3057 92.8074 93.8873 86.5537 95.4202C83.4874 96.1866 80.0579 95.9849 76.8302 95.1781C71.1413 93.7663 62.4264 73.8395 62.0633 70.5318C61.7405 67.4661 62.6281 64.7635 65.291 63.029C68.317 61.0524 71.7061 59.5599 75.0146 58.1885C86.594 53.3883 98.9805 51.1697 111.448 50.3226C122.987 49.5965 135.494 49.6772 146.025 55.1228C147.961 56.0909 150.18 57.2607 150.826 59.5196C151.552 61.9802 151.552 64.6828 151.552 67.2644ZM80.7438 91.9914C79.5737 91.6687 78.5247 91.4671 77.4757 90.7813C76.5881 90.1763 75.6601 88.6434 75.0952 87.756C73.6428 85.3357 72.2306 82.8751 70.8992 80.3339C69.7291 78.1556 68.7205 75.8967 67.6715 73.6781C66.0173 70.1688 64.8068 66.9417 67.5908 63.6341C67.6715 63.513 67.5504 63.3517 67.4294 63.4727C65.6138 65.1669 64.7262 66.7401 64.8875 69.241C65.1296 72.468 67.1873 75.8564 68.5187 78.68C70.1326 82.1087 71.9886 85.3761 74.0059 88.6031C75.6198 91.225 77.4757 92.3545 80.5017 92.5965C80.8245 92.6368 81.0666 92.1125 80.7438 91.9914ZM103.096 85.5374C96.8421 87.7963 90.8708 90.3779 84.375 92.0318C85.6257 91.9511 86.8361 91.8704 88.0465 91.6687C93.3319 90.4183 98.3349 88.3207 103.096 85.5374ZM105.678 85.7794C105.638 85.6988 105.476 85.7794 105.517 85.9005C106.727 89.6115 105.275 93.6453 103.54 96.953C101.563 100.664 97.649 102.802 94.0178 104.496C93.8968 104.577 93.9371 104.778 94.0985 104.738C101.2 102.318 109.874 94.0083 105.678 85.7794Z" fill="#47AD5D"/>
<path d="M93.332 77.5106V71.8229L88.9746 63.6344H92.5654L93.9776 66.9824C94.4214 67.9909 94.7038 68.7169 95.0669 69.6447H95.1073C95.43 68.7976 95.7528 67.9909 96.1563 66.9824L97.5684 63.6344H101.079L96.5194 71.7019V77.4702H93.332V77.5106Z" fill="white"/>
<path d="M110.439 71.6612H105.355V74.9689H111.044V77.5505H102.168V63.634H110.721V66.2156H105.315V69.0796H110.399V71.6612H110.439Z" fill="white"/>
<path d="M113.263 74.2831C114.11 74.7268 115.402 75.1302 116.733 75.1302C118.185 75.1302 118.952 74.5251 118.952 73.6377C118.952 72.7906 118.307 72.2662 116.612 71.7015C114.312 70.8947 112.819 69.6039 112.819 67.6274C112.819 65.2474 114.796 63.4323 118.064 63.4323C119.638 63.4323 120.768 63.755 121.615 64.118L120.929 66.6593C120.364 66.3769 119.396 66.0139 118.024 66.0139C116.652 66.0139 116.007 66.6189 116.007 67.345C116.007 68.2324 116.773 68.6358 118.589 69.2812C121.05 70.1686 122.18 71.4595 122.18 73.436C122.18 75.7756 120.405 77.7521 116.572 77.7521C114.998 77.7521 113.425 77.3488 112.658 76.905L113.263 74.2831Z" fill="white"/>
<path d="M123.834 75.8564C123.834 74.7672 124.601 74.0008 125.69 74.0008C126.779 74.0008 127.505 74.7672 127.505 75.8564C127.505 76.9455 126.779 77.7119 125.69 77.7119C124.56 77.7522 123.834 76.9455 123.834 75.8564ZM124.479 72.952L123.995 63.634H127.263L126.82 72.952H124.479Z" fill="white"/>
<path d="M398.391 275.159L401.763 272.983V186.576L398.391 185.053V275.159Z" fill="#505B75"/>
<path d="M309.027 185.326V275.16H398.391V185.054L309.027 185.326Z" fill="#F2F2F2"/>
<path d="M382.618 210.883L374.513 203.542L354.661 225.565L332.578 199.572L323.93 206.206L349.385 231.384L324.311 259.171L326.214 260.639L354.117 236.006L378.158 259.824L381.258 256.887L359.501 231.275L382.618 210.883Z" fill="#FF1B28"/>
<path d="M397.466 187.826C397.466 188.479 396.977 188.968 396.324 188.968C395.671 188.968 395.182 188.424 395.182 187.826C395.182 187.174 395.671 186.684 396.324 186.684C396.977 186.684 397.466 187.228 397.466 187.826Z" fill="#C6C6C6"/>
<path d="M313.215 187.826C313.215 188.479 312.725 188.968 312.073 188.968C311.42 188.968 310.93 188.425 310.93 187.826C310.93 187.174 311.474 186.684 312.073 186.684C312.671 186.684 313.215 187.228 313.215 187.826Z" fill="#C6C6C6"/>
<path d="M340.138 166.999C340.084 166.945 333.938 162.975 324.093 173.253L330.348 177.875C330.402 177.821 333.285 170.643 340.138 166.999Z" fill="#11B1C8"/>
<path d="M328.009 176.135L330.348 177.875C330.348 177.875 333.176 170.86 339.866 167.163C335.243 169.011 331.381 172.274 328.009 176.135Z" fill="#149DB1"/>
<path d="M369.618 171.132C359.61 168.902 340.138 166.945 340.138 166.945C333.285 170.588 330.402 177.821 330.402 177.821V185.27H372.555V180.376L372.882 180.92C371.304 178.419 369.618 171.132 369.618 171.132Z" fill="#F9CA29"/>
<path d="M330.402 184.238V185.271H372.555V184.129C358.468 184.129 344.435 184.183 330.402 184.238Z" fill="#F6B92B"/>
<path d="M383.216 179.724C383.216 179.724 380.931 174.776 373.317 172.166C372.338 171.839 371.087 171.513 369.618 171.187C369.618 171.187 371.304 178.473 372.882 180.975L374.948 184.292C374.948 184.238 380.442 182.878 383.216 179.724Z" fill="#11B1C8"/>
<path d="M370.053 172.818C370.652 175.102 371.794 179.18 372.882 180.92L374.948 184.237C374.948 184.237 375.873 184.02 377.124 183.531C375.003 179.778 373.099 175.809 370.053 172.818Z" fill="#149DB1"/>
<g style="mix-blend-mode:multiply">
<path d="M371.739 178.473C374.187 177.549 376.471 176.298 378.538 174.83C377.178 173.851 375.438 172.927 373.317 172.165C372.338 171.839 371.087 171.513 369.618 171.187C359.61 168.957 340.138 166.999 340.138 166.999C340.084 166.945 336.712 164.824 331.001 167.815C331.98 169.229 333.067 170.534 334.264 171.785C343.619 181.029 359.338 183.313 371.739 178.473Z" fill="#D4D4D4"/>
</g>
<g style="mix-blend-mode:multiply">
<path d="M353.355 193.482C351.615 193.21 348.351 192.884 348.351 192.884C348.351 192.884 353.246 191.307 353.681 190.436C354.117 189.512 353.083 189.621 351.56 190.11C350.092 190.6 347.427 191.361 347.427 191.361C347.427 191.361 348.895 189.73 348.732 188.588C348.569 187.446 345.088 191.035 344.87 191.198C344.598 191.361 343.238 190.708 342.259 190.872C342.259 190.872 331.599 187.554 327.248 185.271C324.474 185.271 321.101 185.325 318.327 185.379C320.993 188.805 341.824 194.243 341.824 194.243C341.824 194.243 342.314 196.201 344.707 196.853C344.707 196.853 346.611 198.593 347.155 199.844C347.753 201.095 349.439 200.986 349.113 199.844C348.786 198.702 347.318 196.962 347.318 196.962C347.318 196.962 349.874 197.886 351.343 198.92C352.811 200.007 353.953 199.518 353.246 197.832C352.485 196.201 348.242 195.113 348.242 195.113C348.242 195.113 352.376 195.222 353.573 195.276C354.932 195.385 355.096 193.754 353.355 193.482Z" fill="#C6C6C6"/>
</g>
<g style="mix-blend-mode:multiply">
<path d="M378.321 185.107L379.137 187.011L365.158 191.143L363.091 190.165C363.091 190.165 362.275 188.044 361.133 188.044C359.991 188.044 361.024 189.349 361.568 190.491C362.058 191.633 362.384 192.72 362.384 192.72C362.384 192.72 358.196 189.947 356.891 189.566C355.585 189.24 355.966 190.491 356.891 190.98C357.815 191.47 360.698 193.373 360.698 193.373C360.698 193.373 356.075 192.72 355.585 193.373C355.096 194.026 359.393 194.297 360.1 194.352C360.861 194.461 354.933 196.581 355.912 197.234C356.891 197.886 362.112 195.113 361.514 196.255C360.916 197.397 358.196 200.714 359.719 200.388C361.188 200.062 363.2 196.744 363.2 196.744C363.2 196.744 365.43 196.418 365.92 195.004C365.92 195.004 383.216 191.633 383.76 188.261C383.923 187.174 383.76 186.141 383.488 185.162C381.693 185.107 380.007 185.053 378.321 185.107Z" fill="#C6C6C6"/>
</g>
<path d="M348.297 173.253C348.297 173.253 346.23 180.485 352.376 180.377C358.522 180.268 358.686 174.232 358.686 174.232L348.297 173.253Z" fill="#EFCAA6"/>
<path d="M401.763 121.485C404.374 120.016 395.019 119.364 395.019 119.364C395.019 119.364 395.834 116.917 395.019 114.089C394.203 111.316 392.245 117.733 392.245 117.733C385.337 97.9931 351.234 95.4916 337.908 110.5C324.583 125.509 331.001 145.085 331.001 145.085C331.001 145.085 335.95 132.36 346.828 123.551C346.828 123.551 342.423 129.533 344.109 129.859C345.741 130.131 350.037 127.847 368.585 124.747C368.585 124.747 364.832 129.315 367.279 129.859C369.673 130.348 378.919 127.521 378.919 127.521C378.919 127.521 376.635 139.266 380.442 137.418C384.304 135.569 385.5 132.632 385.5 132.632C385.5 132.632 390.831 144.324 387.676 159.06C413.675 135.351 396.378 122.953 396.378 122.953C396.378 122.953 399.098 122.953 401.763 121.485Z" fill="#EC7B23"/>
<path d="M385.391 132.578C385.391 132.578 384.14 135.46 380.333 137.363C376.471 139.212 378.81 127.466 378.81 127.466C378.81 127.466 369.564 130.294 367.171 129.804C364.777 129.315 368.476 124.693 368.476 124.693C349.929 127.792 345.632 130.076 344 129.804C342.368 129.532 346.72 123.496 346.72 123.496C335.841 132.251 330.892 145.03 330.892 145.03C330.892 145.03 325.942 153.133 330.729 162.432C336.82 174.177 349.82 177.168 362.167 177.168C378.157 177.168 387.513 159.006 387.513 159.006C390.776 144.269 385.391 132.578 385.391 132.578Z" fill="#F4D9BF"/>
<path d="M333.774 139.266C333.774 139.266 334.427 134.644 330.239 135.133C326.051 135.623 325.67 144.65 330.62 145.629C330.62 145.629 332.306 141.713 333.774 139.266Z" fill="#EFCAA6"/>
<path d="M387.676 158.625C387.676 158.625 389.634 153.948 393.768 155.689C397.901 157.429 394.203 164.009 389.416 165.15C384.63 166.292 384.793 163.465 384.793 163.465L387.676 158.625Z" fill="#EFCAA6"/>
<path d="M353.736 167.434C353.736 167.434 353.573 165.857 352.213 166.619C350.799 167.38 349.602 171.676 351.071 172.057C352.485 172.383 353.682 168.74 353.736 167.434Z" fill="white"/>
<path d="M347.263 135.297C347.263 135.297 347.481 134.97 347.862 134.644C348.297 134.318 348.95 134.046 349.657 133.992C349.983 133.992 350.364 133.992 350.69 134.1C351.016 134.209 351.288 134.372 351.506 134.535C351.615 134.644 351.723 134.699 351.778 134.807C351.832 134.862 351.887 134.97 351.941 135.079C351.995 135.242 352.05 135.297 352.05 135.297C352.05 135.297 351.941 135.297 351.778 135.297C351.615 135.297 351.452 135.297 351.234 135.242C351.016 135.242 350.744 135.242 350.527 135.242C350.255 135.242 349.983 135.297 349.711 135.297C349.167 135.351 348.569 135.351 348.079 135.351C347.644 135.351 347.263 135.297 347.263 135.297Z" fill="#A95A16"/>
<path d="M370.162 139.593C370.162 139.593 370.597 139.266 371.304 139.049C372.011 138.777 372.99 138.668 374.024 138.777C374.296 138.831 374.513 138.886 374.785 138.94C375.057 138.994 375.275 139.103 375.492 139.212C375.71 139.321 375.927 139.484 376.091 139.593C376.254 139.756 376.417 139.919 376.526 140.082C376.634 140.245 376.743 140.408 376.798 140.571C376.906 140.68 376.906 140.843 376.906 140.952C376.961 141.17 376.961 141.278 376.961 141.278C376.961 141.278 376.852 141.224 376.689 141.061C376.58 141.006 376.526 140.898 376.417 140.843C376.308 140.789 376.145 140.68 376.036 140.626C375.873 140.571 375.71 140.517 375.547 140.463C375.383 140.408 375.22 140.354 375.003 140.299C374.785 140.245 374.622 140.191 374.404 140.191C374.187 140.136 373.969 140.082 373.752 140.082C373.317 140.028 372.882 139.973 372.446 139.919C372.011 139.864 371.631 139.81 371.25 139.756C370.706 139.701 370.162 139.593 370.162 139.593Z" fill="#A95A16"/>
<path d="M353.736 155.253C353.736 155.253 351.125 158.244 352.866 159.005C354.606 159.767 356.727 159.005 356.727 159.005C356.727 159.005 353.573 159.549 353.301 157.863C353.029 156.178 353.736 155.253 353.736 155.253Z" fill="#C39368"/>
<path d="M328.444 140.354C328.444 140.354 328.662 140.19 329.097 140.082C329.315 140.027 329.586 139.973 329.858 140.027C330.13 140.027 330.457 140.136 330.729 140.245C330.892 140.299 331.001 140.408 331.109 140.517C331.218 140.626 331.327 140.734 331.436 140.843C331.545 140.952 331.599 141.115 331.653 141.224C331.708 141.332 331.708 141.441 331.762 141.55C331.816 141.767 331.816 141.931 331.816 142.094C331.816 142.202 331.816 142.311 331.816 142.311C331.816 142.311 331.762 142.257 331.708 142.148C331.653 142.094 331.653 142.039 331.599 141.985C331.545 141.931 331.49 141.822 331.436 141.767C331.381 141.713 331.327 141.604 331.273 141.496C331.218 141.441 331.164 141.332 331.055 141.278C330.892 141.115 330.729 141.006 330.511 140.897C330.402 140.843 330.294 140.789 330.185 140.734C330.076 140.734 329.967 140.626 329.858 140.626C329.641 140.571 329.423 140.517 329.206 140.462C328.716 140.408 328.444 140.354 328.444 140.354Z" fill="#C39368"/>
<path d="M391.755 160.746C391.755 160.746 391.701 160.691 391.538 160.637C391.429 160.583 391.211 160.528 391.048 160.42C390.939 160.42 390.831 160.365 390.722 160.365C390.613 160.311 390.45 160.311 390.341 160.311C390.232 160.311 390.069 160.256 389.906 160.256C389.743 160.256 389.634 160.256 389.471 160.311C389.308 160.311 389.199 160.311 389.036 160.365C388.872 160.42 388.764 160.42 388.601 160.42C388.492 160.474 388.329 160.42 388.22 160.474C388.111 160.528 388.002 160.528 387.839 160.583C387.404 160.691 387.023 160.746 387.023 160.746C387.023 160.746 387.241 160.528 387.676 160.256C387.785 160.202 387.893 160.093 388.002 160.039C388.111 159.984 388.274 159.93 388.437 159.876C388.601 159.821 388.764 159.767 388.872 159.713C389.036 159.658 389.199 159.658 389.362 159.658C389.525 159.658 389.688 159.658 389.852 159.658C390.015 159.658 390.178 159.713 390.341 159.767C390.504 159.821 390.667 159.821 390.776 159.93C390.885 159.984 391.048 160.093 391.157 160.148C391.374 160.311 391.483 160.474 391.592 160.583C391.755 160.637 391.755 160.746 391.755 160.746Z" fill="#C39368"/>
<path d="M370.869 150.142C370.216 151.828 369.128 152.97 368.421 152.698C367.714 152.426 367.606 150.849 368.258 149.163C368.911 147.477 369.999 146.335 370.706 146.607C371.413 146.879 371.467 148.456 370.869 150.142Z" fill="#3D1A0B"/>
<path d="M369.781 148.293C369.564 148.782 369.183 149.109 368.965 149C368.748 148.891 368.748 148.402 369.02 147.912C369.237 147.423 369.618 147.097 369.836 147.205C370.053 147.314 370.053 147.804 369.781 148.293Z" fill="white"/>
<path d="M349.711 144.269C349.059 145.955 347.971 147.097 347.264 146.825C346.557 146.553 346.448 144.976 347.1 143.29C347.753 141.604 348.841 140.462 349.548 140.734C350.255 141.006 350.364 142.583 349.711 144.269Z" fill="#3D1A0B"/>
<path d="M348.678 142.42C348.46 142.91 348.08 143.236 347.862 143.127C347.644 143.018 347.644 142.529 347.916 142.04C348.134 141.55 348.515 141.224 348.732 141.333C348.95 141.441 348.95 141.931 348.678 142.42Z" fill="white"/>
<path d="M376.961 159.984C376.743 161.126 374.35 161.616 371.631 161.072C368.911 160.528 366.844 159.169 367.062 158.027C367.279 156.885 369.673 156.395 372.392 156.939C375.166 157.483 377.179 158.842 376.961 159.984Z" fill="#F9CBC0"/>
<path d="M345.904 150.577C345.686 151.719 343.293 152.208 340.573 151.665C337.854 151.121 335.787 149.761 336.005 148.619C336.222 147.477 338.615 146.988 341.335 147.532C344.109 148.13 346.176 149.489 345.904 150.577Z" fill="#F9CBC0"/>
<path d="M324.474 173.525C324.474 173.525 316.098 181.899 318.11 185.325C320.177 188.751 341.389 194.515 341.389 194.515C341.389 194.515 341.879 196.473 344.272 197.125C344.272 197.125 346.176 198.865 346.72 200.116C347.318 201.367 349.004 201.258 348.678 200.116C348.351 198.974 346.883 197.234 346.883 197.234C346.883 197.234 349.439 198.158 350.908 199.192C352.376 200.279 353.519 199.79 352.811 198.104C352.05 196.473 347.807 195.385 347.807 195.385C347.807 195.385 351.941 195.494 353.138 195.548C354.334 195.657 354.498 193.971 352.757 193.754C351.017 193.482 347.753 193.155 347.753 193.155C347.753 193.155 352.648 191.578 353.083 190.708C353.519 189.784 352.485 189.893 350.962 190.382C349.494 190.872 346.828 191.633 346.828 191.633C346.828 191.633 348.297 190.002 348.134 188.86C347.971 187.718 344.49 191.307 344.272 191.47C344 191.633 342.64 190.98 341.661 191.143C341.661 191.143 325.67 186.141 324.8 184.237C323.876 182.334 328.662 176.733 328.662 176.733L324.474 173.525Z" fill="#F4D9BF"/>
<path d="M377.07 183.53L378.647 187.228L364.669 191.361L362.602 190.382C362.602 190.382 361.786 188.261 360.644 188.261C359.501 188.261 360.535 189.566 361.079 190.708C361.568 191.85 361.895 192.938 361.895 192.938C361.895 192.938 357.707 190.165 356.401 189.784C355.096 189.458 355.476 190.708 356.401 191.198C357.326 191.687 360.208 193.59 360.208 193.59C360.208 193.59 355.585 192.938 355.096 193.59C354.606 194.243 358.903 194.515 359.61 194.569C360.372 194.678 354.443 196.799 355.422 197.451C356.401 198.104 361.623 195.331 361.024 196.472C360.426 197.614 357.707 200.932 359.229 200.605C360.698 200.279 362.71 196.962 362.71 196.962C362.71 196.962 364.94 196.636 365.43 195.222C365.43 195.222 382.726 191.85 383.27 188.479C383.814 185.107 381.203 181.464 381.203 181.464C381.203 181.464 378.701 182.987 377.07 183.53Z" fill="#F4D9BF"/>
<g opacity="0.4">
<path opacity="0.4" d="M333.774 139.266C336.276 134.807 340.573 128.499 346.774 123.496L350.309 120.397C337.636 126.052 333.774 139.266 333.774 139.266Z" fill="#D7711F"/>
<path opacity="0.4" d="M344 129.804C345.632 130.076 349.928 127.792 368.476 124.693C368.476 124.693 368.421 124.747 368.367 124.856C370.815 122.735 373.643 121.158 373.643 121.158C360.752 122.3 344 129.804 344 129.804Z" fill="#D7711F"/>
<path opacity="0.4" d="M366.518 129.424C366.626 129.641 366.844 129.75 367.17 129.804C369.564 130.294 378.81 127.466 378.81 127.466C378.81 127.466 378.81 127.575 378.756 127.738C380.061 125.508 381.638 123.061 381.638 123.061C373.48 128.826 366.626 129.369 366.518 129.424Z" fill="#D7711F"/>
<path opacity="0.4" d="M384.303 127.357C385.065 134.263 379.517 137.526 379.462 137.526C379.734 137.581 380.006 137.526 380.333 137.363C384.194 135.514 385.391 132.578 385.391 132.578C385.391 132.578 390.667 144.052 387.621 158.625C395.127 143.997 384.303 127.357 384.303 127.357Z" fill="#D7711F"/>
</g>
<path d="M270.73 59.0572C271.345 56.9464 273.494 55.8334 275.298 54.874C285.317 49.6929 297.217 49.6161 308.196 50.3069C320.058 51.0745 331.842 53.2237 342.821 57.7907C346.007 59.134 349.193 60.554 352.072 62.3961C354.606 64.0464 355.45 66.6178 355.143 69.5345C354.798 72.6815 346.544 91.6404 341.094 92.9837C337.984 93.7512 334.76 93.9431 331.842 93.2139C325.892 91.7556 320.403 89.2994 314.914 86.728C314.798 87.1502 314.722 87.5723 314.76 88.0329C314.798 89.7599 315.566 91.4869 316.372 92.9837C317.869 95.7853 320.48 97.9345 323.052 99.6999C324.702 100.813 326.43 101.772 328.196 102.617C329.424 103.384 330.806 104.037 332.073 104.612C332.303 104.727 332.572 104.843 332.802 104.996C332.61 104.958 332.456 104.919 332.265 104.881C329.923 104.536 327.697 104.075 325.432 103.346C321.938 102.194 318.522 100.774 315.106 99.3929C314.453 99.0858 313.8 98.7788 313.186 98.4334C309.578 96.5912 306.353 94.2885 303.59 91.3718C302.092 89.7983 300.979 88.3399 300.25 86.6512C294.415 87.0734 288.619 87.6491 282.784 87.534C280.98 87.4956 279.137 87.534 277.525 86.6129C275.721 85.615 274.607 83.1972 273.648 81.4702C271.037 76.9031 269.963 71.6069 270.001 66.3875C270.078 63.9696 270.039 61.3983 270.73 59.0572ZM337.639 90.5275C340.518 90.2972 342.284 89.2226 343.819 86.728C345.7 83.6577 347.466 80.5491 349.04 77.2869C350.345 74.5621 352.302 71.3383 352.494 68.3064C352.648 65.9269 351.803 64.3918 350.076 62.8183C349.961 62.7032 349.846 62.8567 349.923 62.9718C352.533 66.1188 351.381 69.1891 349.846 72.528C348.848 74.6388 347.888 76.788 346.775 78.8604C345.508 81.2399 344.164 83.581 342.783 85.9221C342.245 86.8048 341.362 88.2631 340.518 88.8004C339.558 89.4529 338.522 89.6448 337.408 89.9518C337.101 90.0669 337.37 90.5658 337.639 90.5275ZM330.46 89.6448C331.612 89.8367 332.764 89.9134 333.954 89.9902C327.812 88.4167 322.092 85.9221 316.142 83.8113C320.672 86.4594 325.432 88.455 330.46 89.6448ZM324.702 102.041C324.856 102.079 324.894 101.887 324.779 101.811C321.324 100.199 317.601 98.1648 315.72 94.6339C314.069 91.4869 312.687 87.6491 313.839 84.1183C313.877 84.0415 313.724 83.9264 313.685 84.0031C309.693 91.8707 317.946 99.7766 324.702 102.041Z" fill="#E66D74"/>
<path d="M294.108 76.5578V63.3557H297.601L300.326 68.1913C301.094 69.5729 301.9 71.2232 302.476 72.72H302.553C302.361 70.9929 302.284 69.1892 302.284 67.2319V63.394H305.01V76.5962H301.862L299.06 71.4919C298.292 70.0719 297.409 68.3832 296.756 66.8481L296.68 66.8865C296.756 68.6135 296.795 70.494 296.795 72.6432V76.6346H294.108V76.5578Z" fill="white"/>
<path d="M319.674 69.8415C319.674 74.1783 317.063 76.788 313.186 76.788C309.271 76.788 306.967 73.8329 306.967 70.0718C306.967 66.1188 309.501 63.1637 313.378 63.1637C317.485 63.1637 319.674 66.1956 319.674 69.8415ZM310.154 69.995C310.154 72.5664 311.382 74.4086 313.378 74.4086C315.413 74.4086 316.564 72.4896 316.564 69.9183C316.564 67.5388 315.413 65.5048 313.378 65.5048C311.344 65.5048 310.154 67.4237 310.154 69.995Z" fill="white"/>
<path d="M321.209 74.9843C321.209 73.9481 321.938 73.2189 322.975 73.2189C324.011 73.2189 324.702 73.9481 324.702 74.9843C324.702 76.0205 324.011 76.7497 322.975 76.7497C321.9 76.7881 321.209 76.0205 321.209 74.9843ZM321.862 72.2211L321.401 63.3557H324.51L324.088 72.2211H321.862Z" fill="white"/>
</g>
<defs>
<linearGradient id="paint0_linear" x1="416" y1="0" x2="243.08" y2="372.762" gradientUnits="userSpaceOnUse">
<stop stop-color="#B469F7"/>
<stop offset="1" stop-color="#8F26EE"/>
</linearGradient>
<linearGradient id="paint1_linear" x1="416" y1="0" x2="243.08" y2="372.762" gradientUnits="userSpaceOnUse">
<stop stop-color="#B469F7"/>
<stop offset="1" stop-color="#8F26EE"/>
</linearGradient>
</defs>
</svg>
